<svg xmlns="http://www.w3.org/2000/svg" xmlns:xlink="http://www.w3.org/1999/xlink" width="300" zoomAndPan="magnify" viewBox="0 0 224.87999 48" height="64" preserveAspectRatio="xMidYMid meet" version="1.0"><defs><g/><clipPath id="153e24b9d1"><path d="M 13 33 L 30.183594 33 L 30.183594 38.714844 L 13 38.714844 Z M 13 33 " clip-rule="nonzero"/></clipPath><clipPath id="02151ea3bc"><path d="M 13 35 L 30.183594 35 L 30.183594 37 L 13 37 Z M 13 35 " clip-rule="nonzero"/></clipPath><clipPath id="1e44ac35df"><path d="M 13 32 L 30.183594 32 L 30.183594 38 L 13 38 Z M 13 32 " clip-rule="nonzero"/></clipPath><clipPath id="a4057408a9"><path d="M 2 5 L 11 5 L 11 18 L 2 18 Z M 2 5 " clip-rule="nonzero"/></clipPath><clipPath id="e8acd378d3"><path d="M 0.3125 7.238281 L 11.632812 0.609375 L 18.144531 12.046875 L 6.824219 18.671875 Z M 0.3125 7.238281 " clip-rule="nonzero"/></clipPath><clipPath id="fc89f62069"><path d="M 3.085938 5.699219 C 3.183594 5.636719 3.28125 5.574219 3.382812 5.515625 L 6.011719 3.976562 C 9.097656 2.167969 13.050781 3.242188 14.832031 6.371094 C 16.617188 9.5 15.554688 13.511719 12.46875 15.316406 L 9.839844 16.855469 C 9.738281 16.914062 9.636719 16.96875 9.535156 17.023438 C 9.359375 17.113281 9.179688 17.195312 9 17.269531 C 7.542969 17.59375 5.246094 15.789062 3.621094 12.933594 C 1.996094 10.082031 1.601562 7.164062 2.609375 6.042969 C 2.761719 5.921875 2.921875 5.808594 3.085938 5.699219 Z M 3.085938 5.699219 " clip-rule="evenodd"/></clipPath><clipPath id="8d698924ab"><path d="M 5 7 L 11 7 L 11 14 L 5 14 Z M 5 7 " clip-rule="nonzero"/></clipPath><clipPath id="744dac5693"><path d="M 0.3125 7.238281 L 11.632812 0.609375 L 18.144531 12.046875 L 6.824219 18.671875 Z M 0.3125 7.238281 " clip-rule="nonzero"/></clipPath><clipPath id="4151b43a78"><path d="M 3.085938 5.699219 C 3.183594 5.636719 3.28125 5.574219 3.382812 5.515625 L 6.011719 3.976562 C 9.097656 2.167969 13.050781 3.242188 14.832031 6.371094 C 16.617188 9.5 15.554688 13.511719 12.46875 15.316406 L 9.839844 16.855469 C 9.738281 16.914062 9.636719 16.96875 9.535156 17.023438 C 9.359375 17.113281 9.179688 17.195312 9 17.269531 C 7.542969 17.59375 5.246094 15.789062 3.621094 12.933594 C 1.996094 10.082031 1.601562 7.164062 2.609375 6.042969 C 2.761719 5.921875 2.921875 5.808594 3.085938 5.699219 Z M 3.085938 5.699219 " clip-rule="evenodd"/></clipPath><clipPath id="528f5f20c5"><path d="M 3.621094 12.933594 C 3.195312 12.183594 2.847656 11.421875 2.582031 10.652344 C 2.3125 9.882812 2.148438 9.160156 2.085938 8.488281 C 2.023438 7.816406 2.066406 7.246094 2.214844 6.773438 C 2.363281 6.304688 2.605469 5.96875 2.945312 5.769531 C 3.28125 5.574219 3.691406 5.527344 4.167969 5.632812 C 4.644531 5.734375 5.152344 5.984375 5.695312 6.375 C 6.238281 6.765625 6.769531 7.273438 7.296875 7.890625 C 7.820312 8.511719 8.296875 9.195312 8.726562 9.949219 C 9.152344 10.699219 9.5 11.460938 9.765625 12.230469 C 10.03125 13 10.199219 13.722656 10.261719 14.394531 C 10.324219 15.066406 10.28125 15.636719 10.132812 16.109375 C 9.984375 16.578125 9.742188 16.914062 9.402344 17.113281 C 9.0625 17.308594 8.65625 17.355469 8.179688 17.25 C 7.703125 17.148438 7.195312 16.898438 6.652344 16.507812 C 6.109375 16.117188 5.578125 15.609375 5.050781 14.992188 C 4.527344 14.371094 4.050781 13.6875 3.621094 12.933594 Z M 3.621094 12.933594 " clip-rule="nonzero"/></clipPath><clipPath id="de031ab9d9"><rect x="0" width="170" y="0" height="39"/></clipPath></defs><g transform="matrix(1, 0, 0, 1, 28, 4)"><g clip-path="url(#de031ab9d9)"><g clip-path="url(#153e24b9d1)"><path fill="#daa529" d="M 30.179688 36.164062 C 30.179688 36.332031 30.125 36.496094 30.019531 36.660156 C 29.910156 36.824219 29.746094 36.984375 29.53125 37.140625 C 29.320312 37.292969 29.054688 37.441406 28.746094 37.582031 C 28.433594 37.71875 28.082031 37.847656 27.6875 37.96875 C 27.289062 38.085938 26.859375 38.191406 26.394531 38.285156 C 25.929688 38.378906 25.4375 38.457031 24.921875 38.519531 C 24.40625 38.585938 23.871094 38.632812 23.324219 38.664062 C 22.777344 38.699219 22.222656 38.714844 21.664062 38.714844 C 21.101562 38.714844 20.550781 38.699219 20 38.664062 C 19.453125 38.632812 18.917969 38.585938 18.402344 38.519531 C 17.886719 38.457031 17.394531 38.378906 16.929688 38.285156 C 16.464844 38.191406 16.035156 38.085938 15.640625 37.96875 C 15.242188 37.847656 14.890625 37.71875 14.578125 37.582031 C 14.269531 37.441406 14.007812 37.292969 13.792969 37.140625 C 13.578125 36.984375 13.417969 36.824219 13.308594 36.660156 C 13.199219 36.496094 13.144531 36.332031 13.144531 36.164062 C 13.144531 35.996094 13.199219 35.832031 13.308594 35.667969 C 13.417969 35.5 13.578125 35.34375 13.792969 35.1875 C 14.007812 35.03125 14.269531 34.886719 14.578125 34.746094 C 14.890625 34.605469 15.242188 34.480469 15.640625 34.359375 C 16.035156 34.242188 16.464844 34.136719 16.929688 34.042969 C 17.394531 33.949219 17.886719 33.871094 18.402344 33.808594 C 18.917969 33.742188 19.453125 33.695312 20 33.660156 C 20.550781 33.628906 21.101562 33.613281 21.664062 33.613281 C 22.222656 33.613281 22.777344 33.628906 23.324219 33.660156 C 23.871094 33.695312 24.40625 33.742188 24.921875 33.808594 C 25.4375 33.871094 25.929688 33.949219 26.394531 34.042969 C 26.859375 34.136719 27.289062 34.242188 27.6875 34.359375 C 28.082031 34.480469 28.433594 34.605469 28.746094 34.746094 C 29.054688 34.886719 29.320312 35.03125 29.53125 35.1875 C 29.746094 35.34375 29.910156 35.5 30.019531 35.667969 C 30.125 35.832031 30.179688 35.996094 30.179688 36.164062 Z M 30.179688 36.164062 " fill-opacity="1" fill-rule="nonzero"/></g><g clip-path="url(#02151ea3bc)"><path fill="#daa529" d="M 13.144531 35.15625 L 30.179688 35.15625 L 30.179688 36.164062 L 13.144531 36.164062 Z M 13.144531 35.15625 " fill-opacity="1" fill-rule="evenodd"/></g><g clip-path="url(#1e44ac35df)"><path fill="#ffc640" d="M 30.179688 35.15625 C 30.179688 35.324219 30.125 35.492188 30.019531 35.65625 C 29.910156 35.820312 29.746094 35.980469 29.53125 36.132812 C 29.320312 36.289062 29.054688 36.4375 28.746094 36.574219 C 28.433594 36.714844 28.082031 36.84375 27.6875 36.960938 C 27.289062 37.078125 26.859375 37.1875 26.394531 37.277344 C 25.929688 37.371094 25.4375 37.449219 24.921875 37.515625 C 24.40625 37.578125 23.871094 37.625 23.324219 37.660156 C 22.777344 37.691406 22.222656 37.707031 21.664062 37.707031 C 21.101562 37.707031 20.550781 37.691406 20 37.660156 C 19.453125 37.628906 18.917969 37.578125 18.402344 37.515625 C 17.886719 37.449219 17.394531 37.371094 16.929688 37.277344 C 16.464844 37.1875 16.035156 37.078125 15.640625 36.960938 C 15.242188 36.84375 14.890625 36.714844 14.578125 36.574219 C 14.269531 36.4375 14.007812 36.289062 13.792969 36.132812 C 13.578125 35.980469 13.417969 35.820312 13.308594 35.65625 C 13.199219 35.492188 13.144531 35.324219 13.144531 35.15625 C 13.144531 34.992188 13.199219 34.824219 13.308594 34.660156 C 13.417969 34.496094 13.578125 34.335938 13.792969 34.179688 C 14.007812 34.027344 14.269531 33.878906 14.578125 33.742188 C 14.890625 33.601562 15.242188 33.472656 15.640625 33.355469 C 16.035156 33.234375 16.464844 33.128906 16.929688 33.035156 C 17.394531 32.945312 17.886719 32.863281 18.402344 32.800781 C 18.917969 32.738281 19.453125 32.6875 20 32.65625 C 20.550781 32.625 21.101562 32.605469 21.664062 32.605469 C 22.222656 32.605469 22.777344 32.625 23.324219 32.65625 C 23.871094 32.6875 24.40625 32.738281 24.921875 32.800781 C 25.4375 32.863281 25.929688 32.945312 26.394531 33.035156 C 26.859375 33.128906 27.289062 33.234375 27.6875 33.355469 C 28.082031 33.472656 28.433594 33.601562 28.746094 33.742188 C 29.054688 33.878906 29.320312 34.027344 29.53125 34.179688 C 29.746094 34.335938 29.910156 34.496094 30.019531 34.660156 C 30.125 34.824219 30.179688 34.992188 30.179688 35.15625 Z M 30.179688 35.15625 " fill-opacity="1" fill-rule="nonzero"/></g><path fill="#9e7515" d="M 22.351562 34.570312 C 22.320312 34.925781 22.007812 35.1875 21.65625 35.152344 C 21.308594 35.121094 21.050781 34.804688 21.082031 34.449219 C 21.082031 34.449219 22.113281 23.265625 21.097656 14.808594 C 20.679688 11.324219 19.945312 8.304688 18.574219 6.832031 C 17.832031 6.039062 16.859375 6.046875 15.96875 6.296875 C 14.425781 6.726562 13.078125 7.882812 13.078125 7.882812 C 12.808594 8.113281 12.40625 8.078125 12.179688 7.804688 C 11.949219 7.53125 11.984375 7.125 12.253906 6.894531 C 12.253906 6.894531 13.832031 5.550781 15.628906 5.050781 C 16.960938 4.679688 18.394531 4.761719 19.5 5.945312 C 21.003906 7.558594 21.90625 10.832031 22.363281 14.652344 C 23.394531 23.230469 22.351562 34.570312 22.351562 34.570312 Z M 22.351562 34.570312 " fill-opacity="1" fill-rule="evenodd"/><path fill="#ffc640" d="M 3.085938 5.699219 C 3.183594 5.636719 3.28125 5.574219 3.382812 5.515625 L 6.011719 3.976562 C 9.097656 2.167969 13.050781 3.242188 14.832031 6.371094 C 16.617188 9.5 15.554688 13.511719 12.46875 15.316406 L 9.839844 16.855469 C 9.738281 16.914062 9.636719 16.96875 9.535156 17.023438 C 9.359375 17.113281 9.179688 17.195312 9 17.269531 C 7.542969 17.59375 5.246094 15.789062 3.621094 12.933594 C 1.996094 10.082031 1.601562 7.164062 2.609375 6.042969 C 2.761719 5.921875 2.921875 5.808594 3.085938 5.699219 Z M 3.085938 5.699219 " fill-opacity="1" fill-rule="evenodd"/><g clip-path="url(#a4057408a9)"><g clip-path="url(#e8acd378d3)"><g clip-path="url(#fc89f62069)"><path fill="#daa529" d="M 8.726562 9.949219 C 8.9375 10.320312 9.128906 10.699219 9.304688 11.082031 C 9.480469 11.464844 9.632812 11.847656 9.765625 12.230469 C 9.898438 12.613281 10.003906 12.984375 10.089844 13.347656 C 10.171875 13.714844 10.230469 14.0625 10.261719 14.394531 C 10.292969 14.726562 10.296875 15.039062 10.277344 15.324219 C 10.253906 15.613281 10.207031 15.875 10.132812 16.109375 C 10.058594 16.339844 9.960938 16.542969 9.839844 16.710938 C 9.714844 16.878906 9.570312 17.011719 9.402344 17.113281 C 9.234375 17.210938 9.046875 17.269531 8.84375 17.292969 C 8.636719 17.316406 8.414062 17.304688 8.179688 17.25 C 7.945312 17.199219 7.699219 17.109375 7.441406 16.984375 C 7.183594 16.859375 6.921875 16.699219 6.652344 16.507812 C 6.382812 16.3125 6.113281 16.089844 5.84375 15.832031 C 5.574219 15.578125 5.3125 15.296875 5.050781 14.992188 C 4.792969 14.683594 4.542969 14.359375 4.300781 14.011719 C 4.058594 13.667969 3.832031 13.308594 3.621094 12.933594 C 3.410156 12.5625 3.214844 12.183594 3.039062 11.800781 C 2.867188 11.414062 2.710938 11.03125 2.582031 10.652344 C 2.449219 10.269531 2.339844 9.898438 2.257812 9.53125 C 2.175781 9.167969 2.117188 8.820312 2.085938 8.488281 C 2.054688 8.15625 2.050781 7.84375 2.070312 7.554688 C 2.09375 7.269531 2.140625 7.007812 2.214844 6.773438 C 2.289062 6.542969 2.386719 6.339844 2.507812 6.171875 C 2.632812 6.003906 2.777344 5.867188 2.945312 5.769531 C 3.113281 5.671875 3.296875 5.613281 3.503906 5.589844 C 3.710938 5.566406 3.929688 5.578125 4.167969 5.632812 C 4.402344 5.683594 4.648438 5.769531 4.90625 5.898438 C 5.164062 6.023438 5.425781 6.179688 5.695312 6.375 C 5.964844 6.570312 6.230469 6.792969 6.5 7.050781 C 6.769531 7.304688 7.035156 7.585938 7.296875 7.890625 C 7.554688 8.199219 7.804688 8.523438 8.046875 8.871094 C 8.285156 9.214844 8.511719 9.574219 8.726562 9.949219 Z M 8.726562 9.949219 " fill-opacity="1" fill-rule="nonzero"/></g></g></g><g clip-path="url(#8d698924ab)"><g clip-path="url(#744dac5693)"><g clip-path="url(#4151b43a78)"><g clip-path="url(#528f5f20c5)"><path fill="#fffcdc" d="M 10.652344 8.878906 C 10.847656 9.222656 10.972656 9.589844 11.023438 9.984375 C 11.074219 10.378906 11.046875 10.765625 10.945312 11.148438 C 10.839844 11.53125 10.671875 11.882812 10.429688 12.199219 C 10.191406 12.511719 9.902344 12.769531 9.5625 12.96875 C 9.222656 13.167969 8.855469 13.292969 8.46875 13.347656 C 8.078125 13.398438 7.695312 13.375 7.316406 13.273438 C 6.9375 13.171875 6.589844 13 6.28125 12.757812 C 5.96875 12.519531 5.71875 12.226562 5.523438 11.882812 C 5.324219 11.539062 5.203125 11.171875 5.152344 10.777344 C 5.101562 10.386719 5.128906 9.996094 5.230469 9.613281 C 5.332031 9.230469 5.503906 8.878906 5.742188 8.566406 C 5.984375 8.25 6.273438 7.992188 6.613281 7.792969 C 6.953125 7.59375 7.320312 7.46875 7.707031 7.414062 C 8.097656 7.363281 8.480469 7.386719 8.859375 7.488281 C 9.238281 7.589844 9.582031 7.761719 9.894531 8.003906 C 10.203125 8.246094 10.457031 8.535156 10.652344 8.878906 Z M 10.652344 8.878906 " fill-opacity="1" fill-rule="nonzero"/></g></g></g></g><g fill="#ffc640" fill-opacity="1"><g transform="translate(30.294614, 25.872886)"><g><path d="M 1.140625 0 L 1.140625 -12.78125 L 6.5 -12.78125 C 7.445312 -12.78125 8.328125 -12.613281 9.140625 -12.28125 C 9.953125 -11.957031 10.664062 -11.5 11.28125 -10.90625 C 11.894531 -10.320312 12.375 -9.640625 12.71875 -8.859375 C 13.070312 -8.085938 13.25 -7.265625 13.25 -6.390625 C 13.25 -5.503906 13.070312 -4.671875 12.71875 -3.890625 C 12.375 -3.117188 11.894531 -2.441406 11.28125 -1.859375 C 10.664062 -1.273438 9.953125 -0.816406 9.140625 -0.484375 C 8.328125 -0.160156 7.445312 0 6.5 0 Z M 4.578125 -0.234375 L 6.5 -0.234375 C 7.132812 -0.234375 7.65625 -0.398438 8.0625 -0.734375 C 8.46875 -1.078125 8.785156 -1.539062 9.015625 -2.125 C 9.242188 -2.71875 9.398438 -3.378906 9.484375 -4.109375 C 9.566406 -4.847656 9.609375 -5.609375 9.609375 -6.390625 C 9.609375 -7.117188 9.5625 -7.847656 9.46875 -8.578125 C 9.375 -9.304688 9.207031 -9.96875 8.96875 -10.5625 C 8.738281 -11.15625 8.425781 -11.632812 8.03125 -12 C 7.632812 -12.363281 7.125 -12.546875 6.5 -12.546875 L 4.578125 -12.546875 Z M 4.578125 -0.234375 "/></g></g></g><g fill="#ffc640" fill-opacity="1"><g transform="translate(44.11826, 25.872886)"><g><path d="M 5.640625 0.234375 C 4.710938 0.234375 3.863281 0.015625 3.09375 -0.421875 C 2.320312 -0.867188 1.707031 -1.460938 1.25 -2.203125 C 0.800781 -2.953125 0.578125 -3.773438 0.578125 -4.671875 C 0.578125 -5.566406 0.800781 -6.382812 1.25 -7.125 C 1.707031 -7.863281 2.320312 -8.453125 3.09375 -8.890625 C 3.863281 -9.335938 4.710938 -9.5625 5.640625 -9.5625 C 6.847656 -9.5625 7.835938 -9.234375 8.609375 -8.578125 C 9.390625 -7.921875 9.78125 -6.992188 9.78125 -5.796875 L 3.859375 -5.796875 C 3.921875 -4.347656 4.234375 -3.234375 4.796875 -2.453125 C 5.367188 -1.671875 6.085938 -1.28125 6.953125 -1.28125 C 7.597656 -1.28125 8.171875 -1.503906 8.671875 -1.953125 C 9.179688 -2.410156 9.5625 -3 9.8125 -3.71875 L 10.0625 -3.671875 C 9.820312 -2.554688 9.328125 -1.625 8.578125 -0.875 C 7.828125 -0.132812 6.847656 0.234375 5.640625 0.234375 Z M 3.859375 -6.015625 L 6.734375 -6.015625 C 6.734375 -6.953125 6.632812 -7.734375 6.4375 -8.359375 C 6.25 -8.992188 5.9375 -9.3125 5.5 -9.3125 C 5.0625 -9.3125 4.679688 -8.992188 4.359375 -8.359375 C 4.035156 -7.734375 3.867188 -6.953125 3.859375 -6.015625 Z M 3.859375 -6.015625 "/></g></g></g><g fill="#ffc640" fill-opacity="1"><g transform="translate(54.748328, 25.872886)"><g><path d="M 5.640625 0.234375 C 4.710938 0.234375 3.863281 0.015625 3.09375 -0.421875 C 2.320312 -0.867188 1.707031 -1.460938 1.25 -2.203125 C 0.800781 -2.953125 0.578125 -3.773438 0.578125 -4.671875 C 0.578125 -5.554688 0.796875 -6.363281 1.234375 -7.09375 C 1.671875 -7.820312 2.265625 -8.410156 3.015625 -8.859375 C 3.773438 -9.304688 4.601562 -9.539062 5.5 -9.5625 C 6.207031 -9.5625 6.851562 -9.445312 7.4375 -9.21875 C 8.03125 -9 8.5 -8.703125 8.84375 -8.328125 C 9.1875 -7.960938 9.359375 -7.546875 9.359375 -7.078125 C 9.359375 -6.679688 9.238281 -6.3125 9 -5.96875 C 8.757812 -5.632812 8.375 -5.46875 7.84375 -5.46875 C 7.4375 -5.46875 7.085938 -5.597656 6.796875 -5.859375 C 6.503906 -6.117188 6.359375 -6.367188 6.359375 -6.609375 C 6.359375 -6.609375 6.421875 -6.640625 6.546875 -6.703125 C 6.671875 -6.765625 6.789062 -6.882812 6.90625 -7.0625 C 7.03125 -7.25 7.09375 -7.519531 7.09375 -7.875 C 7.09375 -8.3125 6.960938 -8.660156 6.703125 -8.921875 C 6.441406 -9.179688 6.09375 -9.3125 5.65625 -9.3125 C 5.019531 -9.3125 4.5625 -9 4.28125 -8.375 C 4 -7.757812 3.859375 -6.972656 3.859375 -6.015625 C 3.859375 -4.453125 4.148438 -3.269531 4.734375 -2.46875 C 5.316406 -1.675781 6.054688 -1.28125 6.953125 -1.28125 C 7.597656 -1.28125 8.171875 -1.503906 8.671875 -1.953125 C 9.179688 -2.410156 9.5625 -3 9.8125 -3.71875 L 10.0625 -3.671875 C 9.820312 -2.554688 9.328125 -1.625 8.578125 -0.875 C 7.828125 -0.132812 6.847656 0.234375 5.640625 0.234375 Z M 5.640625 0.234375 "/></g></g></g><g fill="#ffc640" fill-opacity="1"><g transform="translate(65.378396, 25.872886)"><g><path d="M 5.640625 0.234375 C 4.710938 0.234375 3.863281 0.015625 3.09375 -0.421875 C 2.320312 -0.867188 1.707031 -1.460938 1.25 -2.203125 C 0.800781 -2.953125 0.578125 -3.773438 0.578125 -4.671875 C 0.578125 -5.566406 0.800781 -6.382812 1.25 -7.125 C 1.707031 -7.863281 2.320312 -8.453125 3.09375 -8.890625 C 3.863281 -9.335938 4.710938 -9.5625 5.640625 -9.5625 C 6.847656 -9.5625 7.835938 -9.234375 8.609375 -8.578125 C 9.390625 -7.921875 9.78125 -6.992188 9.78125 -5.796875 L 3.859375 -5.796875 C 3.921875 -4.347656 4.234375 -3.234375 4.796875 -2.453125 C 5.367188 -1.671875 6.085938 -1.28125 6.953125 -1.28125 C 7.597656 -1.28125 8.171875 -1.503906 8.671875 -1.953125 C 9.179688 -2.410156 9.5625 -3 9.8125 -3.71875 L 10.0625 -3.671875 C 9.820312 -2.554688 9.328125 -1.625 8.578125 -0.875 C 7.828125 -0.132812 6.847656 0.234375 5.640625 0.234375 Z M 3.859375 -6.015625 L 6.734375 -6.015625 C 6.734375 -6.953125 6.632812 -7.734375 6.4375 -8.359375 C 6.25 -8.992188 5.9375 -9.3125 5.5 -9.3125 C 5.0625 -9.3125 4.679688 -8.992188 4.359375 -8.359375 C 4.035156 -7.734375 3.867188 -6.953125 3.859375 -6.015625 Z M 3.859375 -6.015625 "/></g></g></g><g fill="#ffc640" fill-opacity="1"><g transform="translate(76.008464, 25.872886)"><g><path d="M 1.140625 0 L 1.140625 -9.3125 L 4.46875 -9.3125 L 4.46875 -7.578125 C 4.695312 -7.878906 4.984375 -8.1875 5.328125 -8.5 C 5.679688 -8.820312 6.082031 -9.097656 6.53125 -9.328125 C 6.976562 -9.554688 7.457031 -9.671875 7.96875 -9.671875 C 8.75 -9.671875 9.378906 -9.460938 9.859375 -9.046875 C 10.335938 -8.640625 10.578125 -8.179688 10.578125 -7.671875 L 10.578125 0 L 7.25 0 L 7.25 -7.734375 C 7.25 -8.359375 7.070312 -8.710938 6.71875 -8.796875 C 6.375 -8.890625 5.988281 -8.753906 5.5625 -8.390625 C 5.46875 -8.316406 5.296875 -8.144531 5.046875 -7.875 C 4.796875 -7.613281 4.601562 -7.382812 4.46875 -7.1875 L 4.46875 0 Z M 1.140625 0 "/></g></g></g><g fill="#ffc640" fill-opacity="1"><g transform="translate(87.733471, 25.872886)"><g><path d="M 5.171875 -9.078125 L 4.3125 -9.078125 L 4.3125 -1.9375 C 4.3125 -1.738281 4.332031 -1.554688 4.375 -1.390625 C 4.425781 -1.234375 4.523438 -1.15625 4.671875 -1.15625 C 4.753906 -1.15625 4.820312 -1.203125 4.875 -1.296875 C 4.9375 -1.390625 4.976562 -1.601562 5 -1.9375 L 5.171875 -1.921875 C 5.171875 -1.328125 4.960938 -0.816406 4.546875 -0.390625 C 4.128906 0.0234375 3.625 0.234375 3.03125 0.234375 C 2.457031 0.234375 1.972656 0.03125 1.578125 -0.375 C 1.179688 -0.78125 0.984375 -1.265625 0.984375 -1.828125 L 0.984375 -9.078125 L 0 -9.078125 L 0 -9.3125 L 1.15625 -9.3125 C 2.070312 -9.34375 2.785156 -9.648438 3.296875 -10.234375 C 3.816406 -10.828125 4.078125 -11.597656 4.078125 -12.546875 L 4.3125 -12.546875 L 4.3125 -9.3125 L 5.171875 -9.3125 Z M 5.171875 -9.078125 "/></g></g></g><g fill="#000000" fill-opacity="1"><g transform="translate(93.495016, 25.872886)"><g/></g></g><g fill="#000000" fill-opacity="1"><g transform="translate(98.125708, 25.872886)"><g><path d="M 3.3125 0.234375 C 2.519531 0.234375 1.863281 0.0195312 1.34375 -0.40625 C 0.832031 -0.832031 0.578125 -1.351562 0.578125 -1.96875 C 0.578125 -2.5625 0.722656 -3.035156 1.015625 -3.390625 C 1.304688 -3.742188 1.710938 -4.039062 2.234375 -4.28125 C 2.765625 -4.53125 3.375 -4.78125 4.0625 -5.03125 C 4.757812 -5.28125 5.503906 -5.597656 6.296875 -5.984375 L 6.296875 -7.625 C 6.296875 -8.15625 6.148438 -8.5625 5.859375 -8.84375 C 5.566406 -9.125 5.210938 -9.265625 4.796875 -9.265625 C 4.378906 -9.265625 4.015625 -9.15625 3.703125 -8.9375 C 3.390625 -8.726562 3.234375 -8.359375 3.234375 -7.828125 C 3.234375 -7.472656 3.296875 -7.203125 3.421875 -7.015625 C 3.546875 -6.835938 3.664062 -6.71875 3.78125 -6.65625 C 3.90625 -6.59375 3.96875 -6.5625 3.96875 -6.5625 C 3.96875 -6.351562 3.84375 -6.117188 3.59375 -5.859375 C 3.351562 -5.597656 3.050781 -5.453125 2.6875 -5.421875 C 2.09375 -5.367188 1.660156 -5.515625 1.390625 -5.859375 C 1.117188 -6.210938 0.984375 -6.601562 0.984375 -7.03125 C 0.984375 -7.5 1.148438 -7.914062 1.484375 -8.28125 C 1.828125 -8.65625 2.289062 -8.953125 2.875 -9.171875 C 3.46875 -9.398438 4.113281 -9.515625 4.8125 -9.515625 C 6.269531 -9.515625 7.457031 -9.140625 8.375 -8.390625 C 8.769531 -8.078125 9.078125 -7.695312 9.296875 -7.25 C 9.515625 -6.8125 9.625 -6.300781 9.625 -5.71875 L 9.625 -1.9375 C 9.625 -1.738281 9.644531 -1.554688 9.6875 -1.390625 C 9.738281 -1.234375 9.835938 -1.15625 9.984375 -1.15625 C 10.066406 -1.15625 10.132812 -1.203125 10.1875 -1.296875 C 10.25 -1.390625 10.289062 -1.601562 10.3125 -1.9375 L 10.5 -1.921875 C 10.5 -1.328125 10.285156 -0.816406 9.859375 -0.390625 C 9.441406 0.0234375 8.9375 0.234375 8.34375 0.234375 C 7.8125 0.234375 7.351562 0.0625 6.96875 -0.28125 C 6.59375 -0.625 6.375 -1.054688 6.3125 -1.578125 C 6.144531 -1.285156 5.898438 -1 5.578125 -0.71875 C 5.265625 -0.445312 4.910156 -0.21875 4.515625 -0.03125 C 4.117188 0.144531 3.71875 0.234375 3.3125 0.234375 Z M 4.84375 -1.078125 C 5.414062 -1.078125 5.898438 -1.316406 6.296875 -1.796875 L 6.296875 -5.765625 C 5.503906 -5.316406 4.878906 -4.851562 4.421875 -4.375 C 3.960938 -3.894531 3.734375 -3.25 3.734375 -2.4375 C 3.734375 -2.09375 3.835938 -1.78125 4.046875 -1.5 C 4.253906 -1.21875 4.519531 -1.078125 4.84375 -1.078125 Z M 4.84375 -1.078125 "/></g></g></g><g fill="#000000" fill-opacity="1"><g transform="translate(109.18919, 25.872886)"><g><path d="M 7.09375 -9.515625 C 7.550781 -9.515625 7.992188 -9.429688 8.421875 -9.265625 C 8.847656 -9.097656 9.191406 -8.820312 9.453125 -8.4375 C 9.722656 -8.0625 9.859375 -7.5625 9.859375 -6.9375 C 9.859375 -6.613281 9.800781 -6.289062 9.6875 -5.96875 C 9.570312 -5.65625 9.378906 -5.390625 9.109375 -5.171875 C 8.847656 -4.960938 8.488281 -4.859375 8.03125 -4.859375 C 7.570312 -4.859375 7.210938 -5.007812 6.953125 -5.3125 C 6.691406 -5.613281 6.550781 -5.910156 6.53125 -6.203125 C 6.53125 -6.203125 6.628906 -6.265625 6.828125 -6.390625 C 7.023438 -6.523438 7.21875 -6.71875 7.40625 -6.96875 C 7.59375 -7.21875 7.6875 -7.523438 7.6875 -7.890625 C 7.6875 -8.242188 7.582031 -8.546875 7.375 -8.796875 C 7.175781 -9.046875 6.90625 -9.171875 6.5625 -9.171875 C 6.144531 -9.171875 5.753906 -9.023438 5.390625 -8.734375 C 5.035156 -8.441406 4.726562 -8.046875 4.46875 -7.546875 L 4.46875 0 L 1.140625 0 L 1.140625 -9.3125 L 4.46875 -9.3125 L 4.46875 -8 C 4.757812 -8.488281 5.117188 -8.863281 5.546875 -9.125 C 5.972656 -9.382812 6.488281 -9.515625 7.09375 -9.515625 Z M 7.09375 -9.515625 "/></g></g></g><g fill="#000000" fill-opacity="1"><g transform="translate(119.385844, 25.872886)"><g><path d="M 5.171875 -9.078125 L 4.3125 -9.078125 L 4.3125 -1.9375 C 4.3125 -1.738281 4.332031 -1.554688 4.375 -1.390625 C 4.425781 -1.234375 4.523438 -1.15625 4.671875 -1.15625 C 4.753906 -1.15625 4.820312 -1.203125 4.875 -1.296875 C 4.9375 -1.390625 4.976562 -1.601562 5 -1.9375 L 5.171875 -1.921875 C 5.171875 -1.328125 4.960938 -0.816406 4.546875 -0.390625 C 4.128906 0.0234375 3.625 0.234375 3.03125 0.234375 C 2.457031 0.234375 1.972656 0.03125 1.578125 -0.375 C 1.179688 -0.78125 0.984375 -1.265625 0.984375 -1.828125 L 0.984375 -9.078125 L 0 -9.078125 L 0 -9.3125 L 1.15625 -9.3125 C 2.070312 -9.34375 2.785156 -9.648438 3.296875 -10.234375 C 3.816406 -10.828125 4.078125 -11.597656 4.078125 -12.546875 L 4.3125 -12.546875 L 4.3125 -9.3125 L 5.171875 -9.3125 Z M 5.171875 -9.078125 "/></g></g></g><g fill="#000000" fill-opacity="1"><g transform="translate(125.1343, 25.872886)"><g><path d="M 2.921875 -10.5625 C 2.429688 -10.5625 2.007812 -10.734375 1.65625 -11.078125 C 1.3125 -11.429688 1.140625 -11.859375 1.140625 -12.359375 C 1.140625 -12.847656 1.3125 -13.265625 1.65625 -13.609375 C 2.007812 -13.960938 2.429688 -14.140625 2.921875 -14.140625 C 3.421875 -14.140625 3.84375 -13.960938 4.1875 -13.609375 C 4.539062 -13.265625 4.71875 -12.847656 4.71875 -12.359375 C 4.71875 -11.859375 4.539062 -11.429688 4.1875 -11.078125 C 3.84375 -10.734375 3.421875 -10.5625 2.921875 -10.5625 Z M 1.25 0 L 1.25 -9.3125 L 4.578125 -9.28125 L 4.578125 0 Z M 1.25 0 "/></g></g></g><g fill="#000000" fill-opacity="1"><g transform="translate(130.996803, 25.872886)"><g><path d="M 5.640625 0.234375 C 4.710938 0.234375 3.863281 0.015625 3.09375 -0.421875 C 2.320312 -0.867188 1.707031 -1.460938 1.25 -2.203125 C 0.800781 -2.953125 0.578125 -3.773438 0.578125 -4.671875 C 0.578125 -5.554688 0.796875 -6.363281 1.234375 -7.09375 C 1.671875 -7.820312 2.265625 -8.410156 3.015625 -8.859375 C 3.773438 -9.304688 4.601562 -9.539062 5.5 -9.5625 C 6.207031 -9.5625 6.851562 -9.445312 7.4375 -9.21875 C 8.03125 -9 8.5 -8.703125 8.84375 -8.328125 C 9.1875 -7.960938 9.359375 -7.546875 9.359375 -7.078125 C 9.359375 -6.679688 9.238281 -6.3125 9 -5.96875 C 8.757812 -5.632812 8.375 -5.46875 7.84375 -5.46875 C 7.4375 -5.46875 7.085938 -5.597656 6.796875 -5.859375 C 6.503906 -6.117188 6.359375 -6.367188 6.359375 -6.609375 C 6.359375 -6.609375 6.421875 -6.640625 6.546875 -6.703125 C 6.671875 -6.765625 6.789062 -6.882812 6.90625 -7.0625 C 7.03125 -7.25 7.09375 -7.519531 7.09375 -7.875 C 7.09375 -8.3125 6.960938 -8.660156 6.703125 -8.921875 C 6.441406 -9.179688 6.09375 -9.3125 5.65625 -9.3125 C 5.019531 -9.3125 4.5625 -9 4.28125 -8.375 C 4 -7.757812 3.859375 -6.972656 3.859375 -6.015625 C 3.859375 -4.453125 4.148438 -3.269531 4.734375 -2.46875 C 5.316406 -1.675781 6.054688 -1.28125 6.953125 -1.28125 C 7.597656 -1.28125 8.171875 -1.503906 8.671875 -1.953125 C 9.179688 -2.410156 9.5625 -3 9.8125 -3.71875 L 10.0625 -3.671875 C 9.820312 -2.554688 9.328125 -1.625 8.578125 -0.875 C 7.828125 -0.132812 6.847656 0.234375 5.640625 0.234375 Z M 5.640625 0.234375 "/></g></g></g><g fill="#000000" fill-opacity="1"><g transform="translate(141.626871, 25.872886)"><g><path d="M 1.140625 0 L 1.140625 -14.140625 L 4.46875 -14.140625 L 4.46875 0 Z M 1.140625 0 "/></g></g></g><g fill="#000000" fill-opacity="1"><g transform="translate(147.238453, 25.872886)"><g><path d="M 5.640625 0.234375 C 4.710938 0.234375 3.863281 0.015625 3.09375 -0.421875 C 2.320312 -0.867188 1.707031 -1.460938 1.25 -2.203125 C 0.800781 -2.953125 0.578125 -3.773438 0.578125 -4.671875 C 0.578125 -5.566406 0.800781 -6.382812 1.25 -7.125 C 1.707031 -7.863281 2.320312 -8.453125 3.09375 -8.890625 C 3.863281 -9.335938 4.710938 -9.5625 5.640625 -9.5625 C 6.847656 -9.5625 7.835938 -9.234375 8.609375 -8.578125 C 9.390625 -7.921875 9.78125 -6.992188 9.78125 -5.796875 L 3.859375 -5.796875 C 3.921875 -4.347656 4.234375 -3.234375 4.796875 -2.453125 C 5.367188 -1.671875 6.085938 -1.28125 6.953125 -1.28125 C 7.597656 -1.28125 8.171875 -1.503906 8.671875 -1.953125 C 9.179688 -2.410156 9.5625 -3 9.8125 -3.71875 L 10.0625 -3.671875 C 9.820312 -2.554688 9.328125 -1.625 8.578125 -0.875 C 7.828125 -0.132812 6.847656 0.234375 5.640625 0.234375 Z M 3.859375 -6.015625 L 6.734375 -6.015625 C 6.734375 -6.953125 6.632812 -7.734375 6.4375 -8.359375 C 6.25 -8.992188 5.9375 -9.3125 5.5 -9.3125 C 5.0625 -9.3125 4.679688 -8.992188 4.359375 -8.359375 C 4.035156 -7.734375 3.867188 -6.953125 3.859375 -6.015625 Z M 3.859375 -6.015625 "/></g></g></g><g fill="#000000" fill-opacity="1"><g transform="translate(157.868521, 25.872886)"><g><path d="M 5.25 0.234375 C 4.5 0.234375 3.773438 0.113281 3.078125 -0.125 C 2.378906 -0.363281 1.804688 -0.691406 1.359375 -1.109375 C 0.910156 -1.523438 0.6875 -2.007812 0.6875 -2.5625 C 0.6875 -3.039062 0.84375 -3.410156 1.15625 -3.671875 C 1.46875 -3.941406 1.835938 -4.078125 2.265625 -4.078125 C 2.742188 -4.078125 3.171875 -3.921875 3.546875 -3.609375 C 3.929688 -3.296875 4.125 -2.945312 4.125 -2.5625 C 3.65625 -2.5625 3.421875 -2.234375 3.421875 -1.578125 C 3.421875 -1.015625 3.609375 -0.609375 3.984375 -0.359375 C 4.359375 -0.117188 4.742188 0 5.140625 0 C 5.359375 0 5.601562 -0.03125 5.875 -0.09375 C 6.144531 -0.164062 6.375 -0.296875 6.5625 -0.484375 C 6.75 -0.679688 6.84375 -0.960938 6.84375 -1.328125 C 6.84375 -1.703125 6.703125 -2.046875 6.421875 -2.359375 C 6.140625 -2.671875 5.773438 -2.960938 5.328125 -3.234375 C 4.878906 -3.515625 4.398438 -3.789062 3.890625 -4.0625 C 3.378906 -4.332031 2.898438 -4.613281 2.453125 -4.90625 C 2.003906 -5.207031 1.640625 -5.53125 1.359375 -5.875 C 1.078125 -6.226562 0.9375 -6.628906 0.9375 -7.078125 C 0.9375 -7.671875 1.164062 -8.144531 1.625 -8.5 C 2.09375 -8.851562 2.675781 -9.109375 3.375 -9.265625 C 4.070312 -9.429688 4.769531 -9.515625 5.46875 -9.515625 C 6.175781 -9.515625 6.820312 -9.414062 7.40625 -9.21875 C 8 -9.019531 8.472656 -8.753906 8.828125 -8.421875 C 9.191406 -8.085938 9.375 -7.695312 9.375 -7.25 C 9.375 -6.738281 9.207031 -6.375 8.875 -6.15625 C 8.539062 -5.945312 8.210938 -5.84375 7.890625 -5.84375 C 7.484375 -5.84375 7.125 -5.96875 6.8125 -6.21875 C 6.507812 -6.46875 6.359375 -6.753906 6.359375 -7.078125 C 6.359375 -7.078125 6.414062 -7.09375 6.53125 -7.125 C 6.644531 -7.164062 6.757812 -7.257812 6.875 -7.40625 C 6.988281 -7.5625 7.046875 -7.789062 7.046875 -8.09375 C 7.046875 -8.457031 6.894531 -8.742188 6.59375 -8.953125 C 6.300781 -9.171875 5.941406 -9.28125 5.515625 -9.28125 C 5.273438 -9.28125 5.015625 -9.234375 4.734375 -9.140625 C 4.460938 -9.054688 4.226562 -8.914062 4.03125 -8.71875 C 3.832031 -8.53125 3.734375 -8.269531 3.734375 -7.9375 C 3.734375 -7.59375 3.878906 -7.273438 4.171875 -6.984375 C 4.472656 -6.691406 4.859375 -6.414062 5.328125 -6.15625 C 5.804688 -5.894531 6.304688 -5.640625 6.828125 -5.390625 C 7.359375 -5.140625 7.851562 -4.875 8.3125 -4.59375 C 8.78125 -4.3125 9.160156 -4.003906 9.453125 -3.671875 C 9.753906 -3.347656 9.90625 -2.976562 9.90625 -2.5625 C 9.90625 -2.019531 9.671875 -1.539062 9.203125 -1.125 C 8.742188 -0.707031 8.160156 -0.375 7.453125 -0.125 C 6.742188 0.113281 6.007812 0.234375 5.25 0.234375 Z M 5.25 0.234375 "/></g></g></g></g></g></svg>