<svg xmlns="http://www.w3.org/2000/svg" xmlns:xlink="http://www.w3.org/1999/xlink" width="300" zoomAndPan="magnify" viewBox="0 0 224.87999 48" height="64" preserveAspectRatio="xMidYMid meet" version="1.0"><defs><g/><clipPath id="12514cac48"><path d="M 6 5 L 49 5 L 49 38 L 6 38 Z M 6 5 " clip-rule="nonzero"/></clipPath><clipPath id="23f99d7f80"><path d="M 32.199219 -8.71875 L 56.5 12.808594 L 21.613281 52.1875 L -2.683594 30.660156 Z M 32.199219 -8.71875 " clip-rule="nonzero"/></clipPath><clipPath id="80d1511e86"><path d="M 32.199219 -8.71875 L 56.5 12.808594 L 21.613281 52.1875 L -2.683594 30.660156 Z M 32.199219 -8.71875 " clip-rule="nonzero"/></clipPath><clipPath id="57001db4a7"><path d="M 10 5 L 44 5 L 44 38 L 10 38 Z M 10 5 " clip-rule="nonzero"/></clipPath><clipPath id="98a854c6da"><path d="M 27.167969 -4.796875 L 50.871094 10.074219 L 27.074219 48 L 3.371094 33.128906 Z M 27.167969 -4.796875 " clip-rule="nonzero"/></clipPath><clipPath id="68b5ee7465"><path d="M 27.167969 -4.796875 L 50.871094 10.074219 L 27.074219 48 L 3.371094 33.128906 Z M 27.167969 -4.796875 " clip-rule="nonzero"/></clipPath><clipPath id="801661a76e"><path d="M 45 6 L 99.753906 6 L 99.753906 38 L 45 38 Z M 45 6 " clip-rule="nonzero"/></clipPath><clipPath id="d0f7f9872d"><rect x="0" width="55" y="0" height="32"/></clipPath><clipPath id="cca05fdff5"><rect x="0" width="100" y="0" height="45"/></clipPath></defs><g transform="matrix(1, 0, 0, 1, 60, 0.000000000000005041)"><g clip-path="url(#cca05fdff5)"><g clip-path="url(#12514cac48)"><g clip-path="url(#23f99d7f80)"><g clip-path="url(#80d1511e86)"><path fill="#38b6ff" d="M 47.230469 8.183594 C 47.429688 8.476562 47.597656 8.792969 47.730469 9.128906 C 47.867188 9.464844 47.96875 9.820312 48.035156 10.195312 C 48.105469 10.570312 48.140625 10.964844 48.140625 11.375 C 48.140625 11.785156 48.109375 12.207031 48.042969 12.648438 C 47.980469 13.089844 47.878906 13.546875 47.75 14.015625 C 47.617188 14.480469 47.453125 14.960938 47.253906 15.453125 C 47.058594 15.941406 46.832031 16.441406 46.570312 16.949219 C 46.308594 17.457031 46.019531 17.972656 45.699219 18.496094 C 45.378906 19.015625 45.03125 19.539062 44.652344 20.070312 C 44.273438 20.597656 43.867188 21.128906 43.4375 21.660156 C 43.003906 22.191406 42.546875 22.722656 42.066406 23.25 C 41.582031 23.78125 41.078125 24.304688 40.554688 24.828125 C 40.027344 25.347656 39.480469 25.863281 38.914062 26.371094 C 38.34375 26.882812 37.761719 27.382812 37.160156 27.875 C 36.558594 28.367188 35.941406 28.847656 35.3125 29.316406 C 34.683594 29.785156 34.042969 30.242188 33.386719 30.683594 C 32.734375 31.125 32.074219 31.554688 31.40625 31.964844 C 30.734375 32.378906 30.0625 32.769531 29.382812 33.148438 C 28.703125 33.523438 28.023438 33.882812 27.339844 34.222656 C 26.65625 34.558594 25.976562 34.875 25.296875 35.171875 C 24.617188 35.46875 23.941406 35.742188 23.273438 35.996094 C 22.601562 36.246094 21.941406 36.476562 21.285156 36.679688 C 20.632812 36.882812 19.992188 37.066406 19.359375 37.21875 C 18.726562 37.375 18.113281 37.507812 17.507812 37.613281 C 16.90625 37.714844 16.320312 37.796875 15.753906 37.847656 C 15.183594 37.902344 14.636719 37.929688 14.105469 37.929688 C 13.578125 37.933594 13.070312 37.910156 12.589844 37.859375 C 12.105469 37.808594 11.644531 37.730469 11.210938 37.628906 C 10.777344 37.527344 10.371094 37.398438 9.988281 37.246094 C 9.609375 37.09375 9.257812 36.914062 8.933594 36.710938 C 8.613281 36.511719 8.320312 36.285156 8.054688 36.035156 C 7.792969 35.785156 7.5625 35.515625 7.363281 35.21875 C 7.164062 34.925781 6.996094 34.609375 6.863281 34.273438 C 6.726562 33.9375 6.625 33.582031 6.558594 33.207031 C 6.488281 32.832031 6.453125 32.441406 6.453125 32.03125 C 6.453125 31.621094 6.484375 31.195312 6.550781 30.753906 C 6.617188 30.3125 6.714844 29.859375 6.847656 29.390625 C 6.976562 28.921875 7.140625 28.441406 7.339844 27.953125 C 7.535156 27.460938 7.765625 26.960938 8.023438 26.453125 C 8.285156 25.945312 8.574219 25.429688 8.894531 24.910156 C 9.214844 24.386719 9.566406 23.863281 9.941406 23.335938 C 10.320312 22.804688 10.726562 22.273438 11.15625 21.742188 C 11.589844 21.210938 12.046875 20.683594 12.527344 20.152344 C 13.011719 19.625 13.515625 19.097656 14.042969 18.578125 C 14.570312 18.054688 15.117188 17.539062 15.683594 17.03125 C 16.25 16.523438 16.832031 16.019531 17.433594 15.53125 C 18.035156 15.039062 18.652344 14.558594 19.28125 14.089844 C 19.910156 13.617188 20.554688 13.164062 21.207031 12.71875 C 21.859375 12.277344 22.519531 11.851562 23.191406 11.4375 C 23.859375 11.027344 24.53125 10.632812 25.210938 10.253906 C 25.890625 9.878906 26.574219 9.519531 27.253906 9.183594 C 27.9375 8.84375 28.617188 8.527344 29.296875 8.230469 C 29.976562 7.933594 30.652344 7.660156 31.324219 7.40625 C 31.992188 7.15625 32.652344 6.929688 33.308594 6.722656 C 33.960938 6.519531 34.605469 6.339844 35.234375 6.183594 C 35.867188 6.027344 36.484375 5.898438 37.085938 5.792969 C 37.6875 5.6875 38.273438 5.609375 38.84375 5.554688 C 39.410156 5.5 39.960938 5.472656 40.488281 5.472656 C 41.015625 5.46875 41.523438 5.496094 42.007812 5.546875 C 42.488281 5.597656 42.949219 5.671875 43.382812 5.777344 C 43.816406 5.878906 44.222656 6.003906 44.605469 6.160156 C 44.984375 6.3125 45.335938 6.488281 45.660156 6.691406 C 45.984375 6.894531 46.277344 7.121094 46.539062 7.367188 C 46.800781 7.617188 47.03125 7.890625 47.230469 8.183594 Z M 47.230469 8.183594 " fill-opacity="1" fill-rule="nonzero"/></g></g></g><g clip-path="url(#57001db4a7)"><g clip-path="url(#98a854c6da)"><g clip-path="url(#68b5ee7465)"><path fill="#ffffff" d="M 42.296875 7.421875 C 42.507812 7.644531 42.691406 7.886719 42.855469 8.152344 C 43.015625 8.417969 43.152344 8.707031 43.261719 9.015625 C 43.371094 9.324219 43.457031 9.652344 43.515625 10 C 43.574219 10.347656 43.609375 10.710938 43.613281 11.09375 C 43.621094 11.480469 43.601562 11.878906 43.554688 12.292969 C 43.511719 12.710938 43.4375 13.140625 43.339844 13.582031 C 43.242188 14.027344 43.121094 14.484375 42.96875 14.949219 C 42.820312 15.417969 42.648438 15.894531 42.449219 16.382812 C 42.25 16.871094 42.027344 17.363281 41.78125 17.867188 C 41.535156 18.367188 41.265625 18.875 40.976562 19.386719 C 40.683594 19.898438 40.371094 20.414062 40.039062 20.929688 C 39.703125 21.445312 39.351562 21.960938 38.976562 22.480469 C 38.601562 22.996094 38.210938 23.511719 37.804688 24.023438 C 37.394531 24.535156 36.96875 25.039062 36.527344 25.542969 C 36.085938 26.042969 35.632812 26.539062 35.164062 27.023438 C 34.695312 27.511719 34.214844 27.988281 33.726562 28.457031 C 33.234375 28.925781 32.734375 29.378906 32.222656 29.824219 C 31.714844 30.265625 31.199219 30.695312 30.675781 31.109375 C 30.152344 31.527344 29.625 31.925781 29.09375 32.308594 C 28.5625 32.691406 28.027344 33.058594 27.492188 33.40625 C 26.960938 33.75 26.425781 34.078125 25.894531 34.386719 C 25.359375 34.695312 24.832031 34.980469 24.304688 35.246094 C 23.78125 35.511719 23.261719 35.757812 22.746094 35.976562 C 22.234375 36.199219 21.730469 36.394531 21.234375 36.570312 C 20.734375 36.746094 20.25 36.894531 19.777344 37.019531 C 19.300781 37.144531 18.839844 37.246094 18.390625 37.320312 C 17.945312 37.398438 17.511719 37.445312 17.09375 37.472656 C 16.675781 37.496094 16.277344 37.496094 15.894531 37.472656 C 15.511719 37.445312 15.148438 37.394531 14.804688 37.320312 C 14.460938 37.242188 14.136719 37.140625 13.832031 37.015625 C 13.53125 36.890625 13.25 36.738281 12.992188 36.566406 C 12.734375 36.390625 12.5 36.191406 12.289062 35.972656 C 12.078125 35.75 11.894531 35.507812 11.730469 35.238281 C 11.570312 34.972656 11.433594 34.6875 11.324219 34.378906 C 11.214844 34.070312 11.128906 33.742188 11.070312 33.394531 C 11.011719 33.046875 10.976562 32.679688 10.972656 32.296875 C 10.964844 31.914062 10.984375 31.515625 11.03125 31.097656 C 11.074219 30.683594 11.148438 30.253906 11.246094 29.808594 C 11.34375 29.367188 11.464844 28.910156 11.617188 28.441406 C 11.765625 27.976562 11.9375 27.496094 12.136719 27.011719 C 12.335938 26.523438 12.558594 26.027344 12.804688 25.527344 C 13.050781 25.023438 13.320312 24.519531 13.609375 24.007812 C 13.902344 23.496094 14.214844 22.980469 14.546875 22.464844 C 14.882812 21.945312 15.234375 21.429688 15.609375 20.914062 C 15.984375 20.398438 16.375 19.882812 16.78125 19.371094 C 17.191406 18.859375 17.617188 18.351562 18.058594 17.851562 C 18.5 17.351562 18.953125 16.855469 19.421875 16.367188 C 19.890625 15.882812 20.371094 15.402344 20.859375 14.9375 C 21.351562 14.46875 21.851562 14.015625 22.363281 13.570312 C 22.871094 13.125 23.386719 12.695312 23.910156 12.28125 C 24.433594 11.867188 24.960938 11.46875 25.492188 11.085938 C 26.023438 10.699219 26.558594 10.335938 27.09375 9.988281 C 27.625 9.640625 28.160156 9.3125 28.691406 9.007812 C 29.226562 8.699219 29.753906 8.410156 30.28125 8.144531 C 30.804688 7.878906 31.324219 7.636719 31.839844 7.414062 C 32.351562 7.195312 32.855469 6.996094 33.351562 6.824219 C 33.851562 6.648438 34.335938 6.5 34.808594 6.375 C 35.285156 6.25 35.746094 6.148438 36.195312 6.070312 C 36.640625 5.996094 37.074219 5.945312 37.492188 5.921875 C 37.910156 5.894531 38.308594 5.894531 38.691406 5.921875 C 39.074219 5.949219 39.4375 6 39.78125 6.074219 C 40.125 6.152344 40.449219 6.25 40.753906 6.378906 C 41.054688 6.503906 41.335938 6.652344 41.59375 6.828125 C 41.851562 7.003906 42.085938 7.199219 42.296875 7.421875 Z M 42.296875 7.421875 " fill-opacity="1" fill-rule="nonzero"/></g></g></g><g clip-path="url(#801661a76e)"><g transform="matrix(1, 0, 0, 1, 45, 6)"><g clip-path="url(#d0f7f9872d)"><g fill="#000000" fill-opacity="1"><g transform="translate(6.15889, 21.508118)"><g><path d="M -4.828125 6.90625 C -4.828125 6.382812 -4.566406 6.054688 -4.046875 5.921875 C -3.898438 5.878906 -3.738281 5.859375 -3.5625 5.859375 C -3.382812 5.859375 -3.175781 5.882812 -2.9375 5.9375 C -2.695312 6 -2.460938 6.066406 -2.234375 6.140625 C -1.609375 6.328125 -1.164062 6.421875 -0.90625 6.421875 C -0.644531 6.421875 -0.410156 6.382812 -0.203125 6.3125 C 0.00390625 6.238281 0.195312 6.085938 0.375 5.859375 C 0.550781 5.628906 0.722656 5.300781 0.890625 4.875 C 1.054688 4.457031 1.234375 3.898438 1.421875 3.203125 C 1.617188 2.503906 1.828125 1.644531 2.046875 0.625 C 2.273438 -0.382812 2.539062 -1.59375 2.84375 -3 C 3.144531 -4.40625 3.484375 -6.03125 3.859375 -7.875 C 4.242188 -9.726562 4.570312 -11.289062 4.84375 -12.5625 C 5.113281 -13.84375 5.25 -14.5625 5.25 -14.71875 C 5.25 -14.875 5.203125 -15.007812 5.109375 -15.125 C 5.015625 -15.25 4.882812 -15.34375 4.71875 -15.40625 C 4.457031 -15.507812 3.988281 -15.5625 3.3125 -15.5625 C 3.257812 -15.5625 3.234375 -15.59375 3.234375 -15.65625 L 3.296875 -15.921875 C 3.304688 -15.984375 3.34375 -16.015625 3.40625 -16.015625 L 9.328125 -16.015625 C 9.367188 -16.015625 9.390625 -15.984375 9.390625 -15.921875 L 9.34375 -15.65625 C 9.320312 -15.59375 9.226562 -15.5625 9.0625 -15.5625 C 8.90625 -15.5625 8.710938 -15.546875 8.484375 -15.515625 C 8.265625 -15.484375 8.066406 -15.410156 7.890625 -15.296875 C 7.515625 -15.054688 7.257812 -14.601562 7.125 -13.9375 C 6.65625 -11.71875 6.253906 -9.8125 5.921875 -8.21875 C 5.585938 -6.632812 5.300781 -5.289062 5.0625 -4.1875 C 4.832031 -3.082031 4.640625 -2.179688 4.484375 -1.484375 C 4.335938 -0.785156 4.21875 -0.222656 4.125 0.203125 C 4.039062 0.628906 3.96875 0.960938 3.90625 1.203125 C 3.851562 1.441406 3.785156 1.726562 3.703125 2.0625 C 3.617188 2.40625 3.488281 2.8125 3.3125 3.28125 C 3.132812 3.75 2.910156 4.195312 2.640625 4.625 C 2.378906 5.050781 2.070312 5.445312 1.71875 5.8125 C 1.363281 6.1875 0.953125 6.503906 0.484375 6.765625 C -0.523438 7.347656 -1.660156 7.640625 -2.921875 7.640625 C -4.191406 7.640625 -4.828125 7.394531 -4.828125 6.90625 Z M -4.828125 6.90625 "/></g></g><g transform="translate(13.861642, 21.508118)"><g><path d="M 18.21875 -12.96875 L 18.21875 -13.109375 C 18.21875 -13.160156 18.195312 -13.1875 18.15625 -13.1875 C 18.082031 -13.1875 17.992188 -13.101562 17.890625 -12.9375 L 10.125 -0.765625 C 9.96875 -0.523438 9.8125 -0.335938 9.65625 -0.203125 C 9.507812 -0.0664062 9.359375 0 9.203125 0 C 9.046875 0 8.941406 -0.0195312 8.890625 -0.0625 C 8.835938 -0.113281 8.796875 -0.171875 8.765625 -0.234375 C 8.734375 -0.304688 8.671875 -0.628906 8.578125 -1.203125 C 8.492188 -1.773438 8.367188 -2.582031 8.203125 -3.625 C 8.035156 -4.664062 7.863281 -5.722656 7.6875 -6.796875 C 7.519531 -7.878906 7.347656 -8.957031 7.171875 -10.03125 C 7.003906 -11.113281 6.878906 -11.921875 6.796875 -12.453125 C 6.710938 -12.992188 6.664062 -13.304688 6.65625 -13.390625 C 6.644531 -13.472656 6.628906 -13.550781 6.609375 -13.625 C 6.578125 -13.820312 6.539062 -13.921875 6.5 -13.921875 C 6.46875 -13.921875 6.429688 -13.882812 6.390625 -13.8125 C 6.359375 -13.75 6.332031 -13.675781 6.3125 -13.59375 C 6.25 -13.394531 6.128906 -12.972656 5.953125 -12.328125 C 5.785156 -11.679688 5.53125 -10.707031 5.1875 -9.40625 C 4.84375 -8.113281 4.566406 -7.070312 4.359375 -6.28125 C 4.148438 -5.488281 4 -4.9375 3.90625 -4.625 C 3.8125 -4.320312 3.738281 -4.035156 3.6875 -3.765625 C 3.5625 -3.253906 3.5 -2.820312 3.5 -2.46875 C 3.5 -1.65625 3.726562 -1.050781 4.1875 -0.65625 C 4.351562 -0.519531 4.570312 -0.453125 4.84375 -0.453125 C 5.125 -0.453125 5.265625 -0.398438 5.265625 -0.296875 L 5.265625 -0.140625 C 5.265625 -0.046875 5.113281 0 4.8125 0 L 0.4375 0 C 0.300781 0 0.234375 -0.078125 0.234375 -0.234375 C 0.234375 -0.335938 0.253906 -0.398438 0.296875 -0.421875 C 0.347656 -0.441406 0.460938 -0.488281 0.640625 -0.5625 C 1.035156 -0.707031 1.476562 -1.050781 1.96875 -1.59375 C 2.28125 -1.9375 2.523438 -2.519531 2.703125 -3.34375 C 2.773438 -3.613281 2.929688 -4.191406 3.171875 -5.078125 C 3.410156 -5.972656 3.597656 -6.671875 3.734375 -7.171875 C 4.046875 -8.316406 4.289062 -9.234375 4.46875 -9.921875 C 4.863281 -11.429688 5.109375 -12.347656 5.203125 -12.671875 C 5.296875 -12.992188 5.363281 -13.238281 5.40625 -13.40625 C 5.507812 -13.832031 5.5625 -14.144531 5.5625 -14.34375 C 5.5625 -14.539062 5.519531 -14.71875 5.4375 -14.875 C 5.363281 -15.03125 5.265625 -15.160156 5.140625 -15.265625 C 4.890625 -15.460938 4.582031 -15.5625 4.21875 -15.5625 L 3.75 -15.5625 C 3.625 -15.5625 3.546875 -15.582031 3.515625 -15.625 C 3.492188 -15.675781 3.484375 -15.734375 3.484375 -15.796875 C 3.484375 -15.929688 3.570312 -16.007812 3.75 -16.03125 L 8 -16.03125 C 8.238281 -16.03125 8.382812 -15.84375 8.4375 -15.46875 C 8.46875 -15.207031 8.53125 -14.789062 8.625 -14.21875 C 8.726562 -13.65625 8.859375 -12.878906 9.015625 -11.890625 C 9.171875 -10.898438 9.328125 -9.910156 9.484375 -8.921875 C 9.640625 -7.929688 9.789062 -6.957031 9.9375 -6 C 10.082031 -5.039062 10.191406 -4.328125 10.265625 -3.859375 C 10.347656 -3.390625 10.398438 -3.128906 10.421875 -3.078125 C 10.441406 -3.035156 10.46875 -3.015625 10.5 -3.015625 C 10.5625 -3.015625 10.617188 -3.054688 10.671875 -3.140625 C 11.265625 -4.085938 11.898438 -5.085938 12.578125 -6.140625 C 13.253906 -7.191406 13.9375 -8.257812 14.625 -9.34375 C 16.132812 -11.695312 17.191406 -13.351562 17.796875 -14.3125 C 18.410156 -15.28125 18.757812 -15.804688 18.84375 -15.890625 C 18.925781 -15.972656 19.046875 -16.015625 19.203125 -16.015625 L 22.796875 -16.015625 C 22.929688 -16.015625 23.007812 -16 23.03125 -15.96875 C 23.0625 -15.9375 23.078125 -15.878906 23.078125 -15.796875 C 23.078125 -15.628906 22.835938 -15.546875 22.359375 -15.546875 C 21.890625 -15.546875 21.53125 -15.40625 21.28125 -15.125 C 21.007812 -14.84375 20.773438 -14.207031 20.578125 -13.21875 C 20.523438 -12.96875 20.472656 -12.71875 20.421875 -12.46875 C 20.285156 -11.851562 20.21875 -11.535156 20.21875 -11.515625 L 18.265625 -2.28125 C 18.242188 -2.164062 18.234375 -2.035156 18.234375 -1.890625 C 18.234375 -1.742188 18.265625 -1.582031 18.328125 -1.40625 C 18.390625 -1.226562 18.472656 -1.070312 18.578125 -0.9375 C 18.816406 -0.644531 19.113281 -0.484375 19.46875 -0.453125 L 20 -0.453125 C 20.21875 -0.453125 20.328125 -0.382812 20.328125 -0.25 C 20.328125 -0.125 20.285156 -0.0507812 20.203125 -0.03125 C 20.117188 -0.0078125 20.007812 0 19.875 0 L 13.75 0 C 13.59375 0 13.515625 -0.0507812 13.515625 -0.15625 L 13.53125 -0.265625 C 13.53125 -0.390625 13.640625 -0.453125 13.859375 -0.453125 C 14.078125 -0.453125 14.296875 -0.503906 14.515625 -0.609375 C 14.742188 -0.710938 14.957031 -0.851562 15.15625 -1.03125 C 15.582031 -1.414062 15.859375 -1.90625 15.984375 -2.5 C 16.109375 -3.09375 16.25 -3.75 16.40625 -4.46875 C 16.5625 -5.1875 16.722656 -5.9375 16.890625 -6.71875 C 17.316406 -8.695312 17.6875 -10.40625 18 -11.84375 L 18.203125 -12.84375 C 18.210938 -12.894531 18.21875 -12.9375 18.21875 -12.96875 Z M 18.21875 -12.96875 "/></g></g><g transform="translate(35.24303, 21.508118)"><g><path d="M 14.75 -0.234375 L 13.8125 -0.359375 C 13.300781 -0.359375 12.765625 -0.273438 12.203125 -0.109375 C 11.140625 0.191406 10.335938 0.34375 9.796875 0.34375 C 9.265625 0.34375 8.664062 0.296875 8 0.203125 C 7.34375 0.109375 6.691406 -0.046875 6.046875 -0.265625 C 5.398438 -0.492188 4.785156 -0.796875 4.203125 -1.171875 C 3.628906 -1.546875 3.125 -2.007812 2.6875 -2.5625 C 1.726562 -3.757812 1.25 -5.285156 1.25 -7.140625 C 1.25 -8.921875 1.804688 -10.5625 2.921875 -12.0625 C 3.929688 -13.425781 5.285156 -14.507812 6.984375 -15.3125 C 8.628906 -16.101562 10.316406 -16.5 12.046875 -16.5 C 13.003906 -16.5 13.910156 -16.414062 14.765625 -16.25 C 15.617188 -16.09375 16.238281 -15.953125 16.625 -15.828125 C 17.507812 -15.523438 17.953125 -15.164062 17.953125 -14.75 C 17.953125 -14.195312 17.835938 -13.5625 17.609375 -12.84375 C 17.378906 -12.132812 17.226562 -11.695312 17.15625 -11.53125 C 17.082031 -11.363281 17.003906 -11.28125 16.921875 -11.28125 C 16.765625 -11.28125 16.675781 -11.34375 16.65625 -11.46875 C 16.632812 -11.851562 16.609375 -12.238281 16.578125 -12.625 C 16.554688 -13.007812 16.460938 -13.363281 16.296875 -13.6875 C 16.128906 -14.007812 15.90625 -14.296875 15.625 -14.546875 C 15.351562 -14.804688 15.050781 -15.03125 14.71875 -15.21875 C 14.007812 -15.601562 13.273438 -15.796875 12.515625 -15.796875 C 11.765625 -15.796875 11.003906 -15.6875 10.234375 -15.46875 C 9.472656 -15.25 8.75 -14.941406 8.0625 -14.546875 C 7.382812 -14.160156 6.757812 -13.691406 6.1875 -13.140625 C 5.613281 -12.597656 5.117188 -12 4.703125 -11.34375 C 3.804688 -9.925781 3.359375 -8.4375 3.359375 -6.875 C 3.359375 -5.019531 3.921875 -3.476562 5.046875 -2.25 C 6.210938 -0.988281 7.726562 -0.359375 9.59375 -0.359375 C 10.800781 -0.359375 11.941406 -0.753906 13.015625 -1.546875 C 13.953125 -2.242188 14.601562 -3.054688 14.96875 -3.984375 C 15.019531 -4.128906 15.078125 -4.25 15.140625 -4.34375 C 15.203125 -4.4375 15.296875 -4.484375 15.421875 -4.484375 C 15.691406 -4.484375 15.828125 -4.421875 15.828125 -4.296875 C 15.816406 -4.273438 15.804688 -4.25 15.796875 -4.21875 C 15.796875 -4.1875 15.785156 -4.125 15.765625 -4.03125 C 15.753906 -3.9375 15.734375 -3.804688 15.703125 -3.640625 C 15.671875 -3.472656 15.625 -3.242188 15.5625 -2.953125 C 15.5 -2.660156 15.414062 -2.300781 15.3125 -1.875 C 15.21875 -1.445312 15.132812 -1.070312 15.0625 -0.75 C 15 -0.425781 14.945312 -0.257812 14.90625 -0.25 C 14.863281 -0.238281 14.8125 -0.234375 14.75 -0.234375 Z M 14.75 -0.234375 "/></g></g></g></g></g></g></g></g></svg>