<svg xmlns="http://www.w3.org/2000/svg" xmlns:xlink="http://www.w3.org/1999/xlink" width="398" zoomAndPan="magnify" viewBox="0 0 298.5 95.999999" height="128" preserveAspectRatio="xMidYMid meet" version="1.0"><defs><g/><clipPath id="39ea198e48"><path d="M 31 38 L 153.335938 38 L 153.335938 67 L 31 67 Z M 31 38 " clip-rule="nonzero"/></clipPath><clipPath id="cab0dbbc5d"><path d="M 0.382812 5 L 115 5 L 115 20 L 0.382812 20 Z M 0.382812 5 " clip-rule="nonzero"/></clipPath><clipPath id="63283a0dec"><rect x="0" width="123" y="0" height="29"/></clipPath><clipPath id="e4d60b86e1"><path d="M 72 64 L 149 64 L 149 82.417969 L 72 82.417969 Z M 72 64 " clip-rule="nonzero"/></clipPath><clipPath id="183a323a1a"><rect x="0" width="77" y="0" height="19"/></clipPath><clipPath id="c06e4b73b6"><path d="M 0.402344 14 L 52 14 L 52 77 L 0.402344 77 Z M 0.402344 14 " clip-rule="nonzero"/></clipPath><clipPath id="68eb67b58b"><path d="M 5 39 L 67 39 L 67 80.058594 L 5 80.058594 Z M 5 39 " clip-rule="nonzero"/></clipPath><clipPath id="515f45f0f2"><rect x="0" width="154" y="0" height="83"/></clipPath></defs><g transform="matrix(1, 0, 0, 1, 75, 2)"><g clip-path="url(#515f45f0f2)"><g clip-path="url(#39ea198e48)"><g transform="matrix(1, 0, 0, 1, 31, 38)"><g clip-path="url(#63283a0dec)"><g clip-path="url(#cab0dbbc5d)"><g fill="#000000" fill-opacity="1"><g transform="translate(0.456588, 19.533244)"><g><path d="M 0.265625 -0.515625 C 0.265625 -0.535156 0.269531 -0.554688 0.28125 -0.578125 C 0.289062 -0.597656 0.3125 -0.609375 0.34375 -0.609375 C 0.78125 -0.609375 1.117188 -0.65625 1.359375 -0.75 C 1.609375 -0.851562 1.789062 -1 1.90625 -1.1875 C 2.03125 -1.375 2.101562 -1.59375 2.125 -1.84375 C 2.15625 -2.101562 2.175781 -2.378906 2.1875 -2.671875 C 2.226562 -3.535156 2.273438 -4.375 2.328125 -5.1875 C 2.390625 -6 2.445312 -6.796875 2.5 -7.578125 C 2.550781 -8.367188 2.597656 -9.148438 2.640625 -9.921875 C 2.679688 -10.691406 2.703125 -11.460938 2.703125 -12.234375 L 2.703125 -12.609375 C 2.703125 -12.765625 2.648438 -12.898438 2.546875 -13.015625 C 2.453125 -13.128906 2.332031 -13.226562 2.1875 -13.3125 C 2.050781 -13.394531 1.910156 -13.453125 1.765625 -13.484375 C 1.628906 -13.523438 1.523438 -13.546875 1.453125 -13.546875 C 1.390625 -13.546875 1.359375 -13.578125 1.359375 -13.640625 L 1.359375 -14.078125 C 1.359375 -14.085938 1.363281 -14.101562 1.375 -14.125 C 1.382812 -14.144531 1.410156 -14.15625 1.453125 -14.15625 L 5 -14.15625 C 5.070312 -14.144531 5.128906 -14.117188 5.171875 -14.078125 C 5.222656 -14.046875 5.269531 -14 5.3125 -13.9375 L 9.671875 -4.203125 C 9.722656 -4.085938 9.785156 -4.03125 9.859375 -4.03125 C 9.929688 -4.03125 9.984375 -4.046875 10.015625 -4.078125 C 10.054688 -4.109375 10.082031 -4.148438 10.09375 -4.203125 L 14.421875 -13.75 C 14.484375 -13.882812 14.546875 -13.984375 14.609375 -14.046875 C 14.679688 -14.117188 14.75 -14.15625 14.8125 -14.15625 L 18.359375 -14.15625 C 18.390625 -14.15625 18.410156 -14.144531 18.421875 -14.125 C 18.429688 -14.101562 18.4375 -14.085938 18.4375 -14.078125 L 18.4375 -13.640625 C 18.4375 -13.617188 18.429688 -13.597656 18.421875 -13.578125 C 18.410156 -13.554688 18.390625 -13.546875 18.359375 -13.546875 C 18.335938 -13.546875 18.253906 -13.53125 18.109375 -13.5 C 17.972656 -13.476562 17.816406 -13.429688 17.640625 -13.359375 C 17.472656 -13.285156 17.316406 -13.175781 17.171875 -13.03125 C 17.035156 -12.882812 16.96875 -12.691406 16.96875 -12.453125 L 17.546875 -1.765625 C 17.554688 -1.566406 17.609375 -1.398438 17.703125 -1.265625 C 17.804688 -1.140625 17.925781 -1.03125 18.0625 -0.9375 C 18.195312 -0.851562 18.34375 -0.789062 18.5 -0.75 C 18.664062 -0.707031 18.816406 -0.671875 18.953125 -0.640625 C 19.085938 -0.617188 19.203125 -0.609375 19.296875 -0.609375 C 19.398438 -0.609375 19.453125 -0.609375 19.453125 -0.609375 C 19.492188 -0.609375 19.515625 -0.597656 19.515625 -0.578125 C 19.523438 -0.554688 19.53125 -0.535156 19.53125 -0.515625 L 19.53125 -0.078125 C 19.53125 -0.0664062 19.523438 -0.0507812 19.515625 -0.03125 C 19.515625 -0.0078125 19.492188 0 19.453125 0 L 12.859375 0 C 12.796875 0 12.765625 -0.0234375 12.765625 -0.078125 L 12.765625 -0.515625 C 12.765625 -0.578125 12.796875 -0.609375 12.859375 -0.609375 C 13.015625 -0.609375 13.191406 -0.613281 13.390625 -0.625 C 13.597656 -0.644531 13.796875 -0.679688 13.984375 -0.734375 C 14.171875 -0.796875 14.328125 -0.882812 14.453125 -1 C 14.585938 -1.125 14.65625 -1.28125 14.65625 -1.46875 L 14.1875 -9.671875 C 14.175781 -9.742188 14.160156 -9.78125 14.140625 -9.78125 C 14.109375 -9.78125 14.082031 -9.75 14.0625 -9.6875 L 9.65625 -0.171875 C 9.625 -0.0976562 9.578125 -0.0507812 9.515625 -0.03125 C 9.460938 -0.0078125 9.367188 0 9.234375 0 C 8.984375 0 8.800781 -0.00390625 8.6875 -0.015625 C 8.570312 -0.0351562 8.492188 -0.09375 8.453125 -0.1875 L 4.171875 -9.609375 C 4.148438 -9.648438 4.132812 -9.679688 4.125 -9.703125 C 4.113281 -9.734375 4.097656 -9.75 4.078125 -9.75 C 4.023438 -9.75 4 -9.707031 4 -9.625 C 4 -9.414062 3.988281 -9.117188 3.96875 -8.734375 C 3.957031 -8.347656 3.929688 -7.910156 3.890625 -7.421875 C 3.859375 -6.941406 3.828125 -6.429688 3.796875 -5.890625 C 3.765625 -5.347656 3.726562 -4.820312 3.6875 -4.3125 C 3.65625 -3.800781 3.628906 -3.328125 3.609375 -2.890625 C 3.585938 -2.453125 3.578125 -2.09375 3.578125 -1.8125 L 3.578125 -1.390625 C 3.609375 -1.265625 3.675781 -1.148438 3.78125 -1.046875 C 3.894531 -0.953125 4.03125 -0.867188 4.1875 -0.796875 C 4.34375 -0.734375 4.519531 -0.6875 4.71875 -0.65625 C 4.914062 -0.625 5.117188 -0.609375 5.328125 -0.609375 C 5.359375 -0.609375 5.375 -0.597656 5.375 -0.578125 C 5.382812 -0.554688 5.390625 -0.535156 5.390625 -0.515625 L 5.390625 -0.078125 C 5.390625 -0.0234375 5.367188 0 5.328125 0 L 0.34375 0 C 0.289062 0 0.265625 -0.0234375 0.265625 -0.078125 Z M 0.265625 -0.515625 "/></g></g><g transform="translate(20.420529, 19.533244)"><g><path d="M 2.125 -12.40625 C 2.125 -12.59375 2.078125 -12.757812 1.984375 -12.90625 C 1.890625 -13.0625 1.765625 -13.1875 1.609375 -13.28125 C 1.460938 -13.382812 1.285156 -13.460938 1.078125 -13.515625 C 0.878906 -13.578125 0.664062 -13.609375 0.4375 -13.609375 C 0.382812 -13.609375 0.359375 -13.632812 0.359375 -13.6875 L 0.359375 -14.078125 C 0.359375 -14.128906 0.382812 -14.15625 0.4375 -14.15625 L 6.78125 -14.15625 C 6.8125 -14.15625 6.832031 -14.144531 6.84375 -14.125 C 6.851562 -14.101562 6.859375 -14.085938 6.859375 -14.078125 L 6.859375 -13.6875 C 6.859375 -13.675781 6.851562 -13.660156 6.84375 -13.640625 C 6.832031 -13.617188 6.8125 -13.609375 6.78125 -13.609375 C 6.570312 -13.609375 6.363281 -13.59375 6.15625 -13.5625 C 5.945312 -13.539062 5.753906 -13.484375 5.578125 -13.390625 C 5.398438 -13.296875 5.253906 -13.160156 5.140625 -12.984375 C 5.035156 -12.804688 4.984375 -12.566406 4.984375 -12.265625 L 4.984375 -5.21875 C 4.984375 -3.882812 5.320312 -2.847656 6 -2.109375 C 6.6875 -1.378906 7.707031 -1.015625 9.0625 -1.015625 C 9.625 -1.015625 10.160156 -1.09375 10.671875 -1.25 C 11.191406 -1.40625 11.648438 -1.644531 12.046875 -1.96875 C 12.441406 -2.300781 12.753906 -2.722656 12.984375 -3.234375 C 13.222656 -3.742188 13.34375 -4.347656 13.34375 -5.046875 L 13.34375 -11.28125 C 13.34375 -11.507812 13.332031 -11.742188 13.3125 -11.984375 C 13.300781 -12.222656 13.25 -12.445312 13.15625 -12.65625 C 13.0625 -12.875 12.910156 -13.0625 12.703125 -13.21875 C 12.503906 -13.382812 12.222656 -13.492188 11.859375 -13.546875 C 11.691406 -13.578125 11.550781 -13.59375 11.4375 -13.59375 C 11.332031 -13.601562 11.257812 -13.609375 11.21875 -13.609375 C 11.164062 -13.609375 11.140625 -13.632812 11.140625 -13.6875 L 11.140625 -14.078125 C 11.140625 -14.128906 11.164062 -14.15625 11.21875 -14.15625 L 16.46875 -14.15625 C 16.5 -14.15625 16.519531 -14.144531 16.53125 -14.125 C 16.539062 -14.101562 16.546875 -14.085938 16.546875 -14.078125 L 16.546875 -13.6875 C 16.546875 -13.675781 16.535156 -13.660156 16.515625 -13.640625 C 16.503906 -13.617188 16.488281 -13.609375 16.46875 -13.609375 C 16.226562 -13.609375 16.015625 -13.585938 15.828125 -13.546875 C 15.640625 -13.515625 15.5 -13.476562 15.40625 -13.4375 C 15.289062 -13.382812 15.1875 -13.3125 15.09375 -13.21875 C 15 -13.125 14.921875 -13.019531 14.859375 -12.90625 C 14.796875 -12.789062 14.75 -12.675781 14.71875 -12.5625 C 14.6875 -12.445312 14.671875 -12.347656 14.671875 -12.265625 L 14.671875 -5.828125 C 14.671875 -4.890625 14.546875 -4.039062 14.296875 -3.28125 C 14.046875 -2.53125 13.671875 -1.890625 13.171875 -1.359375 C 12.679688 -0.835938 12.054688 -0.4375 11.296875 -0.15625 C 10.535156 0.125 9.648438 0.265625 8.640625 0.265625 C 8.160156 0.265625 7.664062 0.226562 7.15625 0.15625 C 6.644531 0.0820312 6.144531 -0.03125 5.65625 -0.1875 C 5.175781 -0.351562 4.71875 -0.5625 4.28125 -0.8125 C 3.851562 -1.0625 3.476562 -1.363281 3.15625 -1.71875 C 2.84375 -2.082031 2.59375 -2.492188 2.40625 -2.953125 C 2.21875 -3.410156 2.125 -3.929688 2.125 -4.515625 Z M 2.125 -12.40625 "/></g></g><g transform="translate(37.211126, 19.533244)"><g><path d="M 0.265625 -0.515625 C 0.265625 -0.535156 0.269531 -0.554688 0.28125 -0.578125 C 0.289062 -0.597656 0.3125 -0.609375 0.34375 -0.609375 C 0.78125 -0.609375 1.117188 -0.65625 1.359375 -0.75 C 1.609375 -0.851562 1.789062 -1 1.90625 -1.1875 C 2.03125 -1.375 2.101562 -1.59375 2.125 -1.84375 C 2.15625 -2.101562 2.175781 -2.378906 2.1875 -2.671875 C 2.226562 -3.535156 2.273438 -4.375 2.328125 -5.1875 C 2.390625 -6 2.445312 -6.796875 2.5 -7.578125 C 2.550781 -8.367188 2.597656 -9.148438 2.640625 -9.921875 C 2.679688 -10.691406 2.703125 -11.460938 2.703125 -12.234375 L 2.703125 -12.609375 C 2.703125 -12.765625 2.648438 -12.898438 2.546875 -13.015625 C 2.453125 -13.128906 2.332031 -13.226562 2.1875 -13.3125 C 2.050781 -13.394531 1.910156 -13.453125 1.765625 -13.484375 C 1.628906 -13.523438 1.523438 -13.546875 1.453125 -13.546875 C 1.390625 -13.546875 1.359375 -13.578125 1.359375 -13.640625 L 1.359375 -14.078125 C 1.359375 -14.085938 1.363281 -14.101562 1.375 -14.125 C 1.382812 -14.144531 1.410156 -14.15625 1.453125 -14.15625 L 5 -14.15625 C 5.070312 -14.144531 5.128906 -14.117188 5.171875 -14.078125 C 5.222656 -14.046875 5.269531 -14 5.3125 -13.9375 L 9.671875 -4.203125 C 9.722656 -4.085938 9.785156 -4.03125 9.859375 -4.03125 C 9.929688 -4.03125 9.984375 -4.046875 10.015625 -4.078125 C 10.054688 -4.109375 10.082031 -4.148438 10.09375 -4.203125 L 14.421875 -13.75 C 14.484375 -13.882812 14.546875 -13.984375 14.609375 -14.046875 C 14.679688 -14.117188 14.75 -14.15625 14.8125 -14.15625 L 18.359375 -14.15625 C 18.390625 -14.15625 18.410156 -14.144531 18.421875 -14.125 C 18.429688 -14.101562 18.4375 -14.085938 18.4375 -14.078125 L 18.4375 -13.640625 C 18.4375 -13.617188 18.429688 -13.597656 18.421875 -13.578125 C 18.410156 -13.554688 18.390625 -13.546875 18.359375 -13.546875 C 18.335938 -13.546875 18.253906 -13.53125 18.109375 -13.5 C 17.972656 -13.476562 17.816406 -13.429688 17.640625 -13.359375 C 17.472656 -13.285156 17.316406 -13.175781 17.171875 -13.03125 C 17.035156 -12.882812 16.96875 -12.691406 16.96875 -12.453125 L 17.546875 -1.765625 C 17.554688 -1.566406 17.609375 -1.398438 17.703125 -1.265625 C 17.804688 -1.140625 17.925781 -1.03125 18.0625 -0.9375 C 18.195312 -0.851562 18.34375 -0.789062 18.5 -0.75 C 18.664062 -0.707031 18.816406 -0.671875 18.953125 -0.640625 C 19.085938 -0.617188 19.203125 -0.609375 19.296875 -0.609375 C 19.398438 -0.609375 19.453125 -0.609375 19.453125 -0.609375 C 19.492188 -0.609375 19.515625 -0.597656 19.515625 -0.578125 C 19.523438 -0.554688 19.53125 -0.535156 19.53125 -0.515625 L 19.53125 -0.078125 C 19.53125 -0.0664062 19.523438 -0.0507812 19.515625 -0.03125 C 19.515625 -0.0078125 19.492188 0 19.453125 0 L 12.859375 0 C 12.796875 0 12.765625 -0.0234375 12.765625 -0.078125 L 12.765625 -0.515625 C 12.765625 -0.578125 12.796875 -0.609375 12.859375 -0.609375 C 13.015625 -0.609375 13.191406 -0.613281 13.390625 -0.625 C 13.597656 -0.644531 13.796875 -0.679688 13.984375 -0.734375 C 14.171875 -0.796875 14.328125 -0.882812 14.453125 -1 C 14.585938 -1.125 14.65625 -1.28125 14.65625 -1.46875 L 14.1875 -9.671875 C 14.175781 -9.742188 14.160156 -9.78125 14.140625 -9.78125 C 14.109375 -9.78125 14.082031 -9.75 14.0625 -9.6875 L 9.65625 -0.171875 C 9.625 -0.0976562 9.578125 -0.0507812 9.515625 -0.03125 C 9.460938 -0.0078125 9.367188 0 9.234375 0 C 8.984375 0 8.800781 -0.00390625 8.6875 -0.015625 C 8.570312 -0.0351562 8.492188 -0.09375 8.453125 -0.1875 L 4.171875 -9.609375 C 4.148438 -9.648438 4.132812 -9.679688 4.125 -9.703125 C 4.113281 -9.734375 4.097656 -9.75 4.078125 -9.75 C 4.023438 -9.75 4 -9.707031 4 -9.625 C 4 -9.414062 3.988281 -9.117188 3.96875 -8.734375 C 3.957031 -8.347656 3.929688 -7.910156 3.890625 -7.421875 C 3.859375 -6.941406 3.828125 -6.429688 3.796875 -5.890625 C 3.765625 -5.347656 3.726562 -4.820312 3.6875 -4.3125 C 3.65625 -3.800781 3.628906 -3.328125 3.609375 -2.890625 C 3.585938 -2.453125 3.578125 -2.09375 3.578125 -1.8125 L 3.578125 -1.390625 C 3.609375 -1.265625 3.675781 -1.148438 3.78125 -1.046875 C 3.894531 -0.953125 4.03125 -0.867188 4.1875 -0.796875 C 4.34375 -0.734375 4.519531 -0.6875 4.71875 -0.65625 C 4.914062 -0.625 5.117188 -0.609375 5.328125 -0.609375 C 5.359375 -0.609375 5.375 -0.597656 5.375 -0.578125 C 5.382812 -0.554688 5.390625 -0.535156 5.390625 -0.515625 L 5.390625 -0.078125 C 5.390625 -0.0234375 5.367188 0 5.328125 0 L 0.34375 0 C 0.289062 0 0.265625 -0.0234375 0.265625 -0.078125 Z M 0.265625 -0.515625 "/></g></g><g transform="translate(57.175066, 19.533244)"><g><path d="M 0.046875 -0.46875 C 0.046875 -0.519531 0.0703125 -0.546875 0.125 -0.546875 C 0.257812 -0.554688 0.410156 -0.578125 0.578125 -0.609375 C 0.742188 -0.640625 0.914062 -0.703125 1.09375 -0.796875 C 1.269531 -0.890625 1.441406 -1.03125 1.609375 -1.21875 C 1.785156 -1.414062 1.925781 -1.679688 2.03125 -2.015625 L 6.078125 -13.71875 C 6.078125 -13.71875 6.078125 -13.722656 6.078125 -13.734375 C 6.078125 -13.742188 6.078125 -13.757812 6.078125 -13.78125 C 6.078125 -13.820312 6.054688 -13.878906 6.015625 -13.953125 C 5.984375 -14.023438 5.96875 -14.078125 5.96875 -14.109375 C 5.96875 -14.140625 5.984375 -14.15625 6.015625 -14.15625 L 8.921875 -14.15625 C 8.941406 -14.144531 8.960938 -14.132812 8.984375 -14.125 C 9.003906 -14.125 9.019531 -14.109375 9.03125 -14.078125 L 13.28125 -2.15625 C 13.351562 -1.96875 13.414062 -1.804688 13.46875 -1.671875 C 13.53125 -1.535156 13.601562 -1.414062 13.6875 -1.3125 C 13.769531 -1.21875 13.875 -1.125 14 -1.03125 C 14.132812 -0.945312 14.300781 -0.863281 14.5 -0.78125 C 14.59375 -0.738281 14.71875 -0.6875 14.875 -0.625 C 15.039062 -0.570312 15.195312 -0.546875 15.34375 -0.546875 C 15.375 -0.546875 15.394531 -0.535156 15.40625 -0.515625 C 15.414062 -0.492188 15.421875 -0.476562 15.421875 -0.46875 L 15.421875 -0.078125 C 15.421875 -0.0664062 15.414062 -0.0507812 15.40625 -0.03125 C 15.394531 -0.0078125 15.375 0 15.34375 0 L 8.296875 0 C 8.265625 0 8.242188 -0.0078125 8.234375 -0.03125 C 8.222656 -0.0507812 8.21875 -0.0664062 8.21875 -0.078125 L 8.21875 -0.46875 C 8.21875 -0.476562 8.222656 -0.492188 8.234375 -0.515625 C 8.242188 -0.535156 8.265625 -0.546875 8.296875 -0.546875 C 8.316406 -0.546875 8.335938 -0.546875 8.359375 -0.546875 C 8.390625 -0.554688 8.414062 -0.5625 8.4375 -0.5625 C 8.507812 -0.570312 8.613281 -0.578125 8.75 -0.578125 C 8.882812 -0.585938 9.03125 -0.597656 9.1875 -0.609375 C 9.351562 -0.628906 9.519531 -0.65625 9.6875 -0.6875 C 9.851562 -0.726562 10 -0.785156 10.125 -0.859375 C 10.257812 -0.929688 10.367188 -1.023438 10.453125 -1.140625 C 10.546875 -1.253906 10.59375 -1.394531 10.59375 -1.5625 C 10.59375 -1.59375 10.585938 -1.640625 10.578125 -1.703125 L 9.25 -5.328125 C 9.25 -5.335938 9.238281 -5.363281 9.21875 -5.40625 C 9.207031 -5.457031 9.179688 -5.503906 9.140625 -5.546875 C 9.109375 -5.597656 9.0625 -5.644531 9 -5.6875 C 8.945312 -5.726562 8.878906 -5.75 8.796875 -5.75 L 5.171875 -5.75 C 5.085938 -5.75 5.015625 -5.726562 4.953125 -5.6875 C 4.890625 -5.644531 4.835938 -5.597656 4.796875 -5.546875 C 4.753906 -5.503906 4.722656 -5.457031 4.703125 -5.40625 C 4.679688 -5.363281 4.671875 -5.34375 4.671875 -5.34375 C 4.453125 -4.707031 4.269531 -4.175781 4.125 -3.75 C 3.976562 -3.320312 3.851562 -2.96875 3.75 -2.6875 C 3.65625 -2.40625 3.582031 -2.1875 3.53125 -2.03125 C 3.476562 -1.875 3.441406 -1.757812 3.421875 -1.6875 C 3.398438 -1.625 3.382812 -1.582031 3.375 -1.5625 C 3.375 -1.539062 3.375 -1.53125 3.375 -1.53125 C 3.375 -1.507812 3.375 -1.488281 3.375 -1.46875 C 3.382812 -1.445312 3.394531 -1.425781 3.40625 -1.40625 C 3.457031 -1.238281 3.554688 -1.097656 3.703125 -0.984375 C 3.847656 -0.878906 4.015625 -0.789062 4.203125 -0.71875 C 4.390625 -0.65625 4.582031 -0.609375 4.78125 -0.578125 C 4.976562 -0.554688 5.148438 -0.546875 5.296875 -0.546875 L 5.5625 -0.546875 C 5.59375 -0.546875 5.613281 -0.535156 5.625 -0.515625 C 5.632812 -0.492188 5.640625 -0.476562 5.640625 -0.46875 L 5.640625 -0.078125 C 5.640625 -0.0664062 5.632812 -0.0507812 5.625 -0.03125 C 5.613281 -0.0078125 5.59375 0 5.5625 0 L 0.125 0 C 0.0703125 0 0.046875 -0.0234375 0.046875 -0.078125 Z M 5.3125 -7.203125 C 5.300781 -7.171875 5.289062 -7.132812 5.28125 -7.09375 C 5.269531 -7.0625 5.265625 -7.03125 5.265625 -7 C 5.265625 -6.957031 5.273438 -6.925781 5.296875 -6.90625 C 5.316406 -6.882812 5.359375 -6.875 5.421875 -6.875 L 8.4375 -6.875 C 8.507812 -6.875 8.554688 -6.882812 8.578125 -6.90625 C 8.597656 -6.9375 8.609375 -6.972656 8.609375 -7.015625 C 8.609375 -7.046875 8.601562 -7.078125 8.59375 -7.109375 C 8.59375 -7.140625 8.585938 -7.171875 8.578125 -7.203125 L 7.234375 -10.859375 C 7.203125 -10.953125 7.148438 -11.019531 7.078125 -11.0625 C 7.015625 -11.113281 6.957031 -11.140625 6.90625 -11.140625 C 6.851562 -11.140625 6.789062 -11.113281 6.71875 -11.0625 C 6.65625 -11.007812 6.609375 -10.941406 6.578125 -10.859375 Z M 5.3125 -7.203125 "/></g></g><g transform="translate(72.650132, 19.533244)"><g><path d="M 2.484375 -12.40625 C 2.484375 -12.625 2.421875 -12.8125 2.296875 -12.96875 C 2.179688 -13.125 2.023438 -13.25 1.828125 -13.34375 C 1.628906 -13.445312 1.410156 -13.519531 1.171875 -13.5625 C 0.941406 -13.613281 0.710938 -13.644531 0.484375 -13.65625 C 0.429688 -13.65625 0.40625 -13.679688 0.40625 -13.734375 L 0.40625 -14.078125 C 0.40625 -14.128906 0.425781 -14.15625 0.46875 -14.15625 L 7.28125 -14.15625 C 7.3125 -14.15625 7.332031 -14.144531 7.34375 -14.125 C 7.351562 -14.101562 7.359375 -14.085938 7.359375 -14.078125 L 7.359375 -13.734375 C 7.359375 -13.691406 7.332031 -13.671875 7.28125 -13.671875 C 7.082031 -13.671875 6.867188 -13.65625 6.640625 -13.625 C 6.421875 -13.59375 6.210938 -13.53125 6.015625 -13.4375 C 5.828125 -13.34375 5.664062 -13.210938 5.53125 -13.046875 C 5.40625 -12.878906 5.34375 -12.65625 5.34375 -12.375 L 5.34375 -8.25 C 5.34375 -7.96875 5.351562 -7.75 5.375 -7.59375 C 5.394531 -7.445312 5.441406 -7.375 5.515625 -7.375 C 5.554688 -7.375 5.59375 -7.375 5.625 -7.375 C 5.664062 -7.375 5.707031 -7.382812 5.75 -7.40625 C 6.125 -7.582031 6.460938 -7.789062 6.765625 -8.03125 C 7.078125 -8.28125 7.359375 -8.550781 7.609375 -8.84375 C 7.867188 -9.144531 8.109375 -9.457031 8.328125 -9.78125 C 8.554688 -10.113281 8.78125 -10.453125 9 -10.796875 C 9.125 -10.984375 9.253906 -11.164062 9.390625 -11.34375 C 9.523438 -11.53125 9.644531 -11.710938 9.75 -11.890625 C 9.863281 -12.066406 9.957031 -12.234375 10.03125 -12.390625 C 10.101562 -12.554688 10.140625 -12.71875 10.140625 -12.875 C 10.140625 -13.0625 10.09375 -13.207031 10 -13.3125 C 9.914062 -13.414062 9.804688 -13.488281 9.671875 -13.53125 C 9.546875 -13.582031 9.40625 -13.613281 9.25 -13.625 C 9.09375 -13.644531 8.945312 -13.65625 8.8125 -13.65625 L 8.71875 -13.65625 C 8.6875 -13.65625 8.664062 -13.664062 8.65625 -13.6875 C 8.644531 -13.707031 8.640625 -13.722656 8.640625 -13.734375 L 8.640625 -14.078125 C 8.640625 -14.085938 8.640625 -14.101562 8.640625 -14.125 C 8.648438 -14.144531 8.675781 -14.15625 8.71875 -14.15625 L 14.8125 -14.15625 C 14.851562 -14.15625 14.878906 -14.144531 14.890625 -14.125 C 14.898438 -14.101562 14.90625 -14.085938 14.90625 -14.078125 L 14.90625 -13.734375 C 14.90625 -13.710938 14.894531 -13.6875 14.875 -13.65625 C 14.851562 -13.625 14.820312 -13.609375 14.78125 -13.609375 C 14.375 -13.597656 14.003906 -13.566406 13.671875 -13.515625 C 13.335938 -13.460938 13.03125 -13.367188 12.75 -13.234375 C 12.476562 -13.109375 12.226562 -12.929688 12 -12.703125 C 11.769531 -12.484375 11.550781 -12.203125 11.34375 -11.859375 C 10.988281 -11.253906 10.671875 -10.738281 10.390625 -10.3125 C 10.109375 -9.882812 9.859375 -9.519531 9.640625 -9.21875 C 9.421875 -8.925781 9.234375 -8.691406 9.078125 -8.515625 C 8.929688 -8.335938 8.804688 -8.1875 8.703125 -8.0625 C 8.597656 -7.945312 8.515625 -7.847656 8.453125 -7.765625 C 8.398438 -7.691406 8.367188 -7.617188 8.359375 -7.546875 C 8.390625 -7.484375 8.460938 -7.394531 8.578125 -7.28125 C 8.703125 -7.175781 8.863281 -7.03125 9.0625 -6.84375 C 9.257812 -6.664062 9.492188 -6.441406 9.765625 -6.171875 C 10.046875 -5.898438 10.359375 -5.566406 10.703125 -5.171875 C 11.046875 -4.785156 11.425781 -4.328125 11.84375 -3.796875 C 12.269531 -3.265625 12.726562 -2.648438 13.21875 -1.953125 C 13.457031 -1.617188 13.753906 -1.347656 14.109375 -1.140625 C 14.460938 -0.929688 14.859375 -0.78125 15.296875 -0.6875 C 15.523438 -0.632812 15.707031 -0.59375 15.84375 -0.5625 C 15.976562 -0.53125 16.082031 -0.507812 16.15625 -0.5 C 16.238281 -0.488281 16.304688 -0.484375 16.359375 -0.484375 C 16.410156 -0.484375 16.46875 -0.484375 16.53125 -0.484375 C 16.5625 -0.484375 16.582031 -0.472656 16.59375 -0.453125 C 16.601562 -0.429688 16.609375 -0.414062 16.609375 -0.40625 L 16.609375 -0.078125 C 16.609375 -0.0234375 16.582031 0 16.53125 0 L 9.0625 0 C 9 0 8.96875 -0.0234375 8.96875 -0.078125 L 8.96875 -0.421875 C 8.96875 -0.460938 9 -0.488281 9.0625 -0.5 C 9.144531 -0.507812 9.265625 -0.515625 9.421875 -0.515625 C 9.578125 -0.515625 9.726562 -0.523438 9.875 -0.546875 C 10.03125 -0.566406 10.164062 -0.613281 10.28125 -0.6875 C 10.394531 -0.757812 10.453125 -0.878906 10.453125 -1.046875 C 10.441406 -1.160156 10.363281 -1.328125 10.21875 -1.546875 C 10.082031 -1.765625 9.914062 -2.003906 9.71875 -2.265625 C 9.519531 -2.535156 9.300781 -2.804688 9.0625 -3.078125 C 8.832031 -3.359375 8.625 -3.609375 8.4375 -3.828125 C 8.195312 -4.085938 7.972656 -4.351562 7.765625 -4.625 C 7.554688 -4.894531 7.335938 -5.140625 7.109375 -5.359375 C 6.890625 -5.585938 6.660156 -5.769531 6.421875 -5.90625 C 6.179688 -6.050781 5.921875 -6.125 5.640625 -6.125 L 5.453125 -6.125 C 5.398438 -6.125 5.367188 -6.109375 5.359375 -6.078125 C 5.347656 -6.054688 5.34375 -6.023438 5.34375 -5.984375 L 5.34375 -1.734375 C 5.34375 -1.429688 5.40625 -1.195312 5.53125 -1.03125 C 5.65625 -0.863281 5.8125 -0.738281 6 -0.65625 C 6.195312 -0.582031 6.410156 -0.535156 6.640625 -0.515625 C 6.867188 -0.492188 7.082031 -0.484375 7.28125 -0.484375 C 7.3125 -0.484375 7.332031 -0.472656 7.34375 -0.453125 C 7.351562 -0.429688 7.359375 -0.414062 7.359375 -0.40625 L 7.359375 -0.078125 C 7.359375 -0.0664062 7.351562 -0.0507812 7.34375 -0.03125 C 7.332031 -0.0078125 7.3125 0 7.28125 0 L 0.46875 0 C 0.425781 0 0.40625 -0.0234375 0.40625 -0.078125 L 0.40625 -0.421875 C 0.40625 -0.472656 0.429688 -0.5 0.484375 -0.5 C 0.710938 -0.507812 0.941406 -0.535156 1.171875 -0.578125 C 1.410156 -0.628906 1.628906 -0.703125 1.828125 -0.796875 C 2.023438 -0.898438 2.179688 -1.03125 2.296875 -1.1875 C 2.421875 -1.34375 2.484375 -1.53125 2.484375 -1.75 Z M 2.484375 -12.40625 "/></g></g><g transform="translate(89.310181, 19.533244)"><g><path d="M 0.6875 0 C 0.644531 0 0.617188 -0.0078125 0.609375 -0.03125 C 0.609375 -0.0507812 0.609375 -0.0664062 0.609375 -0.078125 L 0.609375 -0.625 C 0.609375 -0.632812 0.609375 -0.648438 0.609375 -0.671875 C 0.617188 -0.691406 0.644531 -0.703125 0.6875 -0.703125 C 0.894531 -0.703125 1.101562 -0.71875 1.3125 -0.75 C 1.519531 -0.78125 1.710938 -0.84375 1.890625 -0.9375 C 2.066406 -1.039062 2.207031 -1.1875 2.3125 -1.375 C 2.425781 -1.5625 2.484375 -1.816406 2.484375 -2.140625 L 2.484375 -12.203125 C 2.484375 -12.429688 2.445312 -12.617188 2.375 -12.765625 C 2.300781 -12.921875 2.195312 -13.046875 2.0625 -13.140625 C 1.925781 -13.242188 1.765625 -13.316406 1.578125 -13.359375 C 1.390625 -13.410156 1.179688 -13.441406 0.953125 -13.453125 C 0.898438 -13.453125 0.875 -13.476562 0.875 -13.53125 L 0.875 -14.078125 C 0.875 -14.128906 0.894531 -14.15625 0.9375 -14.15625 L 6.890625 -14.15625 C 6.921875 -14.15625 6.941406 -14.144531 6.953125 -14.125 C 6.960938 -14.101562 6.96875 -14.085938 6.96875 -14.078125 L 6.96875 -13.53125 C 6.96875 -13.488281 6.941406 -13.46875 6.890625 -13.46875 C 6.691406 -13.46875 6.5 -13.445312 6.3125 -13.40625 C 6.125 -13.375 5.957031 -13.304688 5.8125 -13.203125 C 5.675781 -13.109375 5.5625 -12.96875 5.46875 -12.78125 C 5.382812 -12.601562 5.34375 -12.363281 5.34375 -12.0625 L 5.34375 -7.921875 C 5.34375 -7.859375 5.351562 -7.816406 5.375 -7.796875 C 5.394531 -7.773438 5.4375 -7.765625 5.5 -7.765625 L 12.515625 -7.765625 C 12.578125 -7.765625 12.617188 -7.773438 12.640625 -7.796875 C 12.660156 -7.816406 12.671875 -7.859375 12.671875 -7.921875 L 12.671875 -12.21875 C 12.671875 -12.457031 12.597656 -12.648438 12.453125 -12.796875 C 12.304688 -12.953125 12.117188 -13.070312 11.890625 -13.15625 C 11.671875 -13.25 11.425781 -13.316406 11.15625 -13.359375 C 10.894531 -13.410156 10.65625 -13.441406 10.4375 -13.453125 C 10.382812 -13.453125 10.359375 -13.476562 10.359375 -13.53125 L 10.359375 -14.078125 C 10.359375 -14.128906 10.382812 -14.15625 10.4375 -14.15625 L 17.125 -14.15625 C 17.15625 -14.15625 17.175781 -14.144531 17.1875 -14.125 C 17.195312 -14.101562 17.203125 -14.085938 17.203125 -14.078125 L 17.203125 -13.53125 C 17.203125 -13.488281 17.175781 -13.46875 17.125 -13.46875 C 16.925781 -13.46875 16.726562 -13.445312 16.53125 -13.40625 C 16.34375 -13.375 16.171875 -13.304688 16.015625 -13.203125 C 15.867188 -13.109375 15.75 -12.96875 15.65625 -12.78125 C 15.570312 -12.601562 15.53125 -12.363281 15.53125 -12.0625 L 15.53125 -2.125 C 15.53125 -1.945312 15.554688 -1.789062 15.609375 -1.65625 C 15.660156 -1.519531 15.738281 -1.382812 15.84375 -1.25 C 15.945312 -1.101562 16.117188 -0.976562 16.359375 -0.875 C 16.609375 -0.769531 16.957031 -0.710938 17.40625 -0.703125 C 17.457031 -0.703125 17.484375 -0.675781 17.484375 -0.625 L 17.484375 -0.078125 C 17.484375 -0.0234375 17.457031 0 17.40625 0 L 10.125 0 C 10.09375 0 10.070312 -0.0078125 10.0625 -0.03125 C 10.050781 -0.0507812 10.046875 -0.0664062 10.046875 -0.078125 L 10.046875 -0.625 C 10.046875 -0.632812 10.050781 -0.648438 10.0625 -0.671875 C 10.070312 -0.691406 10.09375 -0.703125 10.125 -0.703125 C 10.320312 -0.703125 10.5625 -0.710938 10.84375 -0.734375 C 11.132812 -0.765625 11.414062 -0.820312 11.6875 -0.90625 C 11.957031 -1 12.1875 -1.128906 12.375 -1.296875 C 12.570312 -1.472656 12.671875 -1.710938 12.671875 -2.015625 L 12.671875 -6.34375 C 12.671875 -6.414062 12.660156 -6.457031 12.640625 -6.46875 C 12.617188 -6.488281 12.578125 -6.5 12.515625 -6.5 L 5.5 -6.5 C 5.4375 -6.5 5.394531 -6.488281 5.375 -6.46875 C 5.351562 -6.457031 5.34375 -6.414062 5.34375 -6.34375 L 5.34375 -1.90625 C 5.34375 -1.675781 5.390625 -1.484375 5.484375 -1.328125 C 5.585938 -1.179688 5.722656 -1.0625 5.890625 -0.96875 C 6.054688 -0.875 6.242188 -0.804688 6.453125 -0.765625 C 6.671875 -0.722656 6.894531 -0.703125 7.125 -0.703125 C 7.15625 -0.703125 7.175781 -0.691406 7.1875 -0.671875 C 7.195312 -0.648438 7.203125 -0.632812 7.203125 -0.625 L 7.203125 -0.078125 C 7.203125 -0.0664062 7.195312 -0.0507812 7.1875 -0.03125 C 7.175781 -0.0078125 7.15625 0 7.125 0 Z M 0.6875 0 "/></g></g><g transform="translate(107.406267, 19.533244)"><g><path d="M 5.390625 -1.90625 C 5.390625 -1.675781 5.425781 -1.484375 5.5 -1.328125 C 5.570312 -1.179688 5.671875 -1.0625 5.796875 -0.96875 C 5.929688 -0.875 6.09375 -0.804688 6.28125 -0.765625 C 6.46875 -0.722656 6.679688 -0.703125 6.921875 -0.703125 C 6.972656 -0.703125 7 -0.675781 7 -0.625 L 7 -0.078125 C 7 -0.0546875 6.992188 -0.0351562 6.984375 -0.015625 C 6.984375 -0.00390625 6.960938 0 6.921875 0 L 0.984375 0 C 0.953125 0 0.929688 -0.0078125 0.921875 -0.03125 C 0.910156 -0.0507812 0.90625 -0.0664062 0.90625 -0.078125 L 0.90625 -0.625 C 0.90625 -0.632812 0.910156 -0.648438 0.921875 -0.671875 C 0.929688 -0.691406 0.953125 -0.703125 0.984375 -0.703125 C 1.210938 -0.703125 1.421875 -0.71875 1.609375 -0.75 C 1.804688 -0.78125 1.972656 -0.84375 2.109375 -0.9375 C 2.242188 -1.039062 2.347656 -1.1875 2.421875 -1.375 C 2.492188 -1.5625 2.53125 -1.816406 2.53125 -2.140625 L 2.53125 -12.25 C 2.53125 -12.476562 2.492188 -12.664062 2.421875 -12.8125 C 2.347656 -12.96875 2.242188 -13.09375 2.109375 -13.1875 C 1.984375 -13.28125 1.828125 -13.347656 1.640625 -13.390625 C 1.453125 -13.429688 1.238281 -13.453125 1 -13.453125 C 0.945312 -13.453125 0.921875 -13.476562 0.921875 -13.53125 L 0.921875 -14.078125 C 0.921875 -14.128906 0.945312 -14.15625 1 -14.15625 L 6.9375 -14.15625 C 6.96875 -14.15625 6.988281 -14.144531 7 -14.125 C 7.007812 -14.101562 7.015625 -14.085938 7.015625 -14.078125 L 7.015625 -13.53125 C 7.015625 -13.519531 7.007812 -13.503906 7 -13.484375 C 6.988281 -13.460938 6.96875 -13.453125 6.9375 -13.453125 C 6.707031 -13.453125 6.492188 -13.4375 6.296875 -13.40625 C 6.109375 -13.375 5.945312 -13.304688 5.8125 -13.203125 C 5.675781 -13.109375 5.570312 -12.96875 5.5 -12.78125 C 5.425781 -12.59375 5.390625 -12.335938 5.390625 -12.015625 Z M 5.390625 -1.90625 "/></g></g></g></g><g fill="#000000" fill-opacity="1"><g transform="translate(115.339623, 19.533244)"><g/></g></g></g></g></g><g clip-path="url(#e4d60b86e1)"><g transform="matrix(1, 0, 0, 1, 72, 64)"><g clip-path="url(#183a323a1a)"><g fill="#86c023" fill-opacity="1"><g transform="translate(0.952022, 12.94954)"><g><path d="M 5.671875 0.15625 C 5.523438 0.15625 5.34375 0.144531 5.125 0.125 C 4.90625 0.101562 4.664062 0.0625 4.40625 0 C 4.144531 -0.0703125 3.867188 -0.160156 3.578125 -0.265625 C 3.296875 -0.378906 3.015625 -0.519531 2.734375 -0.6875 C 2.460938 -0.863281 2.203125 -1.066406 1.953125 -1.296875 C 1.710938 -1.535156 1.5 -1.804688 1.3125 -2.109375 C 1.125 -2.421875 0.972656 -2.769531 0.859375 -3.15625 C 0.742188 -3.550781 0.6875 -4 0.6875 -4.5 C 0.6875 -4.9375 0.742188 -5.351562 0.859375 -5.75 C 0.984375 -6.144531 1.15625 -6.515625 1.375 -6.859375 C 1.601562 -7.203125 1.875 -7.515625 2.1875 -7.796875 C 2.507812 -8.078125 2.863281 -8.316406 3.25 -8.515625 C 3.644531 -8.710938 4.070312 -8.863281 4.53125 -8.96875 C 4.988281 -9.082031 5.46875 -9.140625 5.96875 -9.140625 C 6.40625 -9.140625 6.828125 -9.082031 7.234375 -8.96875 C 7.640625 -8.863281 8.019531 -8.710938 8.375 -8.515625 C 8.738281 -8.328125 9.066406 -8.097656 9.359375 -7.828125 C 9.660156 -7.554688 9.914062 -7.25 10.125 -6.90625 C 10.34375 -6.570312 10.507812 -6.210938 10.625 -5.828125 C 10.738281 -5.441406 10.796875 -5.035156 10.796875 -4.609375 C 10.796875 -4.210938 10.738281 -3.820312 10.625 -3.4375 C 10.519531 -3.050781 10.359375 -2.679688 10.140625 -2.328125 C 9.921875 -1.972656 9.660156 -1.644531 9.359375 -1.34375 C 9.054688 -1.039062 8.710938 -0.773438 8.328125 -0.546875 C 7.953125 -0.328125 7.539062 -0.15625 7.09375 -0.03125 C 6.644531 0.09375 6.171875 0.15625 5.671875 0.15625 Z M 2.546875 -4.734375 C 2.546875 -4.390625 2.578125 -4.046875 2.640625 -3.703125 C 2.710938 -3.367188 2.816406 -3.039062 2.953125 -2.71875 C 3.085938 -2.40625 3.253906 -2.109375 3.453125 -1.828125 C 3.648438 -1.554688 3.875 -1.316406 4.125 -1.109375 C 4.375 -0.910156 4.648438 -0.753906 4.953125 -0.640625 C 5.265625 -0.523438 5.601562 -0.46875 5.96875 -0.46875 C 6.476562 -0.46875 6.914062 -0.578125 7.28125 -0.796875 C 7.65625 -1.015625 7.960938 -1.300781 8.203125 -1.65625 C 8.453125 -2.007812 8.632812 -2.414062 8.75 -2.875 C 8.875 -3.34375 8.9375 -3.828125 8.9375 -4.328125 C 8.9375 -4.679688 8.898438 -5.03125 8.828125 -5.375 C 8.765625 -5.726562 8.664062 -6.0625 8.53125 -6.375 C 8.40625 -6.6875 8.242188 -6.972656 8.046875 -7.234375 C 7.847656 -7.492188 7.625 -7.71875 7.375 -7.90625 C 7.125 -8.101562 6.84375 -8.253906 6.53125 -8.359375 C 6.21875 -8.472656 5.882812 -8.53125 5.53125 -8.53125 C 5.207031 -8.53125 4.90625 -8.476562 4.625 -8.375 C 4.351562 -8.28125 4.109375 -8.144531 3.890625 -7.96875 C 3.671875 -7.789062 3.476562 -7.582031 3.3125 -7.34375 C 3.144531 -7.101562 3.003906 -6.84375 2.890625 -6.5625 C 2.773438 -6.28125 2.6875 -5.984375 2.625 -5.671875 C 2.570312 -5.359375 2.546875 -5.046875 2.546875 -4.734375 Z M 2.546875 -4.734375 "/></g></g><g transform="translate(12.444956, 12.94954)"><g><path d="M 0.28125 -0.328125 C 0.28125 -0.328125 0.28125 -0.332031 0.28125 -0.34375 C 0.289062 -0.363281 0.304688 -0.375 0.328125 -0.375 C 0.347656 -0.375 0.382812 -0.378906 0.4375 -0.390625 C 0.5 -0.398438 0.554688 -0.40625 0.609375 -0.40625 C 0.671875 -0.414062 0.726562 -0.425781 0.78125 -0.4375 C 0.832031 -0.445312 0.867188 -0.457031 0.890625 -0.46875 C 1.128906 -0.519531 1.296875 -0.609375 1.390625 -0.734375 C 1.484375 -0.859375 1.53125 -1.015625 1.53125 -1.203125 L 1.53125 -7.59375 C 1.53125 -7.800781 1.484375 -7.960938 1.390625 -8.078125 C 1.304688 -8.203125 1.207031 -8.296875 1.09375 -8.359375 C 0.976562 -8.421875 0.863281 -8.457031 0.75 -8.46875 C 0.644531 -8.488281 0.578125 -8.5 0.546875 -8.5 L 0.296875 -8.5 C 0.273438 -8.5 0.257812 -8.503906 0.25 -8.515625 C 0.25 -8.523438 0.25 -8.535156 0.25 -8.546875 L 0.25 -8.828125 C 0.25 -8.835938 0.25 -8.847656 0.25 -8.859375 C 0.257812 -8.867188 0.273438 -8.875 0.296875 -8.875 C 0.304688 -8.875 0.316406 -8.875 0.328125 -8.875 C 0.347656 -8.875 0.378906 -8.875 0.421875 -8.875 C 0.460938 -8.875 0.523438 -8.875 0.609375 -8.875 C 0.703125 -8.882812 0.832031 -8.890625 1 -8.890625 C 1.226562 -8.898438 1.472656 -8.90625 1.734375 -8.90625 C 1.992188 -8.914062 2.257812 -8.925781 2.53125 -8.9375 C 2.800781 -8.945312 3.066406 -8.953125 3.328125 -8.953125 C 3.585938 -8.960938 3.832031 -8.96875 4.0625 -8.96875 L 4.703125 -8.96875 C 5.035156 -8.96875 5.375 -8.910156 5.71875 -8.796875 C 6.0625 -8.679688 6.367188 -8.515625 6.640625 -8.296875 C 6.921875 -8.078125 7.148438 -7.800781 7.328125 -7.46875 C 7.515625 -7.144531 7.609375 -6.769531 7.609375 -6.34375 C 7.609375 -6.0625 7.566406 -5.8125 7.484375 -5.59375 C 7.410156 -5.382812 7.304688 -5.195312 7.171875 -5.03125 C 7.046875 -4.863281 6.890625 -4.71875 6.703125 -4.59375 C 6.523438 -4.46875 6.328125 -4.359375 6.109375 -4.265625 L 8.015625 -1.234375 C 8.179688 -0.972656 8.375 -0.738281 8.59375 -0.53125 C 8.8125 -0.320312 9.066406 -0.175781 9.359375 -0.09375 C 9.390625 -0.0820312 9.40625 -0.0664062 9.40625 -0.046875 C 9.414062 -0.0351562 9.421875 -0.0195312 9.421875 0 C 9.421875 0.0625 9.40625 0.101562 9.375 0.125 C 9.34375 0.144531 9.289062 0.15625 9.21875 0.15625 C 9.039062 0.15625 8.835938 0.144531 8.609375 0.125 C 8.390625 0.101562 8.164062 0.0664062 7.9375 0.015625 C 7.707031 -0.0351562 7.488281 -0.101562 7.28125 -0.1875 C 7.082031 -0.28125 6.914062 -0.390625 6.78125 -0.515625 C 6.644531 -0.628906 6.503906 -0.773438 6.359375 -0.953125 C 6.222656 -1.140625 6.082031 -1.332031 5.9375 -1.53125 C 5.800781 -1.738281 5.664062 -1.957031 5.53125 -2.1875 C 5.394531 -2.414062 5.265625 -2.632812 5.140625 -2.84375 C 5.015625 -3.0625 4.890625 -3.257812 4.765625 -3.4375 C 4.648438 -3.625 4.546875 -3.785156 4.453125 -3.921875 L 3.46875 -3.984375 C 3.46875 -3.984375 3.453125 -3.984375 3.421875 -3.984375 C 3.390625 -3.984375 3.367188 -3.976562 3.359375 -3.96875 C 3.347656 -3.957031 3.335938 -3.945312 3.328125 -3.9375 C 3.328125 -3.9375 3.328125 -3.921875 3.328125 -3.890625 L 3.328125 -1.21875 C 3.328125 -1.101562 3.335938 -1.003906 3.359375 -0.921875 C 3.390625 -0.835938 3.441406 -0.765625 3.515625 -0.703125 C 3.585938 -0.640625 3.675781 -0.585938 3.78125 -0.546875 C 3.894531 -0.515625 4.03125 -0.488281 4.1875 -0.46875 C 4.21875 -0.457031 4.253906 -0.445312 4.296875 -0.4375 C 4.347656 -0.4375 4.398438 -0.429688 4.453125 -0.421875 C 4.515625 -0.410156 4.570312 -0.398438 4.625 -0.390625 C 4.675781 -0.378906 4.722656 -0.375 4.765625 -0.375 C 4.785156 -0.375 4.796875 -0.367188 4.796875 -0.359375 C 4.804688 -0.347656 4.8125 -0.335938 4.8125 -0.328125 L 4.8125 -0.046875 C 4.8125 -0.0351562 4.804688 -0.0234375 4.796875 -0.015625 C 4.796875 -0.00390625 4.785156 0 4.765625 0 L 0.328125 0 C 0.304688 0 0.289062 -0.0234375 0.28125 -0.078125 C 0.28125 -0.140625 0.28125 -0.195312 0.28125 -0.25 Z M 3.34375 -4.609375 C 3.34375 -4.578125 3.347656 -4.546875 3.359375 -4.515625 C 3.378906 -4.492188 3.410156 -4.476562 3.453125 -4.46875 C 3.492188 -4.46875 3.550781 -4.460938 3.625 -4.453125 C 3.695312 -4.441406 3.800781 -4.4375 3.9375 -4.4375 C 4.3125 -4.4375 4.617188 -4.492188 4.859375 -4.609375 C 5.097656 -4.722656 5.285156 -4.875 5.421875 -5.0625 C 5.554688 -5.25 5.648438 -5.46875 5.703125 -5.71875 C 5.753906 -5.96875 5.78125 -6.226562 5.78125 -6.5 C 5.78125 -6.78125 5.734375 -7.046875 5.640625 -7.296875 C 5.554688 -7.546875 5.4375 -7.765625 5.28125 -7.953125 C 5.125 -8.140625 4.9375 -8.285156 4.71875 -8.390625 C 4.5 -8.492188 4.253906 -8.546875 3.984375 -8.546875 C 3.929688 -8.546875 3.882812 -8.546875 3.84375 -8.546875 C 3.8125 -8.546875 3.78125 -8.546875 3.75 -8.546875 C 3.71875 -8.546875 3.679688 -8.539062 3.640625 -8.53125 C 3.609375 -8.53125 3.554688 -8.53125 3.484375 -8.53125 C 3.453125 -8.53125 3.414062 -8.523438 3.375 -8.515625 C 3.34375 -8.503906 3.328125 -8.472656 3.328125 -8.421875 L 3.328125 -4.796875 Z M 3.34375 -4.609375 "/></g></g><g transform="translate(21.942677, 12.94954)"><g><path d="M 0.71875 -4.515625 C 0.71875 -4.941406 0.773438 -5.347656 0.890625 -5.734375 C 1.003906 -6.117188 1.164062 -6.484375 1.375 -6.828125 C 1.582031 -7.171875 1.828125 -7.484375 2.109375 -7.765625 C 2.398438 -8.046875 2.71875 -8.285156 3.0625 -8.484375 C 3.40625 -8.679688 3.769531 -8.832031 4.15625 -8.9375 C 4.550781 -9.050781 4.957031 -9.109375 5.375 -9.109375 C 5.59375 -9.109375 5.816406 -9.09375 6.046875 -9.0625 C 6.285156 -9.039062 6.515625 -9.007812 6.734375 -8.96875 C 6.953125 -8.925781 7.160156 -8.878906 7.359375 -8.828125 C 7.554688 -8.773438 7.726562 -8.726562 7.875 -8.6875 C 8.019531 -8.644531 8.140625 -8.609375 8.234375 -8.578125 C 8.335938 -8.554688 8.394531 -8.546875 8.40625 -8.546875 L 8.484375 -8.546875 C 8.515625 -8.546875 8.535156 -8.546875 8.546875 -8.546875 C 8.566406 -8.554688 8.582031 -8.566406 8.59375 -8.578125 C 8.613281 -8.585938 8.632812 -8.59375 8.65625 -8.59375 C 8.675781 -8.601562 8.703125 -8.609375 8.734375 -8.609375 L 8.984375 -8.609375 C 8.992188 -8.609375 9.003906 -8.601562 9.015625 -8.59375 C 9.035156 -8.59375 9.046875 -8.578125 9.046875 -8.546875 L 9.046875 -6.453125 C 9.046875 -6.398438 9.023438 -6.363281 8.984375 -6.34375 C 8.953125 -6.332031 8.921875 -6.328125 8.890625 -6.328125 C 8.847656 -6.328125 8.8125 -6.347656 8.78125 -6.390625 C 8.757812 -6.429688 8.734375 -6.472656 8.703125 -6.515625 C 8.679688 -6.554688 8.660156 -6.597656 8.640625 -6.640625 C 8.617188 -6.679688 8.609375 -6.710938 8.609375 -6.734375 C 8.503906 -7.066406 8.351562 -7.34375 8.15625 -7.5625 C 7.96875 -7.789062 7.742188 -7.972656 7.484375 -8.109375 C 7.234375 -8.253906 6.953125 -8.359375 6.640625 -8.421875 C 6.335938 -8.484375 6.015625 -8.515625 5.671875 -8.515625 C 5.085938 -8.515625 4.597656 -8.40625 4.203125 -8.1875 C 3.816406 -7.976562 3.503906 -7.691406 3.265625 -7.328125 C 3.035156 -6.972656 2.867188 -6.554688 2.765625 -6.078125 C 2.671875 -5.609375 2.625 -5.113281 2.625 -4.59375 C 2.625 -4.238281 2.65625 -3.890625 2.71875 -3.546875 C 2.789062 -3.203125 2.894531 -2.875 3.03125 -2.5625 C 3.164062 -2.257812 3.328125 -1.976562 3.515625 -1.71875 C 3.703125 -1.457031 3.910156 -1.234375 4.140625 -1.046875 C 4.378906 -0.867188 4.632812 -0.722656 4.90625 -0.609375 C 5.175781 -0.503906 5.460938 -0.453125 5.765625 -0.453125 C 6.097656 -0.453125 6.394531 -0.488281 6.65625 -0.5625 C 6.914062 -0.644531 7.125 -0.789062 7.28125 -1 L 7.28125 -2.390625 C 7.28125 -2.566406 7.257812 -2.722656 7.21875 -2.859375 C 7.175781 -3.003906 7.09375 -3.125 6.96875 -3.21875 C 6.851562 -3.320312 6.691406 -3.398438 6.484375 -3.453125 C 6.285156 -3.503906 6.03125 -3.53125 5.71875 -3.53125 C 5.695312 -3.53125 5.679688 -3.550781 5.671875 -3.59375 C 5.660156 -3.644531 5.65625 -3.6875 5.65625 -3.71875 C 5.65625 -3.738281 5.660156 -3.773438 5.671875 -3.828125 C 5.679688 -3.878906 5.695312 -3.90625 5.71875 -3.90625 L 10.109375 -3.90625 C 10.140625 -3.90625 10.15625 -3.878906 10.15625 -3.828125 C 10.164062 -3.773438 10.171875 -3.738281 10.171875 -3.71875 C 10.171875 -3.695312 10.164062 -3.660156 10.15625 -3.609375 C 10.144531 -3.566406 10.128906 -3.539062 10.109375 -3.53125 C 9.992188 -3.476562 9.875 -3.4375 9.75 -3.40625 C 9.632812 -3.375 9.523438 -3.328125 9.421875 -3.265625 C 9.316406 -3.210938 9.234375 -3.140625 9.171875 -3.046875 C 9.109375 -2.953125 9.078125 -2.820312 9.078125 -2.65625 L 9.078125 -0.828125 C 9.078125 -0.796875 9.0625 -0.769531 9.03125 -0.75 C 9.007812 -0.726562 8.96875 -0.703125 8.90625 -0.671875 C 8.664062 -0.554688 8.394531 -0.445312 8.09375 -0.34375 C 7.800781 -0.25 7.5 -0.160156 7.1875 -0.078125 C 6.875 -0.00390625 6.5625 0.0507812 6.25 0.09375 C 5.9375 0.144531 5.65625 0.171875 5.40625 0.171875 C 4.75 0.171875 4.132812 0.0625 3.5625 -0.15625 C 3 -0.375 2.503906 -0.679688 2.078125 -1.078125 C 1.660156 -1.484375 1.328125 -1.976562 1.078125 -2.5625 C 0.835938 -3.144531 0.71875 -3.796875 0.71875 -4.515625 Z M 0.71875 -4.515625 "/></g></g><g transform="translate(32.428564, 12.94954)"><g><path d="M 0.03125 -0.296875 C 0.03125 -0.328125 0.046875 -0.34375 0.078125 -0.34375 C 0.160156 -0.351562 0.253906 -0.363281 0.359375 -0.375 C 0.460938 -0.394531 0.570312 -0.4375 0.6875 -0.5 C 0.800781 -0.5625 0.910156 -0.648438 1.015625 -0.765625 C 1.117188 -0.890625 1.207031 -1.054688 1.28125 -1.265625 L 3.8125 -8.609375 C 3.8125 -8.597656 3.8125 -8.597656 3.8125 -8.609375 C 3.8125 -8.617188 3.8125 -8.628906 3.8125 -8.640625 C 3.8125 -8.671875 3.800781 -8.707031 3.78125 -8.75 C 3.757812 -8.789062 3.75 -8.820312 3.75 -8.84375 C 3.75 -8.863281 3.753906 -8.875 3.765625 -8.875 L 5.59375 -8.875 C 5.601562 -8.875 5.613281 -8.867188 5.625 -8.859375 C 5.644531 -8.859375 5.660156 -8.847656 5.671875 -8.828125 L 8.328125 -1.359375 C 8.367188 -1.234375 8.40625 -1.128906 8.4375 -1.046875 C 8.476562 -0.960938 8.523438 -0.890625 8.578125 -0.828125 C 8.628906 -0.765625 8.695312 -0.707031 8.78125 -0.65625 C 8.863281 -0.601562 8.96875 -0.546875 9.09375 -0.484375 C 9.144531 -0.460938 9.222656 -0.429688 9.328125 -0.390625 C 9.429688 -0.359375 9.53125 -0.34375 9.625 -0.34375 C 9.644531 -0.34375 9.65625 -0.335938 9.65625 -0.328125 C 9.664062 -0.316406 9.671875 -0.304688 9.671875 -0.296875 L 9.671875 -0.046875 C 9.671875 -0.0351562 9.664062 -0.0234375 9.65625 -0.015625 C 9.65625 -0.00390625 9.644531 0 9.625 0 L 5.203125 0 C 5.179688 0 5.164062 -0.00390625 5.15625 -0.015625 C 5.15625 -0.0234375 5.15625 -0.0351562 5.15625 -0.046875 L 5.15625 -0.296875 C 5.15625 -0.304688 5.15625 -0.316406 5.15625 -0.328125 C 5.164062 -0.335938 5.179688 -0.34375 5.203125 -0.34375 C 5.210938 -0.34375 5.226562 -0.34375 5.25 -0.34375 C 5.269531 -0.351562 5.28125 -0.359375 5.28125 -0.359375 C 5.332031 -0.359375 5.398438 -0.359375 5.484375 -0.359375 C 5.566406 -0.367188 5.660156 -0.378906 5.765625 -0.390625 C 5.867188 -0.398438 5.96875 -0.414062 6.0625 -0.4375 C 6.164062 -0.457031 6.257812 -0.488281 6.34375 -0.53125 C 6.4375 -0.582031 6.507812 -0.640625 6.5625 -0.703125 C 6.613281 -0.773438 6.640625 -0.863281 6.640625 -0.96875 C 6.640625 -1 6.632812 -1.03125 6.625 -1.0625 L 5.796875 -3.34375 C 5.796875 -3.34375 5.789062 -3.359375 5.78125 -3.390625 C 5.769531 -3.421875 5.753906 -3.453125 5.734375 -3.484375 C 5.710938 -3.515625 5.679688 -3.539062 5.640625 -3.5625 C 5.609375 -3.59375 5.566406 -3.609375 5.515625 -3.609375 L 3.234375 -3.609375 C 3.179688 -3.609375 3.132812 -3.59375 3.09375 -3.5625 C 3.0625 -3.539062 3.03125 -3.515625 3 -3.484375 C 2.976562 -3.453125 2.957031 -3.421875 2.9375 -3.390625 C 2.925781 -3.367188 2.921875 -3.351562 2.921875 -3.34375 C 2.785156 -2.945312 2.671875 -2.613281 2.578125 -2.34375 C 2.492188 -2.070312 2.421875 -1.847656 2.359375 -1.671875 C 2.296875 -1.503906 2.25 -1.367188 2.21875 -1.265625 C 2.1875 -1.171875 2.160156 -1.101562 2.140625 -1.0625 C 2.128906 -1.019531 2.117188 -0.992188 2.109375 -0.984375 C 2.109375 -0.972656 2.109375 -0.96875 2.109375 -0.96875 C 2.109375 -0.945312 2.109375 -0.929688 2.109375 -0.921875 C 2.117188 -0.910156 2.128906 -0.894531 2.140625 -0.875 C 2.171875 -0.769531 2.226562 -0.679688 2.3125 -0.609375 C 2.40625 -0.546875 2.507812 -0.492188 2.625 -0.453125 C 2.75 -0.410156 2.867188 -0.378906 2.984375 -0.359375 C 3.109375 -0.347656 3.222656 -0.34375 3.328125 -0.34375 L 3.484375 -0.34375 C 3.503906 -0.34375 3.515625 -0.335938 3.515625 -0.328125 C 3.523438 -0.316406 3.53125 -0.304688 3.53125 -0.296875 L 3.53125 -0.046875 C 3.53125 -0.0351562 3.523438 -0.0234375 3.515625 -0.015625 C 3.515625 -0.00390625 3.503906 0 3.484375 0 L 0.078125 0 C 0.046875 0 0.03125 -0.015625 0.03125 -0.046875 Z M 3.328125 -4.515625 C 3.316406 -4.492188 3.304688 -4.472656 3.296875 -4.453125 C 3.296875 -4.429688 3.296875 -4.410156 3.296875 -4.390625 C 3.296875 -4.359375 3.300781 -4.335938 3.3125 -4.328125 C 3.332031 -4.316406 3.363281 -4.3125 3.40625 -4.3125 L 5.28125 -4.3125 C 5.332031 -4.3125 5.363281 -4.316406 5.375 -4.328125 C 5.394531 -4.347656 5.40625 -4.375 5.40625 -4.40625 C 5.40625 -4.425781 5.398438 -4.441406 5.390625 -4.453125 C 5.390625 -4.472656 5.382812 -4.492188 5.375 -4.515625 L 4.53125 -6.8125 C 4.507812 -6.875 4.476562 -6.914062 4.4375 -6.9375 C 4.394531 -6.96875 4.359375 -6.984375 4.328125 -6.984375 C 4.296875 -6.984375 4.257812 -6.96875 4.21875 -6.9375 C 4.175781 -6.90625 4.144531 -6.859375 4.125 -6.796875 Z M 3.328125 -4.515625 "/></g></g><g transform="translate(42.127694, 12.94954)"><g><path d="M 0.421875 0 C 0.421875 0 0.410156 -0.00390625 0.390625 -0.015625 C 0.378906 -0.0234375 0.375 -0.0351562 0.375 -0.046875 L 0.375 -0.328125 C 0.375 -0.359375 0.390625 -0.375 0.421875 -0.375 C 0.472656 -0.375 0.523438 -0.375 0.578125 -0.375 C 0.640625 -0.375 0.695312 -0.375 0.75 -0.375 C 0.8125 -0.382812 0.863281 -0.390625 0.90625 -0.390625 C 0.957031 -0.398438 0.992188 -0.410156 1.015625 -0.421875 C 1.117188 -0.472656 1.203125 -0.539062 1.265625 -0.625 C 1.335938 -0.707031 1.390625 -0.800781 1.421875 -0.90625 C 1.460938 -1.019531 1.488281 -1.140625 1.5 -1.265625 C 1.507812 -1.398438 1.515625 -1.539062 1.515625 -1.6875 L 1.515625 -7.96875 C 1.515625 -8.082031 1.46875 -8.175781 1.375 -8.25 C 1.289062 -8.320312 1.1875 -8.375 1.0625 -8.40625 C 0.945312 -8.4375 0.828125 -8.457031 0.703125 -8.46875 C 0.578125 -8.488281 0.484375 -8.5 0.421875 -8.5 C 0.398438 -8.5 0.382812 -8.503906 0.375 -8.515625 C 0.375 -8.523438 0.375 -8.535156 0.375 -8.546875 L 0.375 -8.828125 C 0.375 -8.835938 0.375 -8.847656 0.375 -8.859375 C 0.382812 -8.867188 0.398438 -8.875 0.421875 -8.875 L 3.28125 -8.875 L 8.703125 -2.875 C 8.722656 -2.851562 8.738281 -2.835938 8.75 -2.828125 C 8.757812 -2.816406 8.769531 -2.8125 8.78125 -2.8125 C 8.800781 -2.8125 8.8125 -2.816406 8.8125 -2.828125 C 8.8125 -2.835938 8.8125 -2.847656 8.8125 -2.859375 L 8.8125 -6.609375 C 8.8125 -7.015625 8.796875 -7.34375 8.765625 -7.59375 C 8.742188 -7.84375 8.691406 -8.035156 8.609375 -8.171875 C 8.523438 -8.304688 8.414062 -8.394531 8.28125 -8.4375 C 8.15625 -8.476562 7.984375 -8.5 7.765625 -8.5 L 7.453125 -8.5 C 7.429688 -8.5 7.414062 -8.503906 7.40625 -8.515625 C 7.40625 -8.523438 7.40625 -8.535156 7.40625 -8.546875 L 7.40625 -8.828125 C 7.40625 -8.835938 7.40625 -8.847656 7.40625 -8.859375 C 7.414062 -8.867188 7.429688 -8.875 7.453125 -8.875 L 10.921875 -8.875 C 10.941406 -8.875 10.953125 -8.867188 10.953125 -8.859375 C 10.960938 -8.847656 10.96875 -8.835938 10.96875 -8.828125 L 10.96875 -8.546875 C 10.96875 -8.535156 10.960938 -8.523438 10.953125 -8.515625 C 10.953125 -8.503906 10.941406 -8.5 10.921875 -8.5 C 10.828125 -8.5 10.710938 -8.476562 10.578125 -8.4375 C 10.453125 -8.40625 10.328125 -8.359375 10.203125 -8.296875 C 10.078125 -8.234375 9.96875 -8.15625 9.875 -8.0625 C 9.789062 -7.976562 9.75 -7.875 9.75 -7.75 L 9.75 -0.3125 C 9.75 -0.238281 9.726562 -0.175781 9.6875 -0.125 C 9.65625 -0.0820312 9.613281 -0.046875 9.5625 -0.015625 C 9.507812 0.015625 9.453125 0.0351562 9.390625 0.046875 C 9.328125 0.0664062 9.273438 0.078125 9.234375 0.078125 C 9.140625 0.078125 9.035156 0.0546875 8.921875 0.015625 C 8.816406 -0.015625 8.710938 -0.09375 8.609375 -0.21875 L 2.65625 -6.796875 C 2.632812 -6.828125 2.613281 -6.84375 2.59375 -6.84375 C 2.582031 -6.851562 2.566406 -6.859375 2.546875 -6.859375 C 2.523438 -6.859375 2.515625 -6.835938 2.515625 -6.796875 L 2.515625 -1.1875 C 2.515625 -1.0625 2.539062 -0.957031 2.59375 -0.875 C 2.65625 -0.789062 2.726562 -0.71875 2.8125 -0.65625 C 2.90625 -0.59375 3.003906 -0.539062 3.109375 -0.5 C 3.210938 -0.46875 3.316406 -0.441406 3.421875 -0.421875 C 3.523438 -0.398438 3.617188 -0.382812 3.703125 -0.375 C 3.785156 -0.375 3.847656 -0.375 3.890625 -0.375 C 3.910156 -0.375 3.925781 -0.367188 3.9375 -0.359375 C 3.9375 -0.347656 3.9375 -0.335938 3.9375 -0.328125 L 3.9375 -0.046875 C 3.9375 -0.0351562 3.929688 -0.0234375 3.921875 -0.015625 C 3.921875 -0.00390625 3.910156 0 3.890625 0 Z M 0.421875 0 "/></g></g><g transform="translate(53.31222, 12.94954)"><g><path d="M 3.375 -1.203125 C 3.375 -1.054688 3.394531 -0.929688 3.4375 -0.828125 C 3.488281 -0.734375 3.550781 -0.65625 3.625 -0.59375 C 3.707031 -0.539062 3.804688 -0.5 3.921875 -0.46875 C 4.046875 -0.445312 4.1875 -0.4375 4.34375 -0.4375 C 4.375 -0.4375 4.390625 -0.421875 4.390625 -0.390625 L 4.390625 -0.046875 C 4.390625 -0.0351562 4.382812 -0.0234375 4.375 -0.015625 C 4.375 -0.00390625 4.363281 0 4.34375 0 L 0.609375 0 C 0.585938 0 0.570312 -0.00390625 0.5625 -0.015625 C 0.5625 -0.0234375 0.5625 -0.0351562 0.5625 -0.046875 L 0.5625 -0.390625 C 0.5625 -0.398438 0.5625 -0.410156 0.5625 -0.421875 C 0.570312 -0.429688 0.585938 -0.4375 0.609375 -0.4375 C 0.765625 -0.4375 0.898438 -0.445312 1.015625 -0.46875 C 1.140625 -0.488281 1.242188 -0.53125 1.328125 -0.59375 C 1.410156 -0.65625 1.472656 -0.742188 1.515625 -0.859375 C 1.566406 -0.972656 1.59375 -1.132812 1.59375 -1.34375 L 1.59375 -7.671875 C 1.59375 -7.816406 1.566406 -7.9375 1.515625 -8.03125 C 1.472656 -8.132812 1.410156 -8.210938 1.328125 -8.265625 C 1.242188 -8.328125 1.140625 -8.367188 1.015625 -8.390625 C 0.898438 -8.421875 0.769531 -8.4375 0.625 -8.4375 C 0.59375 -8.4375 0.578125 -8.453125 0.578125 -8.484375 L 0.578125 -8.828125 C 0.578125 -8.859375 0.59375 -8.875 0.625 -8.875 L 4.34375 -8.875 C 4.363281 -8.875 4.378906 -8.867188 4.390625 -8.859375 C 4.398438 -8.847656 4.40625 -8.835938 4.40625 -8.828125 L 4.40625 -8.484375 C 4.40625 -8.472656 4.398438 -8.460938 4.390625 -8.453125 C 4.378906 -8.441406 4.363281 -8.4375 4.34375 -8.4375 C 4.195312 -8.4375 4.0625 -8.425781 3.9375 -8.40625 C 3.820312 -8.382812 3.722656 -8.34375 3.640625 -8.28125 C 3.554688 -8.21875 3.488281 -8.128906 3.4375 -8.015625 C 3.394531 -7.898438 3.375 -7.738281 3.375 -7.53125 Z M 3.375 -1.203125 "/></g></g><g transform="translate(58.278225, 12.94954)"><g><path d="M 0.65625 -4.375 C 0.65625 -4.84375 0.710938 -5.285156 0.828125 -5.703125 C 0.953125 -6.128906 1.117188 -6.515625 1.328125 -6.859375 C 1.546875 -7.210938 1.804688 -7.53125 2.109375 -7.8125 C 2.410156 -8.09375 2.742188 -8.332031 3.109375 -8.53125 C 3.472656 -8.726562 3.863281 -8.878906 4.28125 -8.984375 C 4.707031 -9.085938 5.148438 -9.140625 5.609375 -9.140625 C 5.992188 -9.140625 6.363281 -9.101562 6.71875 -9.03125 C 7.082031 -8.96875 7.457031 -8.890625 7.84375 -8.796875 C 7.90625 -8.773438 7.96875 -8.75 8.03125 -8.71875 C 8.101562 -8.695312 8.171875 -8.675781 8.234375 -8.65625 C 8.296875 -8.632812 8.347656 -8.613281 8.390625 -8.59375 C 8.441406 -8.582031 8.484375 -8.578125 8.515625 -8.578125 C 8.515625 -8.578125 8.539062 -8.582031 8.59375 -8.59375 C 8.644531 -8.613281 8.679688 -8.625 8.703125 -8.625 L 8.984375 -8.625 C 9.035156 -8.625 9.0625 -8.585938 9.0625 -8.515625 L 9.0625 -6.46875 C 9.0625 -6.4375 9.050781 -6.414062 9.03125 -6.40625 C 9.007812 -6.40625 8.96875 -6.40625 8.90625 -6.40625 C 8.894531 -6.40625 8.863281 -6.40625 8.8125 -6.40625 C 8.757812 -6.40625 8.726562 -6.414062 8.71875 -6.4375 C 8.707031 -6.445312 8.691406 -6.472656 8.671875 -6.515625 C 8.648438 -6.554688 8.625 -6.59375 8.59375 -6.625 C 8.5625 -6.664062 8.535156 -6.703125 8.515625 -6.734375 C 8.492188 -6.773438 8.484375 -6.800781 8.484375 -6.8125 C 8.316406 -7.125 8.140625 -7.390625 7.953125 -7.609375 C 7.765625 -7.828125 7.554688 -8.003906 7.328125 -8.140625 C 7.097656 -8.273438 6.847656 -8.367188 6.578125 -8.421875 C 6.316406 -8.484375 6.023438 -8.515625 5.703125 -8.515625 C 5.304688 -8.515625 4.953125 -8.46875 4.640625 -8.375 C 4.335938 -8.289062 4.070312 -8.160156 3.84375 -7.984375 C 3.613281 -7.816406 3.414062 -7.613281 3.25 -7.375 C 3.09375 -7.144531 2.960938 -6.890625 2.859375 -6.609375 C 2.765625 -6.335938 2.695312 -6.039062 2.65625 -5.71875 C 2.613281 -5.40625 2.59375 -5.082031 2.59375 -4.75 C 2.59375 -4.382812 2.617188 -4.023438 2.671875 -3.671875 C 2.722656 -3.328125 2.800781 -2.992188 2.90625 -2.671875 C 3.019531 -2.359375 3.164062 -2.066406 3.34375 -1.796875 C 3.53125 -1.523438 3.75 -1.289062 4 -1.09375 C 4.25 -0.894531 4.539062 -0.738281 4.875 -0.625 C 5.207031 -0.507812 5.585938 -0.453125 6.015625 -0.453125 C 6.367188 -0.453125 6.703125 -0.503906 7.015625 -0.609375 C 7.328125 -0.722656 7.609375 -0.867188 7.859375 -1.046875 C 8.117188 -1.234375 8.347656 -1.445312 8.546875 -1.6875 C 8.742188 -1.925781 8.914062 -2.171875 9.0625 -2.421875 C 9.0625 -2.453125 9.066406 -2.46875 9.078125 -2.46875 C 9.085938 -2.46875 9.109375 -2.46875 9.140625 -2.46875 L 9.453125 -2.46875 C 9.460938 -2.46875 9.472656 -2.460938 9.484375 -2.453125 C 9.503906 -2.441406 9.515625 -2.421875 9.515625 -2.390625 C 9.515625 -2.367188 9.503906 -2.332031 9.484375 -2.28125 C 9.460938 -2.226562 9.441406 -2.1875 9.421875 -2.15625 L 8.5625 -0.234375 C 8.550781 -0.222656 8.535156 -0.210938 8.515625 -0.203125 C 8.503906 -0.191406 8.492188 -0.1875 8.484375 -0.1875 C 8.378906 -0.1875 8.304688 -0.195312 8.265625 -0.21875 C 8.222656 -0.238281 8.179688 -0.25 8.140625 -0.25 C 8.015625 -0.25 7.847656 -0.222656 7.640625 -0.171875 C 7.429688 -0.128906 7.207031 -0.0820312 6.96875 -0.03125 C 6.726562 0.0078125 6.484375 0.0507812 6.234375 0.09375 C 5.992188 0.144531 5.773438 0.171875 5.578125 0.171875 C 5.140625 0.171875 4.710938 0.117188 4.296875 0.015625 C 3.878906 -0.078125 3.488281 -0.210938 3.125 -0.390625 C 2.757812 -0.578125 2.425781 -0.800781 2.125 -1.0625 C 1.820312 -1.332031 1.5625 -1.632812 1.34375 -1.96875 C 1.125 -2.300781 0.953125 -2.671875 0.828125 -3.078125 C 0.710938 -3.484375 0.65625 -3.914062 0.65625 -4.375 Z M 0.65625 -4.375 "/></g></g><g transform="translate(68.27947, 12.94954)"><g><path d="M 0.859375 -0.171875 C 0.804688 -0.171875 0.769531 -0.210938 0.75 -0.296875 C 0.707031 -0.691406 0.671875 -1 0.640625 -1.21875 C 0.617188 -1.4375 0.601562 -1.597656 0.59375 -1.703125 C 0.582031 -1.816406 0.578125 -1.890625 0.578125 -1.921875 C 0.578125 -1.953125 0.578125 -1.972656 0.578125 -1.984375 C 0.578125 -2.035156 0.597656 -2.085938 0.640625 -2.140625 C 0.679688 -2.191406 0.726562 -2.21875 0.78125 -2.21875 C 0.820312 -2.21875 0.867188 -2.191406 0.921875 -2.140625 C 0.972656 -2.097656 1.019531 -2.039062 1.0625 -1.96875 C 1.101562 -1.90625 1.140625 -1.835938 1.171875 -1.765625 C 1.203125 -1.703125 1.222656 -1.65625 1.234375 -1.625 C 1.335938 -1.394531 1.453125 -1.203125 1.578125 -1.046875 C 1.710938 -0.890625 1.859375 -0.757812 2.015625 -0.65625 C 2.179688 -0.5625 2.367188 -0.492188 2.578125 -0.453125 C 2.785156 -0.410156 3.019531 -0.390625 3.28125 -0.390625 C 3.726562 -0.390625 4.078125 -0.492188 4.328125 -0.703125 C 4.578125 -0.921875 4.703125 -1.269531 4.703125 -1.75 C 4.703125 -2.019531 4.640625 -2.265625 4.515625 -2.484375 C 4.398438 -2.710938 4.242188 -2.921875 4.046875 -3.109375 C 3.859375 -3.304688 3.640625 -3.488281 3.390625 -3.65625 C 3.148438 -3.832031 2.898438 -4.003906 2.640625 -4.171875 C 2.378906 -4.347656 2.125 -4.53125 1.875 -4.71875 C 1.625 -4.914062 1.398438 -5.128906 1.203125 -5.359375 C 1.015625 -5.585938 0.859375 -5.84375 0.734375 -6.125 C 0.617188 -6.40625 0.5625 -6.722656 0.5625 -7.078125 C 0.5625 -7.296875 0.597656 -7.492188 0.671875 -7.671875 C 0.753906 -7.859375 0.859375 -8.023438 0.984375 -8.171875 C 1.117188 -8.328125 1.273438 -8.460938 1.453125 -8.578125 C 1.628906 -8.703125 1.8125 -8.804688 2 -8.890625 C 2.195312 -8.972656 2.398438 -9.035156 2.609375 -9.078125 C 2.816406 -9.117188 3.015625 -9.140625 3.203125 -9.140625 C 3.359375 -9.140625 3.515625 -9.125 3.671875 -9.09375 C 3.828125 -9.070312 3.984375 -9.039062 4.140625 -9 C 4.296875 -8.957031 4.445312 -8.914062 4.59375 -8.875 C 4.75 -8.832031 4.90625 -8.789062 5.0625 -8.75 L 5.46875 -8.796875 C 5.507812 -8.796875 5.535156 -8.78125 5.546875 -8.75 C 5.554688 -8.71875 5.566406 -8.6875 5.578125 -8.65625 L 5.75 -7.1875 C 5.75 -7.164062 5.722656 -7.148438 5.671875 -7.140625 C 5.617188 -7.128906 5.578125 -7.125 5.546875 -7.125 C 5.515625 -7.125 5.472656 -7.125 5.421875 -7.125 C 5.378906 -7.132812 5.351562 -7.144531 5.34375 -7.15625 C 5.332031 -7.164062 5.316406 -7.191406 5.296875 -7.234375 C 5.273438 -7.273438 5.253906 -7.316406 5.234375 -7.359375 C 5.210938 -7.410156 5.191406 -7.460938 5.171875 -7.515625 C 5.148438 -7.566406 5.125 -7.609375 5.09375 -7.640625 C 4.894531 -7.953125 4.640625 -8.1875 4.328125 -8.34375 C 4.015625 -8.5 3.664062 -8.578125 3.28125 -8.578125 C 3.125 -8.578125 2.972656 -8.554688 2.828125 -8.515625 C 2.679688 -8.472656 2.554688 -8.410156 2.453125 -8.328125 C 2.347656 -8.253906 2.265625 -8.15625 2.203125 -8.03125 C 2.140625 -7.90625 2.109375 -7.753906 2.109375 -7.578125 C 2.109375 -7.316406 2.164062 -7.082031 2.28125 -6.875 C 2.40625 -6.664062 2.566406 -6.46875 2.765625 -6.28125 C 2.960938 -6.101562 3.1875 -5.925781 3.4375 -5.75 C 3.6875 -5.582031 3.9375 -5.410156 4.1875 -5.234375 C 4.445312 -5.054688 4.703125 -4.863281 4.953125 -4.65625 C 5.203125 -4.457031 5.425781 -4.234375 5.625 -3.984375 C 5.820312 -3.742188 5.976562 -3.472656 6.09375 -3.171875 C 6.21875 -2.878906 6.28125 -2.546875 6.28125 -2.171875 C 6.28125 -1.929688 6.234375 -1.703125 6.140625 -1.484375 C 6.054688 -1.273438 5.941406 -1.082031 5.796875 -0.90625 C 5.648438 -0.726562 5.476562 -0.570312 5.28125 -0.4375 C 5.082031 -0.300781 4.867188 -0.1875 4.640625 -0.09375 C 4.421875 -0.0078125 4.191406 0.0507812 3.953125 0.09375 C 3.710938 0.144531 3.484375 0.171875 3.265625 0.171875 C 2.972656 0.171875 2.722656 0.148438 2.515625 0.109375 C 2.304688 0.0664062 2.125 0.0195312 1.96875 -0.03125 C 1.8125 -0.0820312 1.679688 -0.128906 1.578125 -0.171875 C 1.472656 -0.210938 1.382812 -0.234375 1.3125 -0.234375 C 1.289062 -0.234375 1.273438 -0.234375 1.265625 -0.234375 Z M 0.859375 -0.171875 "/></g></g></g></g></g></g><g clip-path="url(#c06e4b73b6)"><path fill="#86c023" d="M 33.054688 14.332031 C 39.847656 14.332031 46.152344 16.40625 51.378906 19.953125 C 46.921875 17.671875 41.875 16.386719 36.527344 16.386719 C 18.492188 16.386719 3.875 31.007812 3.875 49.039062 C 3.875 60.285156 9.558594 70.199219 18.207031 76.070312 C 7.636719 70.664062 0.40625 59.667969 0.40625 46.984375 C 0.402344 28.949219 15.023438 14.332031 33.054688 14.332031 " fill-opacity="1" fill-rule="evenodd"/></g><g clip-path="url(#68eb67b58b)"><path fill="#86c023" d="M 66.847656 55.429688 C 63.902344 69.472656 51.449219 80.023438 36.527344 80.023438 C 19.417969 80.023438 5.546875 66.152344 5.546875 49.039062 C 5.546875 45.640625 6.09375 42.371094 7.105469 39.3125 C 6.675781 41.371094 6.445312 43.507812 6.445312 45.699219 C 6.445312 62.808594 20.316406 76.679688 37.425781 76.679688 C 51.136719 76.679688 62.769531 67.773438 66.847656 55.429688 " fill-opacity="1" fill-rule="evenodd"/></g><path fill="#86c023" d="M 25.828125 20.648438 C 25.828125 20.648438 32.886719 17.925781 35.566406 22.109375 C 38.25 26.292969 33.511719 41.277344 48.835938 37.449219 C 64.164062 33.621094 67.792969 39.246094 67.792969 39.246094 C 67.792969 39.246094 72.074219 0.464844 37.511719 16.164062 C 37.511719 16.164062 55.480469 18.042969 62.5625 29.390625 C 51.699219 18.183594 34.574219 16 25.828125 20.648438 " fill-opacity="1" fill-rule="evenodd"/></g></g></svg>