<svg xmlns="http://www.w3.org/2000/svg" xmlns:xlink="http://www.w3.org/1999/xlink" width="396" zoomAndPan="magnify" viewBox="0 0 297 50.999998" height="68" preserveAspectRatio="xMidYMid meet" version="1.0"><defs><g/><clipPath id="6f2d0c7f82"><rect x="0" width="139" y="0" height="38"/></clipPath></defs><g transform="matrix(1, 0, 0, 1, 79, 6)"><g clip-path="url(#6f2d0c7f82)"><g fill="#000000" fill-opacity="1"><g transform="translate(0.864921, 28.513251)"><g><path d="M 11.910156 -9.105469 C 13.386719 -9.890625 14.222656 -11.195312 14.222656 -12.941406 C 14.222656 -15.429688 12.523438 -17.519531 8.882812 -17.519531 L 1.597656 -17.519531 L 1.597656 0 L 9.25 0 C 12.992188 0 14.9375 -1.96875 14.9375 -4.921875 C 14.9375 -6.667969 14.074219 -8.292969 11.910156 -9.105469 Z M 8.734375 -15.648438 C 11.074219 -15.648438 12.203125 -14.519531 12.203125 -12.867188 C 12.203125 -11 11.074219 -9.867188 8.734375 -9.867188 L 3.667969 -9.867188 L 3.667969 -15.648438 Z M 3.667969 -1.871094 L 3.667969 -8.023438 L 9.128906 -8.023438 C 11.464844 -8.023438 12.867188 -7.0625 12.867188 -4.921875 C 12.867188 -3.027344 11.613281 -1.871094 9.152344 -1.871094 Z M 3.667969 -1.871094 "/></g></g></g><g fill="#000000" fill-opacity="1"><g transform="translate(15.37921, 28.513251)"><g><path d="M 7.429688 -12.894531 C 5.363281 -12.894531 4.058594 -11.785156 3.347656 -10.457031 L 3.347656 -12.695312 L 1.476562 -12.695312 L 1.476562 0 L 3.445312 0 L 3.445312 -7.234375 C 3.445312 -9.695312 5.070312 -10.972656 7.601562 -10.972656 L 8.09375 -10.972656 L 8.09375 -12.867188 C 7.824219 -12.894531 7.628906 -12.894531 7.429688 -12.894531 Z M 7.429688 -12.894531 "/></g></g></g><g fill="#000000" fill-opacity="1"><g transform="translate(21.947099, 28.513251)"><g><path d="M 11.859375 -1.597656 C 11.394531 -1.597656 11.171875 -1.820312 11.171875 -2.214844 L 11.171875 -9.300781 C 11.171875 -11.441406 9.917969 -12.992188 6.398438 -12.992188 C 2.683594 -12.992188 1.378906 -11.246094 1.230469 -8.785156 L 3.199219 -8.785156 C 3.320312 -10.679688 4.230469 -11.292969 6.398438 -11.292969 C 8.5625 -11.292969 9.25 -10.628906 9.25 -9.300781 C 9.25 -8.167969 8.539062 -7.703125 7.257812 -7.554688 L 5.4375 -7.355469 C 1.945312 -6.988281 0.738281 -5.414062 0.738281 -3.421875 C 0.738281 -1.035156 2.460938 0.296875 5.214844 0.296875 C 7.039062 0.296875 8.464844 -0.394531 9.351562 -1.746094 C 9.449219 -0.542969 10.089844 0.0742188 11.492188 0.0742188 C 11.859375 0.0742188 12.253906 0.0507812 12.574219 0 L 12.574219 -1.597656 Z M 5.316406 -1.378906 C 3.566406 -1.378906 2.78125 -2.214844 2.78125 -3.46875 C 2.78125 -4.699219 3.421875 -5.488281 5.734375 -5.757812 L 7.578125 -5.980469 C 8.316406 -6.054688 8.859375 -6.226562 9.25 -6.519531 L 9.25 -5.019531 C 9.25 -2.511719 7.210938 -1.378906 5.316406 -1.378906 Z M 5.316406 -1.378906 "/></g></g></g><g fill="#000000" fill-opacity="1"><g transform="translate(33.73066, 28.513251)"><g><path d="M 7.332031 -12.992188 C 5.5625 -12.992188 4.183594 -12.082031 3.347656 -10.800781 L 3.347656 -12.695312 L 1.476562 -12.695312 L 1.476562 0 L 3.445312 0 L 3.445312 -7.183594 C 3.445312 -9.988281 5.289062 -11.21875 6.9375 -11.21875 C 8.761719 -11.21875 9.84375 -10.359375 9.84375 -8.390625 L 9.84375 0 L 11.8125 0 L 11.8125 -8.585938 C 11.8125 -11.394531 10.164062 -12.992188 7.332031 -12.992188 Z M 7.332031 -12.992188 "/></g></g></g><g fill="#000000" fill-opacity="1"><g transform="translate(45.98164, 28.513251)"><g><path d="M 11.023438 -10.875 C 10.0625 -12.230469 8.613281 -12.992188 6.765625 -12.992188 C 3.199219 -12.992188 0.859375 -10.410156 0.859375 -6.347656 C 0.859375 -2.289062 3.199219 0.296875 6.765625 0.296875 C 8.660156 0.296875 10.164062 -0.515625 11.121094 -1.96875 L 11.121094 0 L 12.992188 0 L 12.992188 -17.519531 L 11.023438 -17.519531 Z M 7.011719 -1.476562 C 4.550781 -1.476562 2.929688 -3.175781 2.929688 -6.25 C 2.929688 -9.324219 4.550781 -11.21875 7.011719 -11.21875 C 9.472656 -11.21875 11.097656 -9.425781 11.097656 -6.347656 C 11.097656 -3.273438 9.472656 -1.476562 7.011719 -1.476562 Z M 7.011719 -1.476562 "/></g></g></g><g fill="#000000" fill-opacity="1"><g transform="translate(59.413478, 28.513251)"><g><path d="M 6.125 -15.847656 L 7.257812 -15.847656 L 7.257812 -17.519531 C 6.964844 -17.542969 6.371094 -17.570312 6.003906 -17.570312 C 3.492188 -17.570312 2.460938 -16.238281 2.460938 -14 L 2.460938 -12.695312 L 0.367188 -12.695312 L 0.367188 -10.972656 L 2.460938 -10.972656 L 2.460938 0 L 4.429688 0 L 4.429688 -10.972656 L 7.136719 -10.972656 L 7.136719 -12.695312 L 4.429688 -12.695312 L 4.429688 -14.050781 C 4.429688 -15.207031 4.996094 -15.847656 6.125 -15.847656 Z M 6.125 -15.847656 "/></g></g></g><g fill="#000000" fill-opacity="1"><g transform="translate(65.267962, 28.513251)"><g><path d="M 7.011719 0.296875 C 10.582031 0.296875 13.164062 -2.289062 13.164062 -6.347656 C 13.164062 -10.410156 10.582031 -12.992188 7.011719 -12.992188 C 3.445312 -12.992188 0.859375 -10.410156 0.859375 -6.347656 C 0.859375 -2.289062 3.445312 0.296875 7.011719 0.296875 Z M 7.011719 -1.476562 C 4.550781 -1.476562 2.929688 -3.273438 2.929688 -6.347656 C 2.929688 -9.425781 4.550781 -11.21875 7.011719 -11.21875 C 9.472656 -11.21875 11.097656 -9.425781 11.097656 -6.347656 C 11.097656 -3.273438 9.472656 -1.476562 7.011719 -1.476562 Z M 7.011719 -1.476562 "/></g></g></g><g fill="#000000" fill-opacity="1"><g transform="translate(78.256979, 28.513251)"><g><path d="M 7.429688 -12.894531 C 5.363281 -12.894531 4.058594 -11.785156 3.347656 -10.457031 L 3.347656 -12.695312 L 1.476562 -12.695312 L 1.476562 0 L 3.445312 0 L 3.445312 -7.234375 C 3.445312 -9.695312 5.070312 -10.972656 7.601562 -10.972656 L 8.09375 -10.972656 L 8.09375 -12.867188 C 7.824219 -12.894531 7.628906 -12.894531 7.429688 -12.894531 Z M 7.429688 -12.894531 "/></g></g></g><g fill="#000000" fill-opacity="1"><g transform="translate(84.824867, 28.513251)"><g><path d="M 11.859375 -1.597656 C 11.394531 -1.597656 11.171875 -1.820312 11.171875 -2.214844 L 11.171875 -9.300781 C 11.171875 -11.441406 9.917969 -12.992188 6.398438 -12.992188 C 2.683594 -12.992188 1.378906 -11.246094 1.230469 -8.785156 L 3.199219 -8.785156 C 3.320312 -10.679688 4.230469 -11.292969 6.398438 -11.292969 C 8.5625 -11.292969 9.25 -10.628906 9.25 -9.300781 C 9.25 -8.167969 8.539062 -7.703125 7.257812 -7.554688 L 5.4375 -7.355469 C 1.945312 -6.988281 0.738281 -5.414062 0.738281 -3.421875 C 0.738281 -1.035156 2.460938 0.296875 5.214844 0.296875 C 7.039062 0.296875 8.464844 -0.394531 9.351562 -1.746094 C 9.449219 -0.542969 10.089844 0.0742188 11.492188 0.0742188 C 11.859375 0.0742188 12.253906 0.0507812 12.574219 0 L 12.574219 -1.597656 Z M 5.316406 -1.378906 C 3.566406 -1.378906 2.78125 -2.214844 2.78125 -3.46875 C 2.78125 -4.699219 3.421875 -5.488281 5.734375 -5.757812 L 7.578125 -5.980469 C 8.316406 -6.054688 8.859375 -6.226562 9.25 -6.519531 L 9.25 -5.019531 C 9.25 -2.511719 7.210938 -1.378906 5.316406 -1.378906 Z M 5.316406 -1.378906 "/></g></g></g><g fill="#000000" fill-opacity="1"><g transform="translate(96.362363, 28.513251)"><g><path d="M 11.121094 -10.851562 C 10.164062 -12.203125 8.660156 -12.992188 6.765625 -12.992188 C 3.199219 -12.992188 0.859375 -10.410156 0.859375 -6.347656 C 0.859375 -2.289062 3.199219 0.296875 6.765625 0.296875 C 8.585938 0.296875 10.0625 -0.441406 11.023438 -1.722656 L 11.023438 -0.492188 C 11.023438 2.140625 9.621094 3.445312 7.085938 3.445312 C 5.09375 3.445312 3.886719 2.632812 3.640625 1.035156 L 1.671875 1.035156 C 1.945312 3.492188 3.839844 5.117188 7.085938 5.117188 C 11.097656 5.117188 12.992188 2.804688 12.992188 -0.492188 L 12.992188 -12.695312 L 11.121094 -12.695312 Z M 7.011719 -1.476562 C 4.550781 -1.476562 2.929688 -3.371094 2.929688 -6.347656 C 2.929688 -9.324219 4.550781 -11.21875 7.011719 -11.21875 C 9.472656 -11.21875 11.097656 -9.425781 11.097656 -6.347656 C 11.097656 -3.273438 9.472656 -1.476562 7.011719 -1.476562 Z M 7.011719 -1.476562 "/></g></g></g><g fill="#000000" fill-opacity="1"><g transform="translate(109.794201, 28.513251)"><g><path d="M 6.765625 0.296875 C 9.792969 0.296875 11.613281 -1.476562 12.230469 -3.863281 L 10.1875 -3.863281 C 9.742188 -2.4375 8.613281 -1.5 6.816406 -1.5 C 4.601562 -1.5 3.101562 -2.804688 2.902344 -5.660156 L 12.550781 -5.660156 L 12.550781 -6.347656 C 12.550781 -9.988281 10.507812 -12.992188 6.71875 -12.992188 C 3.199219 -12.992188 0.859375 -10.335938 0.859375 -6.347656 C 0.859375 -2.238281 3.296875 0.296875 6.765625 0.296875 Z M 2.953125 -7.429688 C 3.273438 -9.941406 4.722656 -11.195312 6.71875 -11.195312 C 8.980469 -11.195312 10.234375 -9.523438 10.433594 -7.429688 Z M 2.953125 -7.429688 "/></g></g></g><g fill="#f75000" fill-opacity="1"><g transform="translate(122.17323, 18.076852)"><g><path d="M 4.222656 -7.617188 L 2.65625 -7.617188 L 2.65625 -9.773438 L 1.476562 -9.773438 L 1.476562 -7.617188 L 0.222656 -7.617188 L 0.222656 -6.585938 L 1.476562 -6.585938 L 1.476562 -1.550781 C 1.476562 -0.382812 2.199219 0.03125 3.378906 0.03125 C 3.617188 0.03125 3.925781 0.015625 4.222656 0 L 4.222656 -1.003906 L 3.527344 -1.003906 C 2.847656 -1.003906 2.65625 -1.253906 2.65625 -1.652344 L 2.65625 -6.585938 L 4.222656 -6.585938 Z M 4.222656 -7.617188 "/></g></g></g><g fill="#f75000" fill-opacity="1"><g transform="translate(125.72924, 18.076852)"><g><path d="M 8.902344 -7.792969 C 7.824219 -7.792969 7.027344 -7.203125 6.554688 -6.363281 C 6.1875 -7.203125 5.417969 -7.792969 4.207031 -7.792969 C 3.1875 -7.792969 2.464844 -7.277344 2.007812 -6.496094 L 2.007812 -7.617188 L 0.886719 -7.617188 L 0.886719 0 L 2.066406 0 L 2.066406 -4.164062 C 2.066406 -5.992188 3.085938 -6.730469 4.015625 -6.730469 C 5.003906 -6.730469 5.609375 -6.230469 5.609375 -5.050781 L 5.609375 0 L 6.789062 0 L 6.789062 -4.164062 C 6.789062 -5.992188 7.78125 -6.730469 8.738281 -6.730469 C 9.742188 -6.730469 10.332031 -6.230469 10.332031 -5.050781 L 10.332031 0 L 11.515625 0 L 11.515625 -5.167969 C 11.515625 -6.644531 10.671875 -7.792969 8.902344 -7.792969 Z M 8.902344 -7.792969 "/></g></g></g></g></g></svg>