<svg width="32" height="32" viewBox="0 0 32 32" fill="none" xmlns="http://www.w3.org/2000/svg">
<path d="M13.9333 17.3L15.6667 19.0333C15.9111 19.2778 16.2222 19.4 16.6 19.4C16.9778 19.4 17.2889 19.2778 17.5333 19.0333L21.3333 15.2333V16.0333C21.3333 16.4111 21.4613 16.7222 21.7173 16.9667C21.9733 17.2111 22.2898 17.3333 22.6667 17.3333C23.0436 17.3333 23.3604 17.2058 23.6173 16.9507C23.8742 16.6956 24.0018 16.3787 24 16V12C24 11.6222 23.872 11.3058 23.616 11.0507C23.36 10.7956 23.0436 10.6676 22.6667 10.6667H18.6333C18.2556 10.6667 17.9444 10.7947 17.7 11.0507C17.4556 11.3067 17.3333 11.6231 17.3333 12C17.3333 12.3769 17.4613 12.6938 17.7173 12.9507C17.9733 13.2076 18.2898 13.3351 18.6667 13.3333H19.4333L16.6 16.2L14.8667 14.4667C14.6222 14.2 14.3111 14.0667 13.9333 14.0667C13.5556 14.0667 13.2444 14.2 13 14.4667L8.93333 18.5333C8.66667 18.7778 8.53333 19.0889 8.53333 19.4667C8.53333 19.8444 8.66667 20.1556 8.93333 20.4C9.17778 20.6667 9.48889 20.8 9.86667 20.8C10.2444 20.8 10.5556 20.6667 10.8 20.4L13.9333 17.3ZM6.66667 28C5.93333 28 5.30578 27.7391 4.784 27.2173C4.26222 26.6956 4.00089 26.0676 4 25.3333V6.66667C4 5.93333 4.26133 5.30578 4.784 4.784C5.30667 4.26222 5.93422 4.00089 6.66667 4H25.3333C26.0667 4 26.6947 4.26133 27.2173 4.784C27.74 5.30667 28.0009 5.93422 28 6.66667V25.3333C28 26.0667 27.7391 26.6947 27.2173 27.2173C26.6956 27.74 26.0676 28.0009 25.3333 28H6.66667Z" fill="#F97316"/>
</svg>
