<svg width="32" height="32" viewBox="0 0 32 32" fill="none" xmlns="http://www.w3.org/2000/svg">
<g clip-path="url(#clip0_2079_219)">
<path fill-rule="evenodd" clip-rule="evenodd" d="M22.5989 0C23.3874 0 24.0274 0.64 24.0274 1.42857V3.30286C24.0274 3.68174 23.8769 4.0451 23.609 4.31301C23.3411 4.58092 22.9777 4.73143 22.5989 4.73143C22.22 4.73143 21.8566 4.58092 21.5887 4.31301C21.3208 4.0451 21.1703 3.68174 21.1703 3.30286V1.42857C21.1703 0.64 21.8103 0 22.5989 0ZM9.25029 19.9726C9.98871 19.9876 10.7227 19.8551 11.4093 19.5828C12.0959 19.3106 12.7212 18.9041 13.2488 18.3872C13.7763 17.8703 14.1954 17.2533 14.4815 16.5724C14.7676 15.8914 14.9149 15.1603 14.9149 14.4217C14.9149 13.6831 14.7676 12.952 14.4815 12.2711C14.1954 11.5901 13.7763 10.9732 13.2488 10.4562C12.7212 9.9393 12.0959 9.53282 11.4093 9.2606C10.7227 8.98837 9.98871 8.85587 9.25029 8.87086C7.79761 8.90034 6.41438 9.49811 5.39745 10.5359C4.38052 11.5737 3.81093 12.9687 3.81093 14.4217C3.81093 15.8747 4.38052 17.2698 5.39745 18.3075C6.41438 19.3453 7.79761 19.9431 9.25029 19.9726ZM0 31.0743C0.0381723 28.6458 1.02966 26.3298 2.76049 24.6259C4.49132 22.9221 6.82268 21.9671 9.25143 21.9671C11.6802 21.9671 14.0115 22.9221 15.7424 24.6259C17.4732 26.3298 18.4647 28.6458 18.5029 31.0743C18.5029 31.3198 18.4053 31.5553 18.2317 31.7289C18.0581 31.9025 17.8227 32 17.5771 32H0.925714C0.6802 32 0.444741 31.9025 0.271135 31.7289C0.0975303 31.5553 0 31.3198 0 31.0743ZM31.3509 5.69829C31.5079 5.59198 31.6422 5.45548 31.7459 5.29673C31.8497 5.13799 31.9208 4.96017 31.9551 4.77367C31.9894 4.58716 31.9862 4.39569 31.9457 4.21042C31.9053 4.02515 31.8283 3.84979 31.7194 3.69457C31.6104 3.53935 31.4717 3.40738 31.3112 3.30634C31.1507 3.2053 30.9717 3.13723 30.7847 3.10609C30.5976 3.07494 30.4062 3.08136 30.2217 3.12495C30.0371 3.16854 29.8631 3.24845 29.7097 3.36L28.176 4.43657C27.873 4.65698 27.6687 4.98762 27.6072 5.35723C27.5456 5.72684 27.6318 6.10583 27.847 6.41252C28.0623 6.71922 28.3894 6.92906 28.7579 6.99684C29.1265 7.06462 29.5069 6.9849 29.8171 6.77486L31.3509 5.69829ZM13.4926 3.70971C13.2752 4.01959 13.1898 4.40304 13.2549 4.77587C13.32 5.14871 13.5305 5.48046 13.84 5.69829L15.376 6.77486C15.5294 6.88641 15.7034 6.96631 15.8879 7.00991C16.0725 7.0535 16.2639 7.05991 16.451 7.02877C16.638 6.99763 16.817 6.92955 16.9775 6.82852C17.138 6.72748 17.2767 6.5955 17.3857 6.44028C17.4946 6.28506 17.5716 6.10971 17.612 5.92444C17.6525 5.73917 17.6557 5.5477 17.6214 5.36119C17.5871 5.17468 17.516 4.99687 17.4122 4.83812C17.3085 4.67938 17.1742 4.54287 17.0171 4.43657L15.4811 3.36C15.1713 3.14267 14.7878 3.05719 14.415 3.12233C14.0421 3.18747 13.7104 3.39791 13.4926 3.70743V3.70971ZM22.4914 6.49143C23.168 6.4848 23.8391 6.61171 24.4665 6.86491C25.0939 7.11811 25.6652 7.49261 26.1476 7.96695C26.63 8.4413 27.0141 9.00617 27.2778 9.6292C27.5416 10.2522 27.6798 10.9212 27.6846 11.5977C27.6617 13.472 26.5417 15.2549 24.864 16.0914V18.6354C24.8593 18.783 24.7976 18.923 24.6919 19.0261C24.5863 19.1293 24.4448 19.1875 24.2971 19.1886H20.896C20.7484 19.1875 20.6069 19.1293 20.5012 19.0261C20.3955 18.923 20.3339 18.783 20.3291 18.6354V16.1349C19.5223 15.7239 18.8376 15.108 18.3437 14.349C17.8499 13.59 17.5642 12.7145 17.5154 11.8103C17.4919 11.1341 17.6021 10.4599 17.8396 9.82631C18.0771 9.19275 18.4374 8.61229 18.8996 8.11819C19.3619 7.62409 19.9171 7.22605 20.5334 6.9469C21.1498 6.66775 21.8152 6.51297 22.4914 6.49143Z" fill="#F97316"/>
</g>
<defs>
<clipPath id="clip0_2079_219">
<rect width="32" height="32" fill="white"/>
</clipPath>
</defs>
</svg>
