<svg width="156" height="34" viewBox="0 0 156 34" fill="none" xmlns="http://www.w3.org/2000/svg">
<g clip-path="url(#clip0_2021_883)">
<mask id="mask0_2021_883" style="mask-type:luminance" maskUnits="userSpaceOnUse" x="0" y="0" width="34" height="34">
<path d="M33.6 0H0V33.6H33.6V0Z" fill="white"/>
</mask>
<g mask="url(#mask0_2021_883)">
<path d="M23.8151 26.4551H17.6666C17.6666 24.4305 19.3019 22.7906 21.3209 22.7906H23.8242C27.1314 22.7906 29.8905 20.1522 29.9453 16.8358C30.0002 13.4553 27.2685 10.6977 23.9155 10.6977C22.4538 10.6977 21.0469 11.2291 19.9506 12.191L11.9474 19.4101C10.4492 20.766 8.13778 20.6378 6.78564 19.1353L17.4016 9.56173C17.4382 9.52508 17.4838 9.48843 17.5204 9.45179L17.9042 9.13114C19.6125 7.77527 21.7321 7.0332 23.9155 7.0332C29.2784 7.0332 33.6272 11.4215 33.5997 16.7992C33.5723 22.1585 29.1505 26.4551 23.8151 26.4551Z" fill="white"/>
<path d="M9.57243 26.4551C4.20963 26.4551 -0.139095 22.0669 -0.111688 16.6892C-0.0842797 11.3299 4.33753 7.0332 9.68206 7.0332H15.8305C15.8305 9.05785 14.1952 10.6977 12.1762 10.6977H9.66379C6.35658 10.6977 3.59751 13.3361 3.5427 16.6526C3.48788 20.0331 6.21953 22.7906 9.57243 22.7906C11.0342 22.7906 12.4411 22.2593 13.5375 21.2973L21.5405 14.0782C23.0389 12.7224 25.3502 12.8506 26.7024 14.3531L15.6112 24.3573H15.5839C13.8755 25.7131 11.7651 26.4551 9.57243 26.4551Z" fill="white"/>
</g>
</g>
<path d="M45.8647 12.0507C46.5743 10.6795 47.5803 9.61577 48.8827 8.85951C50.1767 8.10325 51.7044 7.72513 53.466 7.72513C54.8017 7.72513 56.0206 7.98275 57.1226 8.498C58.2079 9.00494 59.0928 9.73211 59.7774 10.6795C60.4536 11.6186 60.8877 12.7114 61.0797 13.958H58.1369C57.8447 12.8195 57.2812 11.9261 56.4464 11.2779C55.6032 10.6296 54.568 10.3055 53.3407 10.3055C52.2387 10.3055 51.262 10.5839 50.4104 11.1407C49.5672 11.6892 48.9286 12.4538 48.4945 13.4344C48.0437 14.4483 47.8183 15.5744 47.8183 16.8127C47.8183 18.0509 48.0437 19.177 48.4945 20.1909C48.9369 21.1798 49.5756 21.9486 50.4104 22.497C51.2453 23.0455 52.222 23.3198 53.3407 23.3198C54.5847 23.3198 55.6157 22.9998 56.4338 22.3599C57.2603 21.7117 57.8197 20.8183 58.1119 19.6798H61.0547C60.8627 20.943 60.4327 22.04 59.7649 22.9707C59.0886 23.9098 58.212 24.6328 57.1351 25.1398C56.0665 25.6467 54.8435 25.9002 53.466 25.9002C51.7128 25.9002 50.185 25.5262 48.8827 24.7783C47.5887 24.0303 46.5827 22.9707 45.8647 21.5995C45.1551 20.2366 44.8003 18.641 44.8003 16.8127C44.8003 15.001 45.1551 13.4137 45.8647 12.0507Z" fill="white"/>
<path d="M63.5968 25.7506V7.87472H66.5521V23.1453H74.2661V25.7506H63.5968Z" fill="white"/>
<path d="M91.7352 16.8127C91.7352 18.5496 91.3678 20.1078 90.6332 21.4873C89.8985 22.8669 88.8717 23.9472 87.5526 24.7284C86.2336 25.5096 84.7225 25.9002 83.0194 25.9002C81.3247 25.9002 79.8178 25.5096 78.4987 24.7284C77.1713 23.9389 76.1403 22.8586 75.4056 21.4873C74.671 20.1078 74.3036 18.5496 74.3036 16.8127C74.3036 15.0758 74.671 13.5175 75.4056 12.138C76.1403 10.7668 77.1713 9.68641 78.4987 8.89691C79.8178 8.11572 81.3247 7.72513 83.0194 7.72513C84.7225 7.72513 86.2336 8.11572 87.5526 8.89691C88.8717 9.67809 89.8985 10.7585 90.6332 12.138C91.3678 13.5175 91.7352 15.0758 91.7352 16.8127ZM78.0479 20.1784C78.5238 21.1757 79.1958 21.9486 80.0641 22.497C80.924 23.0455 81.9091 23.3198 83.0194 23.3198C84.1381 23.3198 85.1274 23.0455 85.9873 22.497C86.8472 21.9486 87.515 21.1757 87.9909 20.1784C88.4751 19.1645 88.7172 18.0426 88.7172 16.8127C88.7172 15.591 88.4751 14.4733 87.9909 13.4594C87.515 12.4621 86.8472 11.6892 85.9873 11.1407C85.1107 10.5839 84.1214 10.3055 83.0194 10.3055C81.9258 10.3055 80.9406 10.5839 80.0641 11.1407C79.1958 11.6892 78.5238 12.4621 78.0479 13.4594C77.5637 14.4733 77.3216 15.591 77.3216 16.8127C77.3216 18.0426 77.5637 19.1645 78.0479 20.1784Z" fill="white"/>
<path d="M96.5564 19.9291C96.6399 20.9845 97.074 21.8322 97.8587 22.4721C98.6435 23.112 99.6537 23.432 100.889 23.432C101.983 23.432 102.868 23.1951 103.544 22.7214C104.22 22.2477 104.558 21.5995 104.558 20.7768C104.558 20.1784 104.375 19.7047 104.007 19.3557C103.64 18.9983 103.139 18.7282 102.505 18.5454C101.828 18.3459 100.939 18.1507 99.8373 17.9595C98.6602 17.7601 97.6667 17.4941 96.8569 17.1617C96.0221 16.821 95.3459 16.314 94.8283 15.6409C94.3107 14.9677 94.0519 14.0744 94.0519 12.9607C94.0519 11.9302 94.319 11.0202 94.8533 10.2307C95.4043 9.41631 96.1557 8.79303 97.1074 8.36088C98.0841 7.92042 99.1903 7.7002 100.426 7.7002C101.703 7.7002 102.851 7.93704 103.87 8.41074C104.871 8.87613 105.665 9.53266 106.249 10.3803C106.833 11.228 107.151 12.1796 107.201 13.235H104.308C104.208 12.3208 103.803 11.5812 103.093 11.0161C102.4 10.4593 101.511 10.1809 100.426 10.1809C99.3907 10.1809 98.56 10.4053 97.9339 10.854C97.3077 11.3028 96.9947 11.9386 96.9947 12.7613C96.9947 13.3347 97.1783 13.7918 97.5457 14.1325C97.913 14.4733 98.4056 14.7309 99.0233 14.9054C99.6244 15.0799 100.505 15.2669 101.666 15.4664C102.801 15.6575 103.799 15.9276 104.659 16.2766C105.493 16.6091 106.178 17.1118 106.712 17.785C107.247 18.4581 107.514 19.3349 107.514 20.4153C107.514 21.4624 107.23 22.4056 106.662 23.245C106.103 24.076 105.318 24.7284 104.308 25.2021C103.314 25.6675 102.167 25.9002 100.864 25.9002C99.4366 25.9002 98.1885 25.6467 97.1199 25.1398C96.043 24.6328 95.2039 23.9223 94.6029 23.0081C93.9851 22.0774 93.672 21.0344 93.6637 19.8792L96.5564 19.9291Z" fill="white"/>
<path d="M112.949 7.87472V18.2462C112.949 19.9166 113.282 21.1798 113.95 22.0358C114.61 22.8752 115.645 23.2949 117.056 23.2949C118.484 23.2949 119.531 22.8752 120.199 22.0358C120.875 21.1881 121.213 19.9249 121.213 18.2462V7.87472H124.156V18.0966C124.156 20.6563 123.555 22.5968 122.353 23.9181C121.151 25.2395 119.385 25.9002 117.056 25.9002C114.752 25.9002 112.999 25.2395 111.796 23.9181C110.603 22.6051 110.006 20.6646 110.006 18.0966V7.87472H112.949Z" fill="white"/>
<path d="M134.412 7.87472C135.665 7.87472 136.758 8.11157 137.693 8.58526C138.653 9.06727 139.388 9.72796 139.897 10.5673C140.415 11.415 140.674 12.4164 140.674 13.5716C140.674 14.7766 140.356 15.8237 139.722 16.7129C139.071 17.6271 138.228 18.267 137.192 18.6327L140.987 25.7506H137.693L134.287 19.2684H130.292V25.7506H127.337V7.87472H134.412ZM130.292 16.7129H134.187C135.247 16.7129 136.09 16.4262 136.717 15.8528C137.334 15.2877 137.643 14.5273 137.643 13.5716C137.643 12.6159 137.334 11.8554 136.717 11.2903C136.09 10.7169 135.247 10.4302 134.187 10.4302H130.292V16.7129Z" fill="white"/>
<path d="M143.366 7.87472H155.087V10.4801H146.321V15.4414H153.547V17.9595H146.321V23.1453H155.4V25.7506H143.366V7.87472Z" fill="white"/>
<defs>
<clipPath id="clip0_2021_883">
<rect width="33.6" height="33.6" fill="white"/>
</clipPath>
</defs>
</svg>
