<svg width="198" height="34" viewBox="0 0 198 34" fill="none" xmlns="http://www.w3.org/2000/svg">
<g clip-path="url(#clip0_2020_81)">
<mask id="mask0_2020_81" style="mask-type:luminance" maskUnits="userSpaceOnUse" x="0" y="0" width="34" height="34">
<path d="M33.6 0.199951H0V33.7999H33.6V0.199951Z" fill="white"/>
</mask>
<g mask="url(#mask0_2020_81)">
<path d="M23.8151 26.6551H17.6666C17.6666 24.6305 19.3019 22.9906 21.3209 22.9906H23.8242C27.1314 22.9906 29.8905 20.3522 29.9453 17.0358C30.0002 13.6553 27.2685 10.8977 23.9155 10.8977C22.4538 10.8977 21.0469 11.429 19.9506 12.391L11.9474 19.6101C10.4492 20.9659 8.13778 20.8377 6.78564 19.3352L17.4016 9.76168C17.4382 9.72503 17.4838 9.68838 17.5204 9.65174L17.9042 9.33109C19.6125 7.97522 21.7321 7.23315 23.9155 7.23315C29.2784 7.23315 33.6272 11.6214 33.5997 16.9991C33.5723 22.3584 29.1505 26.6551 23.8151 26.6551Z" fill="#1C1917"/>
<path d="M9.57243 26.6551C4.20963 26.6551 -0.139095 22.2668 -0.111688 16.8891C-0.0842797 11.5298 4.33753 7.23315 9.68206 7.23315H15.8305C15.8305 9.2578 14.1952 10.8977 12.1762 10.8977H9.66379C6.35658 10.8977 3.59751 13.5361 3.5427 16.8525C3.48788 20.233 6.21953 22.9906 9.57243 22.9906C11.0342 22.9906 12.4411 22.4592 13.5375 21.4973L21.5405 14.2782C23.0389 12.9223 25.3502 13.0506 26.7024 14.553L15.6112 24.5572H15.5839C13.8755 25.9131 11.7651 26.6551 9.57243 26.6551Z" fill="#1C1917"/>
</g>
</g>
<path d="M45.8647 12.2505C46.5743 10.8792 47.5803 9.81547 48.8827 9.05922C50.1767 8.30296 51.7044 7.92483 53.466 7.92483C54.8017 7.92483 56.0206 8.18246 57.1226 8.69771C58.2079 9.20465 59.0928 9.93182 59.7774 10.8792C60.4536 11.8183 60.8877 12.9111 61.0797 14.1577H58.1369C57.8447 13.0192 57.2812 12.1258 56.4464 11.4776C55.6032 10.8294 54.568 10.5052 53.3407 10.5052C52.2387 10.5052 51.262 10.7836 50.4104 11.3405C49.5672 11.8889 48.9286 12.6535 48.4945 13.6341C48.0437 14.648 47.8183 15.7741 47.8183 17.0124C47.8183 18.2506 48.0437 19.3767 48.4945 20.3906C48.9369 21.3795 49.5756 22.1483 50.4104 22.6968C51.2453 23.2452 52.222 23.5195 53.3407 23.5195C54.5847 23.5195 55.6157 23.1995 56.4338 22.5596C57.2603 21.9114 57.8197 21.018 58.1119 19.8795H61.0547C60.8627 21.1427 60.4327 22.2397 59.7649 23.1705C59.0886 24.1095 58.212 24.8326 57.1351 25.3395C56.0665 25.8464 54.8435 26.0999 53.466 26.0999C51.7128 26.0999 50.185 25.7259 48.8827 24.978C47.5887 24.23 46.5827 23.1705 45.8647 21.7992C45.1551 20.4363 44.8003 18.8407 44.8003 17.0124C44.8003 15.2007 45.1551 13.6134 45.8647 12.2505Z" fill="#1C1917"/>
<path d="M63.5968 25.9503V8.07442H66.5521V23.345H74.2661V25.9503H63.5968Z" fill="#1C1917"/>
<path d="M91.7352 17.0124C91.7352 18.7493 91.3678 20.3075 90.6332 21.687C89.8985 23.0666 88.8717 24.1469 87.5526 24.9281C86.2336 25.7093 84.7225 26.0999 83.0194 26.0999C81.3247 26.0999 79.8178 25.7093 78.4987 24.9281C77.1713 24.1386 76.1403 23.0583 75.4056 21.687C74.671 20.3075 74.3036 18.7493 74.3036 17.0124C74.3036 15.2755 74.671 13.7173 75.4056 12.3377C76.1403 10.9665 77.1713 9.88611 78.4987 9.09661C79.8178 8.31543 81.3247 7.92483 83.0194 7.92483C84.7225 7.92483 86.2336 8.31543 87.5526 9.09661C88.8717 9.8778 89.8985 10.9582 90.6332 12.3377C91.3678 13.7173 91.7352 15.2755 91.7352 17.0124ZM78.0479 20.3781C78.5238 21.3754 79.1958 22.1483 80.0641 22.6968C80.924 23.2452 81.9091 23.5195 83.0194 23.5195C84.1381 23.5195 85.1274 23.2452 85.9873 22.6968C86.8472 22.1483 87.515 21.3754 87.9909 20.3781C88.4751 19.3642 88.7172 18.2423 88.7172 17.0124C88.7172 15.7907 88.4751 14.673 87.9909 13.6591C87.515 12.6618 86.8472 11.8889 85.9873 11.3405C85.1107 10.7836 84.1214 10.5052 83.0194 10.5052C81.9258 10.5052 80.9406 10.7836 80.0641 11.3405C79.1958 11.8889 78.5238 12.6618 78.0479 13.6591C77.5637 14.673 77.3216 15.7907 77.3216 17.0124C77.3216 18.2423 77.5637 19.3642 78.0479 20.3781Z" fill="#1C1917"/>
<path d="M96.5564 20.1288C96.6399 21.1842 97.074 22.0319 97.8587 22.6718C98.6435 23.3117 99.6537 23.6317 100.889 23.6317C101.983 23.6317 102.868 23.3948 103.544 22.9211C104.22 22.4474 104.558 21.7992 104.558 20.9765C104.558 20.3781 104.375 19.9044 104.007 19.5554C103.64 19.198 103.139 18.9279 102.505 18.7451C101.828 18.5457 100.939 18.3504 99.8373 18.1592C98.6602 17.9598 97.6667 17.6938 96.8569 17.3614C96.0221 17.0207 95.3459 16.5137 94.8283 15.8406C94.3107 15.1674 94.0519 14.2741 94.0519 13.1605C94.0519 12.1299 94.319 11.2199 94.8533 10.4305C95.4043 9.61602 96.1557 8.99273 97.1074 8.56059C98.0841 8.12013 99.1903 7.8999 100.426 7.8999C101.703 7.8999 102.851 8.13675 103.87 8.61045C104.871 9.07584 105.665 9.73237 106.249 10.58C106.833 11.4277 107.151 12.3793 107.201 13.4347H104.308C104.208 12.5205 103.803 11.7809 103.093 11.2158C102.4 10.659 101.511 10.3806 100.426 10.3806C99.3907 10.3806 98.56 10.605 97.9339 11.0537C97.3077 11.5025 96.9947 12.1383 96.9947 12.961C96.9947 13.5344 97.1783 13.9915 97.5457 14.3322C97.913 14.673 98.4056 14.9306 99.0233 15.1051C99.6244 15.2796 100.505 15.4666 101.666 15.6661C102.801 15.8572 103.799 16.1273 104.659 16.4763C105.493 16.8088 106.178 17.3115 106.712 17.9847C107.247 18.6578 107.514 19.5346 107.514 20.615C107.514 21.6621 107.23 22.6053 106.662 23.4447C106.103 24.2757 105.318 24.9281 104.308 25.4018C103.314 25.8672 102.167 26.0999 100.864 26.0999C99.4366 26.0999 98.1885 25.8464 97.1199 25.3395C96.043 24.8326 95.2039 24.122 94.6029 23.2078C93.9851 22.2771 93.672 21.2341 93.6637 20.0789L96.5564 20.1288Z" fill="#1C1917"/>
<path d="M112.949 8.07442V18.4459C112.949 20.1163 113.282 21.3795 113.95 22.2355C114.61 23.0749 115.645 23.4946 117.056 23.4946C118.484 23.4946 119.531 23.0749 120.199 22.2355C120.875 21.3878 121.213 20.1247 121.213 18.4459V8.07442H124.156V18.2963C124.156 20.856 123.555 22.7965 122.353 24.1178C121.151 25.4392 119.385 26.0999 117.056 26.0999C114.752 26.0999 112.999 25.4392 111.796 24.1178C110.603 22.8048 110.006 20.8643 110.006 18.2963V8.07442H112.949Z" fill="#1C1917"/>
<path d="M134.412 8.07442C135.665 8.07442 136.758 8.31127 137.693 8.78497C138.653 9.26698 139.388 9.92766 139.897 10.767C140.415 11.6147 140.674 12.6161 140.674 13.7713C140.674 14.9763 140.356 16.0234 139.722 16.9126C139.071 17.8268 138.228 18.4667 137.192 18.8324L140.987 25.9503H137.693L134.287 19.4681H130.292V25.9503H127.337V8.07442H134.412ZM130.292 16.9126H134.187C135.247 16.9126 136.09 16.6259 136.717 16.0525C137.334 15.4874 137.643 14.727 137.643 13.7713C137.643 12.8156 137.334 12.0552 136.717 11.49C136.09 10.9166 135.247 10.6299 134.187 10.6299H130.292V16.9126Z" fill="#1C1917"/>
<path d="M143.366 8.07442H155.087V10.6798H146.321V15.6411H153.547V18.1592H146.321V23.345H155.4V25.9503H143.366V8.07442Z" fill="#1C1917"/>
<rect x="162.15" y="7.75" width="34.5" height="18.5" rx="5.25" stroke="#1C1917" stroke-width="1.5"/>
<path d="M168.519 22V11.8182H170.055V20.6776H174.668V22H168.519ZM175.742 22V14.3636H177.228V22H175.742ZM176.492 13.1854C176.234 13.1854 176.012 13.0992 175.826 12.9268C175.644 12.7512 175.553 12.5424 175.553 12.3004C175.553 12.0552 175.644 11.8464 175.826 11.674C176.012 11.4983 176.234 11.4105 176.492 11.4105C176.751 11.4105 176.971 11.4983 177.153 11.674C177.339 11.8464 177.432 12.0552 177.432 12.3004C177.432 12.5424 177.339 12.7512 177.153 12.9268C176.971 13.0992 176.751 13.1854 176.492 13.1854ZM182.232 14.3636V15.5568H178.061V14.3636H182.232ZM179.18 12.5341H180.666V19.7578C180.666 20.0462 180.71 20.2633 180.796 20.4091C180.882 20.5516 180.993 20.6494 181.129 20.7024C181.268 20.7521 181.419 20.777 181.581 20.777C181.701 20.777 181.805 20.7687 181.894 20.7521C181.984 20.7356 182.054 20.7223 182.103 20.7124L182.372 21.9403C182.286 21.9735 182.163 22.0066 182.004 22.0398C181.845 22.0762 181.646 22.0961 181.407 22.0994C181.016 22.1061 180.652 22.0365 180.313 21.8906C179.975 21.7448 179.702 21.5194 179.493 21.2145C179.284 20.9096 179.18 20.5268 179.18 20.0661V12.5341ZM186.526 22.1541C185.774 22.1541 185.126 21.9934 184.582 21.6719C184.042 21.3471 183.624 20.8913 183.329 20.3047C183.038 19.7147 182.892 19.0237 182.892 18.2315C182.892 17.4493 183.038 16.7599 183.329 16.1634C183.624 15.5668 184.035 15.1011 184.562 14.7663C185.093 14.4316 185.712 14.2642 186.422 14.2642C186.852 14.2642 187.27 14.3355 187.674 14.478C188.079 14.6205 188.442 14.8442 188.763 15.1491C189.085 15.4541 189.338 15.8501 189.524 16.3374C189.709 16.8213 189.802 17.4096 189.802 18.1023V18.6293H183.732V17.5156H188.346C188.346 17.1245 188.266 16.7782 188.107 16.4766C187.948 16.1716 187.724 15.9313 187.436 15.7557C187.151 15.58 186.816 15.4922 186.432 15.4922C186.014 15.4922 185.649 15.5949 185.338 15.8004C185.03 16.0026 184.791 16.2678 184.622 16.5959C184.456 16.9207 184.373 17.2737 184.373 17.6548V18.5249C184.373 19.0353 184.463 19.4695 184.642 19.8274C184.824 20.1854 185.078 20.4588 185.402 20.6477C185.727 20.8333 186.107 20.9261 186.541 20.9261C186.823 20.9261 187.08 20.8864 187.312 20.8068C187.544 20.724 187.744 20.6013 187.913 20.4389C188.082 20.2765 188.211 20.076 188.301 19.8374L189.708 20.0909C189.595 20.5052 189.393 20.8681 189.101 21.1797C188.813 21.4879 188.45 21.7282 188.013 21.9006C187.578 22.0696 187.083 22.1541 186.526 22.1541Z" fill="#1C1917"/>
<defs>
<clipPath id="clip0_2020_81">
<rect width="33.6" height="33.6" fill="white" transform="translate(0 0.199951)"/>
</clipPath>
</defs>
</svg>
