<svg width="1312" height="284" viewBox="0 0 1312 284" fill="none" xmlns="http://www.w3.org/2000/svg">
<g clip-path="url(#clip0_2021_873)">
<mask id="mask0_2021_873" style="mask-type:luminance" maskUnits="userSpaceOnUse" x="0" y="0" width="284" height="284">
<path d="M283.676 0H0V283.676H283.676V0Z" fill="white"/>
</mask>
<g mask="url(#mask0_2021_873)">
<path d="M201.064 223.354H149.155C149.155 206.26 162.961 192.415 180.007 192.415H201.142C229.063 192.415 252.358 170.14 252.82 142.14C253.283 113.599 230.221 90.3179 201.913 90.3179C189.572 90.3179 177.693 94.8041 168.438 102.926L100.869 163.874C88.2198 175.322 68.7052 174.239 57.2896 161.554L146.917 80.727C147.226 80.4176 147.611 80.1082 147.921 79.7988L151.16 77.0917C165.583 65.6445 183.478 59.3794 201.913 59.3794C247.19 59.3794 283.905 96.4286 283.674 141.831C283.442 187.078 246.11 223.354 201.064 223.354Z" fill="white"/>
<path d="M80.8176 223.354C35.5409 223.354 -1.17415 186.305 -0.94276 140.902C-0.711363 95.6551 36.6208 59.3794 81.7432 59.3794H133.653C133.653 76.4729 119.847 90.3179 102.801 90.3179H81.589C53.667 90.3179 30.373 112.593 29.9102 140.593C29.4474 169.134 52.51 192.415 80.8176 192.415C93.1589 192.415 105.037 187.929 114.293 179.807L181.861 118.859C194.511 107.412 214.025 108.494 225.441 121.179L131.802 205.642H131.571C117.147 217.089 99.3294 223.354 80.8176 223.354Z" fill="white"/>
</g>
</g>
<path d="M387.221 101.739C393.212 90.1623 401.705 81.1814 412.701 74.7966C423.626 68.4117 436.524 65.2193 451.396 65.2193C462.674 65.2193 472.964 67.3943 482.268 71.7445C491.431 76.0244 498.902 82.1637 504.682 90.1623C510.391 98.0908 514.056 107.317 515.677 117.842H490.832C488.365 108.229 483.607 100.687 476.559 95.2141C469.44 89.7414 460.7 87.005 450.339 87.005C441.035 87.005 432.789 89.3555 425.599 94.0564C418.48 98.6872 413.088 105.142 409.423 113.421C405.617 121.981 403.714 131.489 403.714 141.943C403.714 152.397 405.617 161.904 409.423 170.464C413.159 178.814 418.551 185.304 425.599 189.935C432.648 194.565 440.894 196.881 450.339 196.881C460.841 196.881 469.546 194.179 476.453 188.777C483.431 183.304 488.153 175.762 490.62 166.149H515.466C513.845 176.814 510.215 186.076 504.576 193.934C498.867 201.862 491.466 207.967 482.374 212.247C473.352 216.526 463.026 218.666 451.396 218.666C436.595 218.666 423.696 215.509 412.701 209.194C401.776 202.88 393.283 193.934 387.221 182.357C381.23 170.85 378.234 157.379 378.234 141.943C378.234 126.647 381.23 113.246 387.221 101.739Z" fill="white"/>
<path d="M536.928 217.404V66.4822H561.879V195.407H627.006V217.404H536.928Z" fill="white"/>
<path d="M774.493 141.943C774.493 156.607 771.392 169.763 765.189 181.41C758.986 193.057 750.317 202.178 739.181 208.773C728.044 215.369 715.287 218.666 700.908 218.666C686.6 218.666 673.878 215.369 662.741 208.773C651.534 202.108 642.83 192.987 636.627 181.41C630.424 169.763 627.323 156.607 627.323 141.943C627.323 127.279 630.424 114.123 636.627 102.476C642.83 90.8991 651.534 81.7778 662.741 75.1123C673.878 68.517 686.6 65.2193 700.908 65.2193C715.287 65.2193 728.044 68.517 739.181 75.1123C750.317 81.7077 758.986 90.8289 765.189 102.476C771.392 114.123 774.493 127.279 774.493 141.943ZM658.935 170.359C662.953 178.779 668.627 185.304 675.957 189.935C683.217 194.565 691.534 196.881 700.908 196.881C710.353 196.881 718.705 194.565 725.965 189.935C733.225 185.304 738.863 178.779 742.881 170.359C746.969 161.799 749.013 152.327 749.013 141.943C749.013 131.629 746.969 122.192 742.881 113.632C738.863 105.212 733.225 98.6872 725.965 94.0564C718.564 89.3555 710.212 87.005 700.908 87.005C691.675 87.005 683.358 89.3555 675.957 94.0564C668.627 98.6872 662.953 105.212 658.935 113.632C654.847 122.192 652.803 131.629 652.803 141.943C652.803 152.327 654.847 161.799 658.935 170.359Z" fill="white"/>
<path d="M815.197 168.254C815.902 177.165 819.567 184.322 826.192 189.724C832.818 195.127 841.346 197.828 851.778 197.828C861.011 197.828 868.483 195.828 874.192 191.829C879.901 187.83 882.755 182.357 882.755 175.411C882.755 170.359 881.205 166.36 878.104 163.413C875.002 160.396 870.773 158.116 865.417 156.572C859.707 154.888 852.201 153.239 842.897 151.625C832.959 149.941 824.571 147.696 817.734 144.89C810.686 142.013 804.977 137.733 800.607 132.05C796.237 126.367 794.052 118.824 794.052 109.422C794.052 100.722 796.307 93.039 800.818 86.3735C805.47 79.4975 811.814 74.2353 819.849 70.5868C828.096 66.8681 837.435 65.0088 847.866 65.0088C858.65 65.0088 868.342 67.0084 876.941 71.0078C885.399 74.9369 892.095 80.4798 897.028 87.6365C901.962 94.7931 904.641 102.827 905.064 111.738H880.641C879.795 104.02 876.377 97.7751 870.386 93.004C864.535 88.303 857.029 85.9525 847.866 85.9525C839.126 85.9525 832.113 87.8469 826.827 91.6358C821.541 95.4246 818.897 100.792 818.897 107.738C818.897 112.58 820.448 116.439 823.549 119.315C826.651 122.192 830.809 124.367 836.025 125.84C841.1 127.314 848.536 128.892 858.333 130.576C867.919 132.19 876.341 134.47 883.601 137.417C890.65 140.224 896.429 144.469 900.94 150.152C905.451 155.835 907.707 163.237 907.707 172.359C907.707 181.199 905.31 189.163 900.517 196.249C895.795 203.266 889.169 208.773 880.641 212.773C872.253 216.702 862.562 218.666 851.567 218.666C839.514 218.666 828.977 216.526 819.955 212.247C810.862 207.967 803.779 201.968 798.704 194.25C793.488 186.391 790.845 177.586 790.774 167.833L815.197 168.254Z" fill="white"/>
<path d="M953.591 66.4822V154.046C953.591 168.149 956.411 178.814 962.049 186.041C967.618 193.127 976.358 196.67 988.269 196.67C1000.32 196.67 1009.17 193.127 1014.81 186.041C1020.52 178.884 1023.37 168.219 1023.37 154.046V66.4822H1048.22V152.783C1048.22 174.393 1043.14 190.777 1032.99 201.933C1022.84 213.088 1007.93 218.666 988.269 218.666C968.816 218.666 954.014 213.088 943.865 201.933C933.786 190.847 928.746 174.464 928.746 152.783V66.4822H953.591Z" fill="white"/>
<path d="M1134.8 66.4822C1145.38 66.4822 1154.61 68.4819 1162.5 72.4812C1170.61 76.5507 1176.81 82.1286 1181.11 89.2151C1185.48 96.3718 1187.67 104.826 1187.67 114.579C1187.67 124.753 1184.99 133.593 1179.63 141.101C1174.13 148.819 1167.02 154.221 1158.28 157.309L1190.31 217.404H1162.5L1133.75 162.676H1100.02V217.404H1075.07V66.4822H1134.8ZM1100.02 141.101H1132.9C1141.85 141.101 1148.97 138.68 1154.26 133.839C1159.47 129.068 1162.08 122.648 1162.08 114.579C1162.08 106.51 1159.47 100.09 1154.26 95.3193C1148.97 90.4781 1141.85 88.0574 1132.9 88.0574H1100.02V141.101Z" fill="white"/>
<path d="M1210.4 66.4822H1309.36V88.4784H1235.35V130.366H1296.35V151.625H1235.35V195.407H1312V217.404H1210.4V66.4822Z" fill="white"/>
<defs>
<clipPath id="clip0_2021_873">
<rect width="283.676" height="283.676" fill="white"/>
</clipPath>
</defs>
</svg>
