<svg width="130" height="32" viewBox="0 0 130 32" fill="none" xmlns="http://www.w3.org/2000/svg">
<g clip-path="url(#clip0_2012_154)">
<path d="M39.3696 22.3643H48.4759V19.6215H42.6062V9.29004H39.3696V22.3643Z" fill="#78716C"/>
<path d="M53.8709 20.5358C52.5726 20.5358 51.896 19.4021 51.896 17.7015C51.896 16.001 52.5726 14.849 53.8709 14.849C55.1692 14.849 55.864 16.001 55.864 17.7015C55.864 19.4021 55.1692 20.5358 53.8709 20.5358ZM53.8892 22.6569C56.9063 22.6569 58.8812 20.5175 58.8812 17.7015C58.8812 14.8855 56.9063 12.7461 53.8892 12.7461C50.8903 12.7461 48.8789 14.8855 48.8789 17.7015C48.8789 20.5175 50.8903 22.6569 53.8892 22.6569Z" fill="#78716C"/>
<path d="M64.1036 25.6009C65.4933 25.6009 66.7185 25.2901 67.5413 24.5586C68.2911 23.8821 68.7848 22.8581 68.7848 21.4501V13.0021H65.9322V14.0078H65.8956C65.3471 13.2215 64.5059 12.7278 63.2625 12.7278C60.9402 12.7278 59.3311 14.6661 59.3311 17.4089C59.3311 20.2798 61.2876 21.8524 63.3905 21.8524C64.5242 21.8524 65.2373 21.3952 65.7859 20.7735H65.8591V21.7061C65.8591 22.8398 65.3288 23.4981 64.0671 23.4981C63.0796 23.4981 62.5859 23.0775 62.4213 22.5838H59.5322C59.8248 24.5404 61.5253 25.6009 64.1036 25.6009ZM64.0853 19.6398C62.9699 19.6398 62.2385 18.7255 62.2385 17.3175C62.2385 15.8912 62.9699 14.9769 64.0853 14.9769C65.3288 14.9769 65.9871 16.0375 65.9871 17.2992C65.9871 18.6158 65.3836 19.6398 64.0853 19.6398Z" fill="#78716C"/>
<path d="M74.6502 20.5358C73.3519 20.5358 72.6753 19.4021 72.6753 17.7015C72.6753 16.001 73.3519 14.849 74.6502 14.849C75.9485 14.849 76.6433 16.001 76.6433 17.7015C76.6433 19.4021 75.9485 20.5358 74.6502 20.5358ZM74.6685 22.6569C77.6856 22.6569 79.6605 20.5175 79.6605 17.7015C79.6605 14.8855 77.6856 12.7461 74.6685 12.7461C71.6696 12.7461 69.6582 14.8855 69.6582 17.7015C69.6582 20.5175 71.6696 22.6569 74.6685 22.6569Z" fill="#78716C"/>
<path d="M80.5308 22.3643H83.5113V13.002H80.5308V22.3643ZM80.5308 11.7038H83.5113V9.29004H80.5308V11.7038Z" fill="#78716C"/>
<path d="M84.8052 25.4546H87.7857V21.3952H87.8223C88.4075 22.1815 89.2669 22.6569 90.4737 22.6569C92.924 22.6569 94.5515 20.7186 94.5515 17.6832C94.5515 14.8672 93.0337 12.7278 90.5469 12.7278C89.2669 12.7278 88.3526 13.2946 87.7126 14.1358H87.6577V13.0021H84.8052V25.4546ZM89.7057 20.3529C88.4257 20.3529 87.6943 19.3106 87.6943 17.7929C87.6943 16.2752 88.3526 15.1232 89.6509 15.1232C90.9309 15.1232 91.5343 16.1838 91.5343 17.7929C91.5343 19.3838 90.8395 20.3529 89.7057 20.3529Z" fill="#78716C"/>
<path d="M99.4037 22.6569C101.854 22.6569 103.664 21.5964 103.664 19.5484C103.664 17.1529 101.726 16.7324 100.08 16.4581C98.8917 16.2386 97.8312 16.1472 97.8312 15.4889C97.8312 14.9038 98.398 14.6295 99.1294 14.6295C99.9523 14.6295 100.519 14.8855 100.629 15.7266H103.372C103.225 13.8798 101.799 12.7278 99.1477 12.7278C96.9352 12.7278 95.1066 13.7518 95.1066 15.7266C95.1066 17.9209 96.8437 18.3598 98.4712 18.6341C99.7146 18.8535 100.848 18.9449 100.848 19.7861C100.848 20.3895 100.281 20.7186 99.3854 20.7186C98.398 20.7186 97.7763 20.2615 97.6666 19.3289H94.8506C94.942 21.3952 96.6609 22.6569 99.4037 22.6569Z" fill="#78716C"/>
<path d="M107.713 22.6386C109.012 22.6386 109.834 22.1266 110.511 21.2124H110.566V22.3644H113.418V13.0021H110.438V18.2318C110.438 19.3472 109.816 20.1152 108.792 20.1152C107.841 20.1152 107.384 19.5484 107.384 18.5244V13.0021H104.422V19.1461C104.422 21.2306 105.556 22.6386 107.713 22.6386Z" fill="#78716C"/>
<path d="M114.714 22.3644H117.695V17.1164C117.695 16.0009 118.244 15.2146 119.176 15.2146C120.072 15.2146 120.493 15.7998 120.493 16.8055V22.3644H123.473V17.1164C123.473 16.0009 124.003 15.2146 124.954 15.2146C125.85 15.2146 126.271 15.7998 126.271 16.8055V22.3644H129.251V16.2752C129.251 14.1724 128.191 12.7278 126.07 12.7278C124.863 12.7278 123.857 13.2398 123.126 14.3735H123.089C122.614 13.3678 121.681 12.7278 120.456 12.7278C119.103 12.7278 118.207 13.3678 117.622 14.3369H117.567V13.0021H114.714V22.3644Z" fill="#78716C"/>
<path fill-rule="evenodd" clip-rule="evenodd" d="M16.3786 0.73291C24.959 0.73291 31.9148 7.6887 31.9148 16.2691C31.9148 24.8496 24.959 31.8054 16.3786 31.8054C7.79809 31.8054 0.842285 24.8496 0.842285 16.2691C0.842285 7.6887 7.79809 0.73291 16.3786 0.73291ZM31.3184 16.2691C31.3184 8.01807 24.6296 1.32919 16.3786 1.32919C15.713 1.32919 15.0576 1.37271 14.4151 1.45706C14.8302 1.42077 15.2503 1.40224 15.6749 1.40224C23.5592 1.40224 29.9507 7.79376 29.9507 15.6781C29.9507 23.5624 23.5592 29.9539 15.6749 29.9539C8.21052 29.9539 2.08418 24.2252 1.4527 16.9246C1.79574 24.8716 8.34701 31.2091 16.3786 31.2091C24.6296 31.2091 31.3184 24.5202 31.3184 16.2691ZM29.3544 15.6781C29.3544 8.12306 23.2299 1.99853 15.6749 1.99853C15.0615 1.99853 14.4574 2.03891 13.8653 2.11715C14.2299 2.08647 14.5987 2.07082 14.9712 2.07082C22.1595 2.07082 27.9867 7.89807 27.9867 15.0863C27.9867 22.2745 22.1595 28.1017 14.9712 28.1017C8.17458 28.1017 2.59468 22.892 2.00697 16.2481C2.30578 23.5388 8.31082 29.3576 15.6749 29.3576C23.2299 29.3576 29.3544 23.2331 29.3544 15.6781ZM14.9712 2.66711C21.8301 2.66711 27.3904 8.22736 27.3904 15.0863C27.3904 21.9452 21.8301 27.5054 14.9712 27.5054C8.27128 27.5054 2.81042 22.1998 2.56101 15.5608C3.09948 21.5532 8.13513 26.2495 14.2677 26.2495C20.7594 26.2495 26.022 20.9869 26.022 14.4952C26.022 8.00344 20.7594 2.7409 14.2677 2.7409C13.9319 2.7409 13.5993 2.75498 13.2706 2.78259C13.8266 2.70645 14.3943 2.66711 14.9712 2.66711ZM25.4256 14.4952C25.4256 8.33281 20.4301 3.33719 14.2677 3.33719C13.747 3.33719 13.2346 3.37284 12.733 3.44186C13.0069 3.42042 13.2838 3.4095 13.5632 3.4095C19.3589 3.4095 24.0572 8.10774 24.0572 13.9034C24.0572 19.699 19.3589 24.3973 13.5632 24.3973C8.10828 24.3973 3.62546 20.2351 3.11734 14.9132C3.33717 20.8819 8.24522 25.6532 14.2677 25.6532C20.4301 25.6532 25.4256 20.6576 25.4256 14.4952ZM13.5632 4.00578C19.0295 4.00578 23.4608 8.43712 23.4608 13.9034C23.4608 19.3697 19.0295 23.801 13.5632 23.801C8.20464 23.801 3.84065 19.5426 3.67079 14.2252C4.12956 18.8959 8.06844 22.5451 12.8596 22.5451C17.9592 22.5451 22.0931 18.4111 22.0931 13.3116C22.0931 8.21205 17.9592 4.07808 12.8596 4.07808C12.6258 4.07808 12.3939 4.08677 12.1645 4.10385C12.6215 4.03921 13.0884 4.00578 13.5632 4.00578ZM21.4969 13.3116C21.4969 8.54134 17.6298 4.67437 12.8596 4.67437C12.4242 4.67437 11.9963 4.70659 11.5782 4.76877C11.769 4.75511 11.9617 4.74815 12.1561 4.74815C16.5591 4.74815 20.1284 8.3175 20.1284 12.7205C20.1284 17.1235 16.5591 20.6928 12.1561 20.6928C8.03019 20.6928 4.63636 17.5587 4.22544 13.5413C4.34726 18.2053 8.1663 21.9488 12.8596 21.9488C17.6298 21.9488 21.4969 18.0818 21.4969 13.3116ZM12.1561 5.34444C16.2298 5.34444 19.5321 8.64679 19.5321 12.7205C19.5321 16.7942 16.2298 20.0965 12.1561 20.0965C8.1342 20.0965 4.86416 16.8777 4.78158 12.8757C5.15311 16.231 7.99802 18.8406 11.4525 18.8406C15.1594 18.8406 18.1644 15.8356 18.1644 12.1287C18.1644 8.4218 15.1594 5.41674 11.4525 5.41674C11.3107 5.41674 11.1699 5.42113 11.0304 5.42979C11.3974 5.37359 11.7733 5.34444 12.1561 5.34444ZM17.5681 12.1287C17.5681 8.7511 14.8301 6.01303 11.4525 6.01303C11.1133 6.01303 10.7805 6.04064 10.4563 6.09373C10.553 6.08864 10.6502 6.08607 10.7481 6.08607C13.7588 6.08607 16.1996 8.52679 16.1996 11.5376C16.1996 14.5484 13.7588 16.9892 10.7481 16.9892C7.9641 16.9892 5.66754 14.9023 5.33727 12.2076C5.37956 15.5489 8.10122 18.2444 11.4525 18.2444C14.8301 18.2444 17.5681 15.5063 17.5681 12.1287ZM10.7481 6.68235C13.4295 6.68235 15.6033 8.85609 15.6033 11.5376C15.6033 14.2191 13.4295 16.3928 10.7481 16.3928C8.06656 16.3928 5.89279 14.2191 5.89279 11.5376C5.89279 11.5312 5.8928 11.5247 5.89283 11.5183C6.172 13.5618 7.92435 15.1362 10.0445 15.1362C12.3587 15.1362 14.2349 13.2601 14.2349 10.9458C14.2349 8.63148 12.3587 6.75541 10.0445 6.75541C9.99212 6.75541 9.94 6.75636 9.88812 6.75827C10.1672 6.70838 10.4546 6.68235 10.7481 6.68235ZM13.6385 10.9458C13.6385 8.96085 12.0295 7.35169 10.0445 7.35169C8.05947 7.35169 6.45033 8.96085 6.45033 10.9458C6.45033 12.9308 8.05947 14.5399 10.0445 14.5399C12.0295 14.5399 13.6385 12.9308 13.6385 10.9458Z" fill="#78716C"/>
</g>
<defs>
<clipPath id="clip0_2012_154">
<rect width="128.762" height="32" fill="white" transform="translate(0.619141)"/>
</clipPath>
</defs>
</svg>
