<svg width="128" height="32" viewBox="0 0 128 32" fill="none" xmlns="http://www.w3.org/2000/svg">
<path d="M15.4829 6.25879V2.25879H2.87109V29.7412H15.4829V25.7412C12.8993 25.7412 10.4216 24.7148 8.5948 22.888C6.76798 21.0612 5.74168 18.5835 5.74168 16C5.74168 13.4164 6.76798 10.9387 8.5948 9.11192C10.4216 7.2851 12.8993 6.25879 15.4829 6.25879Z" fill="#78716C"/>
<path d="M15.4824 6.25879V25.7412C18.066 25.7412 20.5437 24.7148 22.3705 22.888C24.1973 21.0612 25.2236 18.5835 25.2236 16C25.2236 13.4164 24.1973 10.9387 22.3705 9.11192C20.5437 7.2851 18.066 6.25879 15.4824 6.25879Z" fill="#78716C"/>
<path d="M32.3018 8.70593H35.1253V22.3059H32.3018V8.70593Z" fill="#78716C"/>
<path d="M36.7065 17.647C36.7065 16.6686 36.997 15.7121 37.5412 14.899C38.0854 14.0858 38.8588 13.4525 39.7633 13.0793C40.6679 12.7062 41.6628 12.61 42.6221 12.803C43.5813 12.9959 44.4617 13.4693 45.1516 14.1631C45.8415 14.8571 46.3099 15.7401 46.4974 16.7005C46.6848 17.6608 46.5829 18.6552 46.2046 19.5576C45.8262 20.4599 45.1886 21.2297 44.3723 21.7692C43.556 22.3087 42.5979 22.5937 41.6194 22.5882C40.9705 22.5933 40.327 22.4687 39.7268 22.2218C39.1266 21.9749 38.5817 21.6107 38.1241 21.1505C37.6665 20.6903 37.3055 20.1433 37.062 19.5417C36.8186 18.9401 36.6977 18.2959 36.7065 17.647ZM43.7841 17.647C43.773 17.2252 43.6378 16.8159 43.3953 16.4706C43.1529 16.1252 42.8141 15.859 42.421 15.7052C42.0281 15.5514 41.5985 15.5168 41.1861 15.606C40.7736 15.695 40.3966 15.9037 40.1021 16.206C39.8076 16.5082 39.6087 16.8905 39.5304 17.3052C39.4521 17.7199 39.4977 18.1484 39.6617 18.5372C39.8257 18.926 40.1006 19.2579 40.4522 19.4912C40.8037 19.7247 41.2162 19.8492 41.6383 19.8494C41.9256 19.855 42.211 19.8013 42.4766 19.6915C42.7422 19.5819 42.9823 19.4186 43.1819 19.2119C43.3815 19.0052 43.5363 18.7595 43.6368 18.4903C43.7372 18.221 43.7809 17.934 43.7653 17.647H43.7841Z" fill="#78716C"/>
<path d="M57.7035 12.9882V21.8447C57.7035 24.9694 55.2564 26.2965 52.7811 26.2965C51.908 26.3681 51.0323 26.1946 50.2525 25.7956C49.4726 25.3965 48.8196 24.7877 48.367 24.0376L50.7482 22.6635C50.9411 23.0526 51.2481 23.3735 51.6281 23.5837C52.0082 23.7939 52.4432 23.8833 52.8753 23.84C53.1506 23.8739 53.4299 23.8466 53.6933 23.76C53.9569 23.6733 54.1979 23.5296 54.3993 23.3389C54.6008 23.1482 54.7576 22.9155 54.8586 22.6571C54.9596 22.3989 55.0022 22.1214 54.9835 21.8447V20.9882C54.6549 21.3866 54.238 21.7029 53.7659 21.912C53.2937 22.1211 52.7794 22.2173 52.2635 22.1929C51.0154 22.1929 49.8185 21.6971 48.936 20.8146C48.0534 19.9321 47.5576 18.7351 47.5576 17.4871C47.5576 16.239 48.0534 15.0421 48.936 14.1595C49.8185 13.277 51.0154 12.7812 52.2635 12.7812C52.7794 12.7568 53.2937 12.853 53.7659 13.0621C54.238 13.2712 54.6549 13.5875 54.9835 13.9859V13.0447L57.7035 12.9882ZM54.9835 17.4588C55.0022 17.0086 54.8859 16.5629 54.6494 16.1793C54.4129 15.7957 54.0671 15.4916 53.6563 15.3061C53.2455 15.1206 52.7888 15.0622 52.3445 15.1384C51.9004 15.2147 51.4891 15.422 51.1637 15.7338C50.8384 16.0456 50.6137 16.4477 50.5187 16.8883C50.4236 17.3288 50.4625 17.7877 50.6303 18.2059C50.7982 18.6242 51.0873 18.9827 51.4605 19.2353C51.8338 19.4879 52.274 19.6231 52.7247 19.6235C53.0188 19.6447 53.314 19.6039 53.5913 19.504C53.8687 19.4039 54.122 19.2469 54.3348 19.0428C54.5477 18.8389 54.7155 18.5925 54.8272 18.3196C54.9389 18.0468 54.9922 17.7535 54.9835 17.4588Z" fill="#78716C"/>
<path d="M59.2943 17.647C59.2943 16.6693 59.5843 15.7136 60.1277 14.9008C60.671 14.088 61.4433 13.4547 62.3467 13.0811C63.2501 12.7073 64.2441 12.61 65.2029 12.8015C66.1617 12.9929 67.042 13.4644 67.7328 14.1564C68.4234 14.8484 68.8932 15.7297 69.0828 16.6888C69.2724 17.6479 69.1732 18.6417 68.7978 19.5444C68.4224 20.4472 67.7875 21.2182 66.9738 21.76C66.16 22.3019 65.2037 22.5901 64.226 22.5882C63.5759 22.5945 62.9309 22.4709 62.3291 22.2247C61.7273 21.9785 61.1807 21.6146 60.7214 21.1544C60.262 20.6942 59.8992 20.1469 59.6541 19.5446C59.4091 18.9423 59.2867 18.2972 59.2943 17.647ZM66.3719 17.647C66.3608 17.2248 66.2253 16.8152 65.9825 16.4696C65.7396 16.1241 65.4002 15.8578 65.0066 15.7043C64.6131 15.5508 64.1831 15.5168 63.7704 15.6067C63.3577 15.6965 62.9807 15.9062 62.6866 16.2094C62.3924 16.5125 62.1943 16.8958 62.1171 17.311C62.0399 17.7263 62.0868 18.1551 62.2522 18.5437C62.4176 18.9324 62.694 19.2636 63.0468 19.4959C63.3996 19.728 63.813 19.8511 64.2354 19.8494C64.5228 19.855 64.8082 19.8013 65.0738 19.6915C65.3394 19.5819 65.5794 19.4186 65.7791 19.2119C65.9787 19.0052 66.1335 18.7595 66.2339 18.4903C66.3344 18.221 66.3781 17.934 66.3625 17.647H66.3719Z" fill="#78716C"/>
<path d="M70.4658 10.4941C70.4658 10.1628 70.5641 9.8389 70.7482 9.56341C70.9323 9.28789 71.1939 9.07317 71.5 8.94637C71.8062 8.81957 72.143 8.7864 72.468 8.85104C72.7929 8.91568 73.0914 9.07524 73.3258 9.30953C73.56 9.54384 73.7196 9.84238 73.7842 10.1673C73.8489 10.4923 73.8157 10.8291 73.6889 11.1353C73.5621 11.4413 73.3473 11.703 73.0718 11.8871C72.7964 12.0712 72.4725 12.1694 72.1411 12.1694C71.6983 12.1645 71.275 11.9865 70.9619 11.6733C70.6488 11.3602 70.4707 10.937 70.4658 10.4941ZM70.7388 12.9883H73.5623V22.3059H70.7388V12.9883Z" fill="#78716C"/>
<path d="M85.6472 17.6471C85.6788 18.2668 85.5876 18.8866 85.3788 19.4709C85.17 20.0552 84.8477 20.5924 84.4305 21.0516C84.0131 21.5109 83.5092 21.8831 82.9475 22.1468C82.3859 22.4105 81.7777 22.5605 81.1578 22.5883C80.6318 22.6233 80.1046 22.5391 79.6158 22.3419C79.1268 22.1446 78.6888 21.8396 78.3343 21.4495V26.0518H75.5107V12.9883H78.3343V13.8636C78.6893 13.4746 79.1277 13.171 79.6166 12.9754C80.1056 12.7797 80.6324 12.6973 81.1578 12.7342C81.7752 12.7619 82.381 12.9111 82.9408 13.173C83.5005 13.435 84.0032 13.8047 84.42 14.2608C84.8369 14.717 85.1599 15.2509 85.3704 15.832C85.581 16.4129 85.6751 17.0297 85.6472 17.6471ZM82.8237 17.6471C82.8126 17.2099 82.6726 16.7858 82.4215 16.4279C82.1704 16.07 81.8192 15.794 81.4119 15.6349C81.0047 15.4756 80.5595 15.4402 80.1321 15.5329C79.7048 15.6256 79.3144 15.8425 79.0098 16.1562C78.7051 16.4699 78.4998 16.8665 78.4197 17.2964C78.3395 17.7263 78.388 18.1702 78.5591 18.5727C78.7302 18.975 79.0162 19.318 79.3814 19.5585C79.7466 19.7991 80.1746 19.9264 80.6119 19.9248C80.9114 19.9375 81.2102 19.8867 81.4887 19.7759C81.7673 19.665 82.0193 19.4965 82.2281 19.2815C82.437 19.0664 82.5979 18.8096 82.7006 18.528C82.8033 18.2463 82.8451 17.9461 82.8237 17.6471Z" fill="#78716C"/>
<path d="M94.2406 19.5105C94.2406 21.6564 92.3582 22.5694 90.3629 22.5694C89.5491 22.6426 88.7321 22.4701 88.0173 22.0741C87.3026 21.6782 86.723 21.0769 86.3535 20.3482L88.7818 18.9741C88.8779 19.3099 89.0865 19.6025 89.3726 19.803C89.6587 20.0034 90.005 20.0995 90.3535 20.0753C91.0218 20.0753 91.3606 19.8682 91.3606 19.4917C91.3606 18.4658 86.777 19.0117 86.777 15.7835C86.777 13.7505 88.49 12.7341 90.4288 12.7341C91.1658 12.701 91.898 12.8683 92.5475 13.2179C93.1971 13.5676 93.7399 14.0866 94.1182 14.72L91.69 16C91.5827 15.7571 91.4074 15.5506 91.1853 15.4053C90.9631 15.26 90.7036 15.1822 90.4382 15.1811C89.9488 15.1811 89.657 15.3694 89.657 15.6988C89.657 16.7717 94.2406 16.0658 94.2406 19.5105Z" fill="#78716C"/>
<path d="M104.47 12.9883V22.3059H101.647V21.4306C101.326 21.8181 100.918 22.1247 100.458 22.3258C99.997 22.5269 99.4953 22.6168 98.9927 22.5883C97.1104 22.5883 95.501 21.2424 95.501 18.7295V12.9883H98.3245V18.3059C98.3019 18.5282 98.3283 18.7527 98.4017 18.9639C98.4751 19.175 98.5927 19.3678 98.7471 19.5289C98.9024 19.6899 99.0906 19.8155 99.2986 19.8969C99.5066 19.9782 99.7297 20.0134 99.9527 20C100.969 20 101.685 19.3977 101.685 18.1177V12.9883H104.47Z" fill="#78716C"/>
<path d="M120.47 16.5835V22.3058H117.647V16.8282C117.647 15.887 117.204 15.3035 116.31 15.3035C115.416 15.3035 114.852 15.9529 114.852 17.0541V22.3058H112.028V16.8282C112.028 15.887 111.586 15.3035 110.692 15.3035C109.797 15.3035 109.233 15.9529 109.233 17.0541V22.3058H106.409V12.9882H109.233V13.8447C109.525 13.4663 109.907 13.1666 110.344 12.9727C110.781 12.7789 111.26 12.6968 111.736 12.7341C112.213 12.7091 112.69 12.8089 113.117 13.0234C113.544 13.2379 113.908 13.5599 114.174 13.9576C114.484 13.542 114.895 13.2118 115.367 12.9979C115.839 12.7839 116.358 12.6931 116.875 12.7341C119.077 12.7341 120.47 14.2588 120.47 16.5835Z" fill="#78716C"/>
<path d="M122.843 12.9317C123.987 12.9317 124.914 12.0046 124.914 10.8611C124.914 9.71759 123.987 8.79053 122.843 8.79053C121.7 8.79053 120.772 9.71759 120.772 10.8611C120.772 12.0046 121.7 12.9317 122.843 12.9317Z" fill="#78716C"/>
</svg>
