<svg width="122" height="32" viewBox="0 0 122 32" fill="none" xmlns="http://www.w3.org/2000/svg">
<path d="M35.8662 10.2949H38.8011V22.1806H35.8662V10.2949ZM39.9714 17.7098C39.9714 14.7658 41.7999 13.0012 44.5428 13.0012C47.2856 13.0012 49.1142 14.7658 49.1142 17.7098C49.1142 20.6538 47.3496 22.4366 44.5428 22.4366C41.7359 22.4366 39.9714 20.7178 39.9714 17.7098ZM46.2068 17.7098C46.2068 16.0915 45.5759 15.1406 44.5702 15.1406C43.5645 15.1406 42.9428 16.0549 42.9428 17.7098C42.9428 19.3646 43.5645 20.2698 44.5702 20.2698C45.5759 20.2698 46.2251 19.3646 46.2251 17.7189L46.2068 17.7098ZM50.2845 22.7932H53.1188C53.2478 23.0983 53.4732 23.3529 53.7604 23.5179C54.0477 23.6831 54.381 23.7496 54.7096 23.7075C55.8342 23.7075 56.4194 23.104 56.4194 22.208V20.5623H56.4285C56.1863 21.0748 55.7946 21.5019 55.3051 21.7875C54.8155 22.0731 54.2509 22.2038 53.6856 22.1623C51.5371 22.1623 50.1108 20.5258 50.1108 17.7098C50.1108 14.8938 51.4731 13.1383 53.7679 13.1383C54.3477 13.1073 54.9229 13.2568 55.414 13.5663C55.9053 13.8758 56.2884 14.33 56.5108 14.8663H56.4285V13.2115H59.3359V22.1166C59.3359 24.2652 57.4342 25.6092 54.6365 25.6092C52.0948 25.6 50.4674 24.4389 50.3028 22.8023L50.2845 22.7932ZM56.4285 17.7098C56.4285 16.2743 55.7702 15.3692 54.7279 15.3692C53.6856 15.3692 53.0456 16.2835 53.0456 17.7098C53.0456 19.136 53.6765 19.9772 54.7279 19.9772C55.7794 19.9772 56.4285 19.2 56.4285 17.7098ZM60.4971 17.7098C60.4971 14.7658 62.3256 13.0012 65.0685 13.0012C67.8114 13.0012 69.6399 14.7658 69.6399 17.7098C69.6399 20.6538 67.8662 22.4366 65.0685 22.4366C62.2708 22.4366 60.5154 20.7178 60.5154 17.7098H60.4971ZM66.7325 17.7098C66.7325 16.0915 66.0925 15.1406 65.0959 15.1406C64.0994 15.1406 63.4685 16.0549 63.4685 17.7098C63.4685 19.3646 64.0902 20.2698 65.0959 20.2698C66.1016 20.2698 66.7508 19.3646 66.7508 17.7189L66.7325 17.7098ZM70.8285 11.0446C70.8157 10.7456 70.8927 10.4497 71.0495 10.1949C71.2063 9.93998 71.4358 9.73792 71.7084 9.61459C71.9811 9.49116 72.2843 9.45221 72.5793 9.50268C72.8742 9.55305 73.1473 9.69056 73.3634 9.89747C73.5796 10.1045 73.7289 10.3712 73.7922 10.6637C73.8553 10.9562 73.8296 11.2609 73.7183 11.5386C73.6069 11.8164 73.415 12.0544 73.1672 12.2222C72.9195 12.39 72.6272 12.4798 72.3279 12.48C72.1368 12.4849 71.9464 12.4517 71.7681 12.3825C71.5898 12.3132 71.427 12.2091 71.2892 12.0765C71.1514 11.9438 71.0413 11.7851 70.9655 11.6095C70.8895 11.4339 70.8492 11.245 70.8468 11.0538L70.8285 11.0446ZM70.8285 13.2023H73.7999V22.2172H70.8742L70.8285 13.2023ZM84.4879 17.7098C84.4879 20.6446 83.1714 22.3452 80.9314 22.3452C80.3579 22.3806 79.7874 22.239 79.2969 21.9399C78.8064 21.6406 78.4195 21.1981 78.1885 20.672H78.1336V25.1155H75.1988V13.2298H78.1154V14.8389H78.1702C78.3933 14.3025 78.7764 13.8478 79.2672 13.537C79.7581 13.2261 80.3328 13.0742 80.9131 13.1018C83.2171 13.0835 84.5428 14.7749 84.5428 17.7189L84.4879 17.7098ZM81.4982 17.7098C81.4982 16.2835 80.8308 15.36 79.7976 15.36C78.7645 15.36 78.1154 16.2743 78.1062 17.7098C78.0971 19.1452 78.7645 20.0503 79.7976 20.0503C80.8308 20.0503 81.5531 19.2 81.5531 17.7189L81.4982 17.7098ZM89.4982 12.992C91.9576 12.992 93.4845 14.1532 93.5028 16.0183H90.8239C90.8239 15.3692 90.2845 14.9669 89.4799 14.9669C88.6754 14.9669 88.2914 15.2778 88.2914 15.744C88.2914 16.2103 88.6296 16.3566 89.3062 16.4938L91.1896 16.8778C93.0182 17.2618 93.7496 17.9932 93.7496 19.3555C93.7496 21.184 92.0582 22.4275 89.5439 22.4275C87.0296 22.4275 85.3931 21.2206 85.2742 19.3829H88.1176C88.1999 20.0503 88.7302 20.4435 89.5896 20.4435C90.4491 20.4435 90.8514 20.1692 90.8514 19.6846C90.8514 19.2 90.5771 19.1178 89.8731 18.9715L88.1725 18.6149C86.4079 18.24 85.4845 17.3166 85.4845 15.936C85.5394 14.144 87.0754 13.0012 89.5531 13.0012L89.4982 12.992ZM103.578 22.208H100.735V20.5166H100.68C100.521 21.0808 100.174 21.5739 99.6971 21.9146C99.2198 22.2553 98.6411 22.4233 98.0559 22.3909C97.6143 22.4053 97.1736 22.3261 96.765 22.1584C96.3563 21.9908 95.9869 21.7386 95.6824 21.4183C95.3771 21.0979 95.1439 20.7168 94.9967 20.2998C94.8495 19.8829 94.7919 19.4395 94.8285 18.9989V13.2115H97.7634V18.368C97.7634 19.4286 98.3211 20.0046 99.2354 20.0046C99.4502 20.003 99.6614 19.9553 99.8562 19.865C100.051 19.7746 100.224 19.6435 100.363 19.4806C100.503 19.3176 100.606 19.1266 100.665 18.9206C100.724 18.7144 100.738 18.498 100.707 18.2858V13.2115H103.633L103.578 22.208ZM104.995 13.2023H107.848V14.9395H107.912C108.069 14.383 108.407 13.8944 108.872 13.5503C109.337 13.2063 109.903 13.026 110.481 13.0378C111.062 12.9873 111.64 13.1552 112.103 13.5085C112.567 13.8619 112.881 14.3755 112.986 14.9486H113.114C113.297 14.3723 113.665 13.8726 114.161 13.5271C114.657 13.1815 115.254 13.0095 115.857 13.0378C116.258 13.0225 116.659 13.0922 117.031 13.2422C117.404 13.3921 117.741 13.6192 118.019 13.9083C118.298 14.1974 118.512 14.5422 118.648 14.92C118.786 15.2978 118.84 15.7001 118.81 16.1006V22.2172H115.857V16.8503C115.857 15.936 115.427 15.424 114.595 15.424C114.411 15.421 114.228 15.458 114.059 15.5322C113.89 15.6065 113.74 15.7165 113.617 15.8546C113.495 15.9927 113.403 16.1556 113.349 16.3322C113.296 16.5088 113.282 16.6949 113.306 16.8778V22.2172H110.508V16.8229C110.508 15.9086 110.061 15.424 109.256 15.424C109.069 15.4226 108.885 15.461 108.715 15.5367C108.544 15.6125 108.392 15.7238 108.268 15.8632C108.144 16.0026 108.052 16.1669 107.997 16.345C107.941 16.5232 107.925 16.7111 107.949 16.896V22.2172H105.014L104.995 13.2023Z" fill="#78716C"/>
<path d="M30.0604 11.072C30.0604 9.25233 29.511 7.47501 28.4838 5.9729C27.4567 4.47078 25.9998 3.31389 24.3041 2.65377C22.6084 1.99365 20.7527 1.86108 18.9804 2.27341C17.208 2.68575 15.6015 3.62377 14.3712 4.9646H2.96094V29.0469H27.0524V17.792C27.9979 16.9463 28.7546 15.9107 29.2729 14.7528C29.7912 13.5948 30.0595 12.3407 30.0604 11.072ZM25.4249 11.072C25.4268 11.944 25.1698 12.7969 24.6867 13.5229C24.2035 14.2487 23.516 14.815 22.7109 15.1499C21.9057 15.4849 21.0194 15.5735 20.1639 15.4045C19.3085 15.2355 18.5224 14.8165 17.9052 14.2005C17.288 13.5846 16.8674 12.7994 16.6966 11.9443C16.5258 11.0892 16.6126 10.2026 16.9458 9.39688C17.2791 8.59108 17.8439 7.90229 18.5688 7.41765C19.2937 6.93301 20.1461 6.67433 21.0181 6.67432C22.1852 6.67432 23.3048 7.13736 24.1309 7.96182C24.9572 8.78629 25.4225 9.90485 25.4249 11.072ZM22.4169 24.4115H7.59637V9.60003H12.1129C12.0257 10.086 11.9798 10.5784 11.9758 11.072C11.9782 13.4695 12.9317 15.768 14.6269 17.4633C16.3221 19.1584 18.6206 20.1119 21.0181 20.1143C21.4868 20.1118 21.9546 20.0721 22.4169 19.9955V24.4115Z" fill="#78716C"/>
</svg>
