<svg width="150" height="32" viewBox="0 0 150 32" fill="none" xmlns="http://www.w3.org/2000/svg">
<path d="M24.2469 14.2624C23.8426 14.6691 23.5331 15.16 23.3402 15.6999C23.1474 16.24 23.076 16.8159 23.1312 17.3866L23.112 17.3674C23.1687 18.0393 23.078 18.7154 22.8465 19.3487C22.6149 19.9818 22.248 20.5569 21.7713 21.0337C21.2945 21.5104 20.7194 21.8774 20.0861 22.1089C19.453 22.3404 18.7768 22.4311 18.105 22.3744L18.1242 22.3936C17.3206 22.3188 16.5134 22.4936 15.8128 22.8944C15.1122 23.2951 14.5522 23.9021 14.2092 24.6328C13.8663 25.3635 13.757 26.182 13.8963 26.9771C14.0357 27.7721 14.4168 28.5048 14.9878 29.0753C15.5588 29.6457 16.2918 30.0262 17.0869 30.1648C17.8821 30.3034 18.7005 30.1933 19.4309 29.8498C20.1612 29.5061 20.7677 28.9457 21.1678 28.2447C21.568 27.5436 21.7421 26.7364 21.6666 25.9328L21.6869 25.952C21.6301 25.2802 21.7207 24.604 21.9523 23.9707C22.1838 23.3376 22.5509 22.7625 23.0276 22.2857C23.5044 21.809 24.0794 21.442 24.7126 21.2105C25.3459 20.9789 26.0219 20.8883 26.6938 20.945L26.6736 20.9258C27.33 20.9848 27.9908 20.8772 28.5946 20.6129C29.1984 20.3485 29.7257 19.9361 30.1276 19.4137C30.5296 18.8914 30.7932 18.2759 30.8939 17.6246C30.9947 16.9732 30.9294 16.3069 30.7042 15.6874C30.4789 15.068 30.1009 14.5155 29.6052 14.081C29.1095 13.6466 28.5122 13.3443 27.8685 13.2022C27.2249 13.0601 26.5558 13.0827 25.9233 13.268C25.2907 13.4534 24.7153 13.7954 24.2501 14.2624H24.2469Z" fill="#78716C"/>
<path d="M16.3784 19.8785L16.3581 19.8593C16.9291 19.9168 17.5058 19.8467 18.0465 19.654C18.587 19.4614 19.0781 19.1511 19.4841 18.7454C19.89 18.3398 20.2008 17.8489 20.3938 17.3084C20.5868 16.768 20.6573 16.1914 20.6003 15.6203L20.6205 15.6395C20.5638 14.9676 20.6544 14.2916 20.8859 13.6583C21.1175 13.0251 21.4845 12.4501 21.9612 11.9733C22.438 11.4966 23.0131 11.1296 23.6462 10.8981C24.2795 10.6665 24.9556 10.5759 25.6275 10.6326L25.6072 10.6134C26.4109 10.6889 27.2183 10.5146 27.9193 10.1143C28.6204 9.71402 29.1809 9.10723 29.5243 8.3767C29.8678 7.64618 29.9775 6.82748 29.8387 6.03227C29.6998 5.23706 29.319 4.50407 28.7481 3.93326C28.1773 3.36245 27.4443 2.98161 26.6491 2.84271C25.8539 2.70379 25.0352 2.81356 24.3047 3.15705C23.5741 3.50053 22.9674 4.06101 22.5671 4.76203C22.1668 5.46305 21.9925 6.27048 22.068 7.07419L22.0488 7.05393C22.1056 7.72581 22.0152 8.40201 21.7837 9.03531C21.5523 9.66861 21.1852 10.2438 20.7085 10.7206C20.2317 11.1973 19.6566 11.5643 19.0233 11.7958C18.3899 12.0273 17.7138 12.1177 17.0419 12.0609L17.0611 12.0811C16.4901 12.0236 15.9133 12.0937 15.3727 12.2864C14.8322 12.4789 14.3411 12.7893 13.9351 13.1949C13.5291 13.6006 13.2184 14.0915 13.0253 14.632C12.8324 15.1724 12.7619 15.749 12.8189 16.3201L12.7997 16.3009C12.8563 16.9726 12.7655 17.6487 12.5339 18.2819C12.3022 18.9149 11.9353 19.49 11.4586 19.9667C10.9819 20.4434 10.4069 20.8103 9.77377 21.042C9.14064 21.2736 8.46459 21.3643 7.7928 21.3078L7.812 21.327C7.00828 21.2515 6.20085 21.4258 5.49983 21.8261C4.79881 22.2264 4.23833 22.8331 3.89485 23.5637C3.55137 24.2942 3.44159 25.1129 3.5805 25.9081C3.71941 26.7033 4.10025 27.4363 4.67106 28.0071C5.24187 28.578 5.97487 28.9588 6.77008 29.0977C7.56529 29.2365 8.38399 29.1268 9.11451 28.7833C9.84503 28.4398 10.4518 27.8794 10.8521 27.1784C11.2524 26.4773 11.4267 25.6699 11.3512 24.8662L11.3715 24.8854C11.3147 24.2135 11.4054 23.5374 11.637 22.9042C11.8684 22.271 12.2355 21.696 12.7122 21.2192C13.189 20.7425 13.764 20.3754 14.3972 20.144C15.0304 19.9124 15.7065 19.8217 16.3784 19.8785Z" fill="#78716C"/>
<path d="M9.2294 17.7375C9.63368 17.3309 9.94321 16.84 10.1359 16.3C10.3286 15.7599 10.3997 15.1839 10.3441 14.6133L10.3643 14.6325C10.3076 13.9605 10.3982 13.2841 10.6299 12.6507C10.8616 12.0173 11.2288 11.4422 11.7058 10.9654C12.1828 10.4886 12.758 10.1217 13.3915 9.89027C14.025 9.65884 14.7014 9.5685 15.3734 9.62554L15.3531 9.60634C16.1565 9.68162 16.9637 9.50723 17.6644 9.10697C18.3651 8.70673 18.9252 8.10008 19.2685 7.36979C19.6118 6.63949 19.7214 5.82108 19.5826 5.02617C19.4437 4.23126 19.0629 3.49855 18.4923 2.92794C17.9218 2.35734 17.189 1.97663 16.3941 1.83772C15.5992 1.69881 14.7808 1.80849 14.0505 2.15176C13.3202 2.49504 12.7136 3.05522 12.3133 3.75591C11.913 4.4566 11.7386 5.26371 11.8139 6.06714L11.7947 6.04794C11.8515 6.71978 11.7608 7.39591 11.5292 8.02913C11.2977 8.66234 10.9308 9.23739 10.454 9.71415C9.97725 10.1909 9.40219 10.5579 8.76897 10.7894C8.13575 11.021 7.45964 11.1116 6.7878 11.0549L6.807 11.0741C6.15054 11.0152 5.48983 11.123 4.88612 11.3875C4.28241 11.6519 3.75521 12.0645 3.35339 12.5869C2.95156 13.1093 2.68812 13.7247 2.58744 14.376C2.48678 15.0275 2.55216 15.6937 2.77751 16.313C3.00287 16.9324 3.38093 17.4848 3.87664 17.9192C4.37235 18.3536 4.96968 18.6558 5.61329 18.7979C6.25688 18.9399 6.92593 18.9172 7.55843 18.7319C8.19092 18.5465 8.76639 18.2045 9.23152 17.7375H9.2294Z" fill="#78716C"/>
<path d="M42.2715 7.09863H45.4395V22.5152H42.2715V7.09863Z" fill="#78716C"/>
<path d="M47.2335 17.2363C47.2292 16.1284 47.5537 15.044 48.1659 14.1207C48.7782 13.1974 49.6507 12.4766 50.673 12.0496C51.6953 11.6225 52.8213 11.5085 53.9084 11.7219C54.9956 11.9353 55.9949 12.4665 56.7799 13.2484C57.5649 14.0302 58.1001 15.0274 58.3179 16.1137C58.5357 17.2 58.4262 18.3265 58.0033 19.3505C57.5803 20.3744 56.863 21.2499 55.9421 21.8658C55.0212 22.4818 53.9383 22.8107 52.8303 22.8107C52.095 22.8191 51.3653 22.6807 50.6839 22.4038C50.0025 22.1269 49.3832 21.717 48.8621 21.1981C48.341 20.679 47.9286 20.0613 47.649 19.3811C47.3693 18.7009 47.2281 17.9717 47.2335 17.2363ZM55.2591 17.2363C55.2459 16.7587 55.0922 16.2957 54.8173 15.9049C54.5423 15.5143 54.1583 15.2133 53.7133 15.0398C53.2682 14.8661 52.7819 14.8275 52.315 14.9288C51.8482 15.0302 51.4215 15.2668 51.0884 15.6093C50.7554 15.9517 50.5305 16.3847 50.4423 16.8543C50.354 17.3237 50.4059 17.8088 50.5918 18.2489C50.7778 18.6891 51.0892 19.0645 51.4873 19.3285C51.8855 19.5925 52.3527 19.7333 52.8303 19.7333C53.1575 19.7421 53.4829 19.6829 53.7862 19.5596C54.0893 19.4363 54.3637 19.2515 54.5918 19.0169C54.82 18.7823 54.9972 18.5029 55.1119 18.1965C55.2268 17.89 55.277 17.5631 55.2591 17.2363Z" fill="#78716C"/>
<path d="M71.0537 11.9563V21.983C71.0537 25.5307 68.2867 27.0305 65.4782 27.0305C64.4894 27.1045 63.4992 26.9047 62.6163 26.4532C61.7336 26.0015 60.9921 25.3156 60.4734 24.4705L63.1763 22.9078C63.3944 23.3483 63.7418 23.7117 64.172 23.9495C64.6022 24.1871 65.0948 24.2878 65.5838 24.2379C65.8963 24.2812 66.2146 24.2537 66.5151 24.1574C66.8155 24.0611 67.0905 23.8984 67.3196 23.6815C67.5487 23.4646 67.7261 23.199 67.8387 22.9042C67.9513 22.6094 67.9961 22.2932 67.9699 21.9787V21.0134C67.5989 21.4673 67.1268 21.8279 66.5913 22.0663C66.0557 22.3047 65.4718 22.4142 64.8862 22.3862C63.4929 22.3422 62.1714 21.7579 61.2014 20.7567C60.2314 19.7557 59.689 18.4164 59.689 17.0225C59.689 15.6285 60.2314 14.2892 61.2014 13.2882C62.1714 12.287 63.4929 11.7027 64.8862 11.6587C65.4718 11.6307 66.0557 11.7402 66.5913 11.9786C67.1268 12.217 67.5989 12.5777 67.9699 13.0315V11.9542L71.0537 11.9563ZM67.971 17.0241C67.9923 16.5135 67.8603 16.0083 67.592 15.5734C67.3237 15.1384 66.9314 14.7938 66.4656 14.5837C65.9998 14.3736 65.4818 14.3078 64.9782 14.3946C64.4747 14.4814 64.0086 14.717 63.64 15.071C63.2715 15.4249 63.0173 15.881 62.9101 16.3806C62.803 16.8803 62.8478 17.4006 63.0389 17.8745C63.23 18.3484 63.5585 18.7544 63.9822 19.0401C64.4059 19.3257 64.9054 19.478 65.4163 19.4774C65.7492 19.5006 66.0832 19.4539 66.3969 19.3402C66.7106 19.2265 66.997 19.0483 67.2377 18.8172C67.4783 18.5861 67.668 18.3071 67.7942 17.9982C67.9205 17.6894 67.9808 17.3576 67.971 17.0241Z" fill="#78716C"/>
<path d="M72.8478 17.2363C72.8434 16.1284 73.1678 15.044 73.7802 14.1207C74.3924 13.1974 75.265 12.4766 76.2873 12.0496C77.3096 11.6225 78.4355 11.5085 79.5227 11.7219C80.6098 11.9353 81.6092 12.4665 82.3942 13.2484C83.1791 14.0302 83.7144 15.0274 83.9322 16.1137C84.15 17.2 84.0404 18.3265 83.6175 19.3505C83.1946 20.3744 82.4772 21.2499 81.5564 21.8658C80.6354 22.4818 79.5525 22.8107 78.4446 22.8107C77.7092 22.8191 76.9794 22.6807 76.2981 22.4038C75.6168 22.1269 74.9975 21.717 74.4764 21.1981C73.9552 20.679 73.5428 20.0613 73.2633 19.3811C72.9836 18.7009 72.8424 17.9717 72.8478 17.2363ZM80.8734 17.2363C80.8602 16.7587 80.7065 16.2957 80.4316 15.9049C80.1566 15.5143 79.7726 15.2133 79.3276 15.0398C78.8825 14.8661 78.3961 14.8275 77.9293 14.9288C77.4624 15.0302 77.0358 15.2668 76.7026 15.6093C76.3696 15.9517 76.1448 16.3847 76.0564 16.8543C75.9681 17.3237 76.0202 17.8088 76.2061 18.2489C76.392 18.6891 76.7035 19.0645 77.1016 19.3285C77.4998 19.5925 77.9668 19.7333 78.4446 19.7333C78.7717 19.7421 79.0972 19.6829 79.4003 19.5596C79.7036 19.4363 79.9779 19.2515 80.2061 19.0169C80.4343 18.7823 80.6114 18.5029 80.7262 18.1965C80.8411 17.89 80.8912 17.5631 80.8734 17.2363Z" fill="#78716C"/>
<path d="M85.5186 9.12639C85.5186 8.75044 85.63 8.38294 85.8389 8.07037C86.0477 7.75778 86.3447 7.51414 86.692 7.37028C87.0393 7.22641 87.4215 7.18877 87.7902 7.26211C88.1589 7.33545 88.4976 7.51649 88.7635 7.78232C89.0293 8.04815 89.2103 8.38684 89.2837 8.75556C89.357 9.12428 89.3193 9.50646 89.1755 9.85379C89.0316 10.2011 88.788 10.498 88.4754 10.7069C88.1628 10.9157 87.7954 11.0272 87.4194 11.0272C86.9168 11.0222 86.4362 10.8204 86.0808 10.4649C85.7255 10.1095 85.5236 9.62896 85.5186 9.12639ZM85.8386 11.9563H89.0076V22.5163H85.8343L85.8386 11.9563Z" fill="#78716C"/>
<path d="M102.687 17.2363C102.723 17.9342 102.622 18.6324 102.387 19.2909C102.153 19.9493 101.791 20.555 101.322 21.0731C100.853 21.591 100.286 22.0113 99.6542 22.3095C99.0221 22.6077 98.3374 22.778 97.6393 22.8107C97.0522 22.8427 96.4654 22.7437 95.9213 22.5208C95.3772 22.2979 94.8896 21.9568 94.4937 21.5221V26.7392H91.3257V11.9563H94.4937V12.9483C94.8897 12.5139 95.3775 12.173 95.9215 11.9504C96.4656 11.7277 97.0523 11.6288 97.6393 11.6608C98.3375 11.6933 99.0224 11.8636 99.6546 12.1618C100.287 12.46 100.854 12.8803 101.323 13.3985C101.792 13.9167 102.154 14.5225 102.388 15.1812C102.622 15.8398 102.724 16.5382 102.687 17.2363ZM99.5187 17.2363C99.5064 16.7421 99.3485 16.2625 99.0649 15.8575C98.7813 15.4526 98.3846 15.1403 97.9244 14.9598C97.4641 14.7792 96.9609 14.7383 96.4776 14.8424C95.9943 14.9464 95.5525 15.1907 95.2073 15.5446C94.8621 15.8987 94.629 16.3464 94.5372 16.8323C94.4454 17.3181 94.4988 17.82 94.6909 18.2756C94.8829 18.7312 95.2052 19.1199 95.6171 19.3933C96.029 19.6665 96.5123 19.8124 97.0067 19.8123C97.3462 19.8274 97.6849 19.7705 98.0009 19.6455C98.3167 19.5206 98.6027 19.3302 98.8398 19.087C99.077 18.8437 99.2601 18.5532 99.3771 18.2342C99.4941 17.9153 99.5424 17.5751 99.5187 17.2363Z" fill="#78716C"/>
<path d="M112.463 19.3472C112.463 21.776 110.352 22.8106 108.071 22.8106C107.149 22.894 106.224 22.6993 105.415 22.2512C104.605 21.8032 103.949 21.1226 103.53 20.2976L106.275 18.7349C106.386 19.1162 106.624 19.4481 106.95 19.6747C107.276 19.9015 107.671 20.0096 108.067 19.9808C108.826 19.9808 109.207 19.7482 109.207 19.3269C109.207 18.1642 104.011 18.7776 104.011 15.1242C104.011 12.8213 105.955 11.6608 108.151 11.6608C108.977 11.6346 109.794 11.8305 110.518 12.2278C111.242 12.6252 111.847 13.2096 112.268 13.92L109.565 15.377C109.447 15.1004 109.25 14.8648 108.998 14.6996C108.746 14.5344 108.452 14.4469 108.151 14.448C107.602 14.448 107.264 14.6613 107.264 15.0389C107.268 16.2432 112.463 15.44 112.463 19.3472Z" fill="#78716C"/>
<path d="M124.035 11.9563V22.5163H120.867V21.5232C120.501 21.9614 120.037 22.3067 119.512 22.5307C118.987 22.7547 118.418 22.851 117.848 22.8118C115.715 22.8118 113.901 21.2918 113.901 18.4384V11.9563H117.069V17.9744C117.043 18.226 117.071 18.4802 117.154 18.7195C117.235 18.9589 117.368 19.1775 117.543 19.3602C117.718 19.543 117.93 19.6854 118.166 19.7776C118.401 19.8699 118.653 19.9098 118.906 19.8944C120.068 19.8944 120.87 19.2192 120.87 17.7195V11.9595L124.035 11.9563Z" fill="#78716C"/>
<path d="M142.2 16.0321V22.5153H139.032V16.3062C139.032 15.2502 138.526 14.575 137.512 14.575C136.456 14.575 135.864 15.3142 135.864 16.5601V22.5153H132.697V16.3062C132.697 15.2502 132.191 14.575 131.176 14.575C130.12 14.575 129.529 15.3142 129.529 16.5601V22.5153H126.361V11.9553H129.529V12.9259C129.858 12.4953 130.289 12.1538 130.783 11.9326C131.278 11.7114 131.819 11.6177 132.359 11.6598C132.901 11.6332 133.441 11.7477 133.926 11.9918C134.41 12.2359 134.823 12.6015 135.125 13.0529C135.476 12.5806 135.941 12.2052 136.477 11.9615C137.012 11.7179 137.601 11.6141 138.187 11.6598C140.612 11.6609 142.2 13.3921 142.2 16.0321Z" fill="#78716C"/>
<path d="M144.88 11.8912C146.178 11.8912 147.231 10.8386 147.231 9.54026C147.231 8.24188 146.178 7.18933 144.88 7.18933C143.582 7.18933 142.529 8.24188 142.529 9.54026C142.529 10.8386 143.582 11.8912 144.88 11.8912Z" fill="#78716C"/>
</svg>
